<svg width="54px" height="16px" viewBox="0 0 54 16" version="1.1" xmlns="http://www.w3.org/2000/svg" xmlns:xlink="http://www.w3.org/1999/xlink">
    <title>6D2ED64D-B116-4179-9B14-C641FC389531@2x</title>
    <defs>
        <polygon id="path-1" points="1.12918185 0.2055 5.22255 0.2055 5.22255 8.8119 1.12918185 8.8119"/>
        <polygon id="path-3" points="0.05325 0.7695 2.448 0.7695 2.448 7.1805 0.05325 7.1805"/>
    </defs>
    <g id="boletoFlash" stroke="none" stroke-width="1" fill="none" fill-rule="evenodd">
        <g id="Guide-UI" transform="translate(-659.000000, -387.000000)">
            <g id="bf-copy" transform="translate(659.000000, 387.000000)">
                <g id="Group-3" transform="translate(21.000000, 0.294440)">
                    <mask id="mask-2" fill="white">
                        <use xlink:href="#path-1"/>
                    </mask>
                    <g id="Clip-2"/>
                    <path d="M4.89405,7.3284 C4.62405,7.4904 4.30005,7.5729 3.93105,7.5729 C3.65955,7.5729 3.42705,7.5279 3.22905,7.4424 C2.72655,7.2069 2.46105,6.7179 2.44755,6.0234 C2.44755,6.0234 2.42505,5.7519 2.52705,4.9134 L3.09255,0.2049 L2.46555,0.2049 C2.10255,0.2049 1.77255,0.5004 1.72905,0.8634 L1.16655,5.5419 L1.16805,5.5419 C1.16655,5.5524 1.16505,5.5629 1.16355,5.5749 C1.10655,6.0504 1.12005,6.4704 1.20705,6.8574 C1.48905,8.0994 2.42505,8.8119 3.77055,8.8119 C4.17855,8.8119 4.56405,8.7459 4.91955,8.6124 L5.05005,8.5629 L5.22255,7.1319 L4.89405,7.3284 Z" id="Fill-1" fill="#4D4D4F" mask="url(#mask-2)"/>
                </g>
                <polygon id="Fill-4" fill="#4D4D4F" points="24.3546 3.80399 26.6571 3.80399 26.8071 2.56349 24.5046 2.56349"/>
                <polygon id="Fill-6" fill="#EF4136" points="38.69535 0.49994 39.35235 0.49994 38.33535 8.97494 37.67685 8.97494"/>
                <polygon id="Fill-8" fill="#EF4136" points="32.9547 8.97554 33.9702 0.52154 38.2167 0.52154 38.1432 1.13654 34.5537 1.13654 34.1757 4.28804 36.7872 4.28804 36.7122 4.90154 34.1022 4.90154 33.6102 8.97554"/>
                <path d="M10.6686,3.80399 C9.8631,3.80399 9.2766,4.19399 8.9286,4.96049 C8.8176,5.21249 8.7396,5.52299 8.6961,5.87999 C8.5851,6.79649 8.8566,7.45499 9.4551,7.73699 C9.6561,7.82399 9.8871,7.86599 10.1586,7.86599 C10.9641,7.86599 11.5326,7.48799 11.8491,6.74249 C11.9541,6.48599 12.0306,6.17999 12.0726,5.83499 C12.2346,4.48799 11.7621,3.80399 10.6686,3.80399 M9.9996,9.10649 C8.6526,9.10649 7.7181,8.39399 7.4346,7.15049 C7.3476,6.76349 7.3326,6.34499 7.3896,5.86799 C7.5741,4.35299 8.3496,3.25949 9.5781,2.78999 C9.9711,2.63999 10.3956,2.56349 10.8396,2.56349 C12.1941,2.56349 13.0821,3.25799 13.3416,4.51649 C13.4256,4.90949 13.4376,5.34599 13.3776,5.84699 C13.2036,7.27949 12.4341,8.38049 11.2626,8.86499 C10.8861,9.02549 10.4601,9.10649 9.9996,9.10649" id="Fill-10" fill="#4D4D4F"/>
                <path d="M30.0381,3.80399 C29.2311,3.80399 28.6461,4.19399 28.2981,4.96049 C28.1871,5.21249 28.1076,5.52299 28.0656,5.87999 C27.9546,6.79649 28.2246,7.45499 28.8246,7.73699 C29.0256,7.82399 29.2566,7.86599 29.5281,7.86599 C30.3336,7.86599 30.9021,7.48799 31.2171,6.74249 C31.3236,6.48599 31.4001,6.17999 31.4421,5.83499 C31.6026,4.48799 31.1316,3.80399 30.0381,3.80399 M29.3691,9.10649 C28.0221,9.10649 27.0876,8.39399 26.8041,7.15049 C26.7171,6.76349 26.7021,6.34499 26.7591,5.86799 C26.9421,4.35299 27.7191,3.25949 28.9476,2.78999 C29.3406,2.63999 29.7636,2.56349 30.2076,2.56349 C31.5636,2.56349 32.4501,3.25799 32.7096,4.51649 C32.7936,4.90949 32.8071,5.34599 32.7456,5.84699 C32.5731,7.27949 31.8036,8.38049 30.6321,8.86499 C30.2556,9.02549 29.8296,9.10649 29.3691,9.10649" id="Fill-12" fill="#4D4D4F"/>
                <path d="M20.41125,5.01239 C20.31525,4.19939 19.85025,3.80339 18.99975,3.80339 C18.19275,3.80339 17.60625,4.19339 17.25825,4.96139 C17.25225,4.97789 17.24475,4.99439 17.23725,5.01239 L20.41125,5.01239 Z M18.32925,9.10589 C16.98375,9.10589 16.04925,8.39339 15.76425,7.15139 C15.67875,6.76289 15.66375,6.34439 15.72075,5.86889 C15.90375,4.35239 16.68075,3.25889 17.90925,2.79089 C18.30225,2.63939 18.72675,2.56439 19.17075,2.56439 C20.52375,2.56439 21.41175,3.25739 21.67125,4.51589 C21.75525,4.91039 21.76725,5.34539 21.70725,5.84639 L21.66075,6.23039 L21.27375,6.25139 L17.00475,6.25289 C17.00175,6.98189 17.26875,7.49339 17.78625,7.73639 C17.98575,7.82339 18.21675,7.86689 18.48975,7.86689 C18.85875,7.86689 19.18275,7.78439 19.45275,7.62239 L19.78125,7.42589 L19.61025,8.85689 L19.47825,8.90639 C19.12425,9.03989 18.73725,9.10589 18.32925,9.10589 L18.32925,9.10589 Z" id="Fill-14" fill="#4D4D4F"/>
                <path d="M46.3683,9.10304 C45.7518,9.10304 45.1818,8.89604 44.6763,8.48954 L44.6298,8.45204 L45.0213,7.83704 L45.0843,7.89854 C45.3228,8.13254 45.7008,8.31854 46.1493,8.42054 C46.2753,8.44304 46.3923,8.45504 46.4838,8.45504 C47.3928,8.45504 47.8968,8.08454 47.9838,7.35554 C48.0153,7.10204 47.9523,6.91904 47.7663,6.72404 C47.5428,6.48704 47.1588,6.29954 46.7883,6.11804 C46.5513,6.00254 46.3068,5.88254 46.1208,5.75504 C45.7008,5.46254 45.3243,5.08304 45.4203,4.28804 C45.5118,3.52454 46.0263,2.95304 46.8723,2.67854 C47.1258,2.59304 47.3898,2.55104 47.6823,2.55104 C48.2088,2.55104 48.7233,2.70704 49.2138,3.01304 L49.2678,3.04604 L48.9243,3.67454 L48.8568,3.62804 C48.4353,3.34004 48.0048,3.19904 47.5428,3.19904 C46.9803,3.19904 46.5243,3.42854 46.2858,3.82904 C46.2093,3.96554 46.1628,4.10204 46.1463,4.25054 C46.0833,4.76804 46.2483,4.97354 46.5948,5.18954 C46.7943,5.32004 47.0298,5.43554 47.2788,5.55854 C47.7273,5.78054 48.1923,6.01004 48.4548,6.32654 C48.6843,6.60254 48.7593,6.91154 48.7068,7.35554 C48.6123,8.13254 48.0993,8.70854 47.2623,8.97704 C46.9983,9.06104 46.7058,9.10304 46.3683,9.10304" id="Fill-16" fill="#EF4136"/>
                <path d="M4.08405,7.70189 L2.23005,7.70189 L2.52555,5.23139 L4.08555,5.23139 C5.85255,5.23139 5.75205,6.06989 5.70855,6.42839 C5.60505,7.29689 5.08905,7.70189 4.08405,7.70189 L4.08405,7.70189 Z M2.94105,1.77389 L4.65405,1.77389 C5.74605,1.77389 5.83455,2.27189 5.77605,2.76239 C5.75205,2.95139 5.69805,3.12689 5.61855,3.26789 C5.36355,3.71339 4.85355,3.95789 4.18155,3.95789 L2.67855,3.95789 L2.94105,1.77389 Z M7.00755,5.54189 C6.87855,5.04539 6.58755,4.66589 6.15855,4.42739 C6.70005,4.00289 7.03905,3.39089 7.12455,2.67239 C7.16355,2.36039 7.14410591,2.06639 7.06755,1.79489 C6.81705,0.97139 6.07005,0.50039 5.01555,0.50039 L2.43405,0.50039 C2.07105,0.50039 1.74105,0.79439 1.69755,1.15739 L0.75855,8.97539 L4.04205,8.97539 C4.43955,8.97539 4.81605,8.91089 5.15955,8.78489 C6.22755,8.39639 6.91755,7.52189 7.05255,6.38489 C7.08855,6.09239 7.07205,5.80139 7.00755,5.54189 L7.00755,5.54189 Z" id="Fill-18" fill="#4D4D4F"/>
                <path d="M15.2124,0.49994 C14.8494,0.49994 14.5194,0.79394 14.4759,1.15544 L13.5369,8.97494 L14.8524,8.97494 L15.8694,0.49994 L15.2124,0.49994 Z" id="Fill-20" fill="#4D4D4F"/>
                <polygon id="Fill-22" fill="#4D4D4F" points="22.1265 11.16704 24.0735 11.16704 23.5785 15.29354 21.63 15.29354"/>
                <polygon id="Fill-24" fill="#4D4D4F" points="5.59425 11.16704 7.50075 11.16704 7.00575 15.29354 5.09775 15.29354"/>
                <polygon id="Fill-26" fill="#4D4D4F" points="2.4141 11.16704 3.0621 11.16704 2.5656 15.29354 1.9176 15.29354"/>
                <polygon id="Fill-28" fill="#4D4D4F" points="3.68565 11.16704 4.33365 11.16704 3.83865 15.29354 3.19065 15.29354"/>
                <polygon id="Fill-30" fill="#4D4D4F" points="0.49515 11.16704 1.78665 11.16704 1.29165 15.29354 0.00015 15.29354"/>
                <polygon id="Fill-32" fill="#4D4D4F" points="8.7642 11.16704 10.0557 11.16704 9.5607 15.29354 8.2692 15.29354"/>
                <polygon id="Fill-34" fill="#4D4D4F" points="17.03325 11.16704 18.37575 11.16704 17.87925 15.29354 16.53675 15.29354"/>
                <polygon id="Fill-36" fill="#4D4D4F" points="13.2261 11.16704 13.8741 11.16704 13.3791 15.29354 12.7311 15.29354"/>
                <polygon id="Fill-38" fill="#4D4D4F" points="15.13485 11.16704 15.78285 11.16704 15.28635 15.29354 14.63835 15.29354"/>
                <polygon id="Fill-40" fill="#4D4D4F" points="11.30865 11.16704 12.60015 11.16704 12.10365 15.29354 10.81215 15.29354"/>
                <polygon id="Fill-42" fill="#4D4D4F" points="19.5558 11.16704 20.8473 11.16704 20.3523 15.29354 19.0608 15.29354"/>
                <polygon id="Fill-44" fill="#4D4D4F" points="46.3008 11.16704 48.2538 11.16704 47.7573 15.29354 45.8058 15.29354"/>
                <polygon id="Fill-46" fill="#4D4D4F" points="29.77305 11.16704 31.68105 11.16704 31.18605 15.29354 29.27805 15.29354"/>
                <polygon id="Fill-48" fill="#4D4D4F" points="27.8658 11.16704 28.5138 11.16704 28.0173 15.29354 27.3693 15.29354"/>
                <polygon id="Fill-50" fill="#4D4D4F" points="25.2921 11.16704 26.5836 11.16704 26.0886 15.29354 24.7956 15.29354"/>
                <polygon id="Fill-52" fill="#4D4D4F" points="52.02405 11.16704 52.67205 11.16704 52.17705 15.29354 51.52905 15.29354"/>
                <polygon id="Fill-54" fill="#4D4D4F" points="49.47075 11.16704 50.76225 11.16704 50.26725 15.29354 48.97575 15.29354"/>
                <polygon id="Fill-56" fill="#4D4D4F" points="32.93415 11.16704 34.22565 11.16704 33.73065 15.29354 32.43765 15.29354"/>
                <polygon id="Fill-58" fill="#4D4D4F" points="40.58655 11.16704 42.55455 11.16704 42.05955 15.29354 40.09155 15.29354"/>
                <polygon id="Fill-60" fill="#4D4D4F" points="37.40625 11.16704 38.05425 11.16704 37.55775 15.29354 36.91125 15.29354"/>
                <polygon id="Fill-62" fill="#4D4D4F" points="39.315 11.16704 39.9615 11.16704 39.4665 15.29354 38.8185 15.29354"/>
                <polygon id="Fill-64" fill="#4D4D4F" points="35.4888 11.16704 36.7803 11.16704 36.2838 15.29354 34.9923 15.29354"/>
                <polygon id="Fill-66" fill="#4D4D4F" points="43.73595 11.16704 45.02745 11.16704 44.53095 15.29354 43.23945 15.29354"/>
                <path d="M41.5533,8.50604 L41.5278,8.50604 C41.0703,8.50604 39.7458,8.50604 39.7953,6.40454 L43.7418,6.40304 C43.4478,7.40804 42.6963,8.50604 41.5533,8.50604 M44.4363,4.48754 C44.1498,3.23954 43.2453,2.55104 41.8893,2.55104 C41.5263,2.55104 41.1843,2.60354 40.8663,2.70704 L40.7913,3.32354 C41.0973,3.19754 41.4363,3.13454 41.8068,3.13454 C42.1683,3.13454 42.4788,3.19304 42.7623,3.31904 C43.4778,3.65204 43.8543,4.34654 43.8498,5.32304 L43.8468,5.77904 L39.2538,5.77904 L39.2058,5.78204 L39.1998,5.82854 C39.0153,7.37354 39.3063,9.13154 41.4408,9.13154 L41.4648,9.13154 C42.3273,9.13154 43.0353,8.68004 43.5513,8.03654 L43.4388,8.97404 L44.0973,8.97404 C44.0973,8.97404 44.4768,5.81654 44.4783,5.80454 C44.5368,5.31254 44.5218,4.88054 44.4363,4.48754" id="Fill-68" fill="#EF4136"/>
                <polygon id="Fill-70" fill="#EF4136" points="50.06985 0.49994 49.05135 8.97494 49.70535 8.97494 50.72385 0.49994"/>
                <g id="Group-74" transform="translate(51.000000, 1.794440)">
                    <mask id="mask-4" fill="white">
                        <use xlink:href="#path-3"/>
                    </mask>
                    <g id="Clip-73"/>
                    <path d="M0.72075,0.7695 C0.51375,0.7695 0.31575,0.7965 0.12525,0.8415 L0.05325,1.4475 C0.20175,1.4025 0.35475,1.38 0.50925,1.38 C1.53075,1.38 1.91475,1.9665 1.75575,3.282 L1.28925,7.1805 L1.93575,7.1805 L2.41725,3.168 C2.52375,2.271 2.44725,0.7695 0.72075,0.7695" id="Fill-72" fill="#EF4136" mask="url(#mask-4)"/>
                </g>
            </g>
        </g>
    </g>
</svg>