<svg width="31px" height="21px" viewBox="0 0 31 21" version="1.1" xmlns="http://www.w3.org/2000/svg" xmlns:xlink="http://www.w3.org/1999/xlink">
    <title>0452EC8D-F7D1-46A5-AF54-6F2BDBE206DB@2x</title>
    <defs>
        <polygon id="path-1" points="0.00062 0.000247058824 30.45688 0.000247058824 30.45688 20.6049529 0.00062 20.6049529"/>
    </defs>
    <g id="creditCard" stroke="none" stroke-width="1" fill="none" fill-rule="evenodd">
        <g id="Guide-UI" transform="translate(-671.000000, -276.000000)">
            <g id="credito-copy" transform="translate(671.000000, 276.000000)">
                <mask id="mask-2" fill="white">
                    <use xlink:href="#path-1"/>
                </mask>
                <g id="Clip-2"/>
                <path d="M25.6091,12.3556588 L25.6091,12.3556588 C25.6091,12.0110118 25.32762,11.7318353 24.9829,11.7318353 L21.6969,11.7318353 C21.35094,11.7318353 21.0707,12.0110118 21.0707,12.3556588 C21.0707,12.7003059 21.35094,12.9794824 21.6969,12.9794824 L24.9829,12.9794824 C25.32762,12.9794824 25.6091,12.7003059 25.6091,12.3556588 L25.6091,12.3556588 Z M20.2027,12.3556588 L20.2027,12.3556588 C20.2027,12.0110118 19.92122,11.7318353 19.57526,11.7318353 L16.28926,11.7318353 C15.9433,11.7318353 15.66306,12.0110118 15.66306,12.3556588 C15.66306,12.7003059 15.9433,12.9794824 16.28926,12.9794824 L19.57526,12.9794824 C19.92122,12.9794824 20.2027,12.7003059 20.2027,12.3556588 L20.2027,12.3556588 Z M18.87094,15.9763059 L18.87094,15.9763059 C18.87094,15.6316588 18.5907,15.3524824 18.24598,15.3524824 L5.47522,15.3524824 C5.12802,15.3524824 4.84778,15.6316588 4.84778,15.9763059 C4.84778,16.3197176 5.12802,16.6001294 5.47522,16.6001294 L18.24598,16.6001294 C18.5907,16.6001294 18.87094,16.3197176 18.87094,15.9763059 L18.87094,15.9763059 Z M4.84778,12.3556588 L4.84778,12.3556588 C4.84778,12.7003059 5.12802,12.9794824 5.47522,12.9794824 L8.76122,12.9794824 C9.10594,12.9794824 9.38742,12.7003059 9.38742,12.3556588 C9.38742,12.0110118 9.10594,11.7318353 8.76122,11.7318353 L5.47522,11.7318353 C5.12802,11.7318353 4.84778,12.0110118 4.84778,12.3556588 L4.84778,12.3556588 Z M5.49134,7.35271765 L7.43814,7.35271765 L7.43814,5.41330588 L5.49134,5.41330588 L5.49134,7.35271765 Z M7.62166,8.63495294 L5.30906,8.63495294 C4.70022,8.63495294 4.20298,8.14207059 4.20298,7.53554118 L4.20298,5.23048235 C4.20298,4.62395294 4.70022,4.12983529 5.30906,4.12983529 L7.62166,4.12983529 C8.2305,4.12983529 8.72774,4.62395294 8.72774,5.23048235 L8.72774,7.53554118 C8.72774,8.14207059 8.2305,8.63495294 7.62166,8.63495294 L7.62166,8.63495294 Z M10.25542,12.3556588 L10.25542,12.3556588 C10.25542,12.7003059 10.5369,12.9794824 10.88286,12.9794824 L14.16762,12.9794824 C14.51482,12.9794824 14.79382,12.7003059 14.79382,12.3556588 C14.79382,12.0110118 14.51482,11.7318353 14.16762,11.7318353 L10.88286,11.7318353 C10.5369,11.7318353 10.25542,12.0110118 10.25542,12.3556588 L10.25542,12.3556588 Z M2.38514,1.28371765 C1.78002,1.28371765 1.28898,1.77412941 1.28898,2.37695294 L1.28898,18.2282471 C1.28898,18.8310706 1.78002,19.3227176 2.38514,19.3227176 L28.0705,19.3227176 C28.67686,19.3227176 29.16914,18.8310706 29.16914,18.2282471 L29.16914,2.37695294 C29.16914,1.77412941 28.67686,1.28371765 28.0705,1.28371765 L2.38514,1.28371765 Z M28.0705,20.6049529 L2.38514,20.6049529 C1.07074,20.6049529 0.00062,19.5388941 0.00062,18.2282471 L0.00062,2.37695294 C0.00062,1.06630588 1.07074,0.000247058824 2.38514,0.000247058824 L28.0705,0.000247058824 C29.38738,0.000247058824 30.4575,1.06630588 30.4575,2.37695294 L30.4575,18.2282471 C30.4575,19.5388941 29.38738,20.6049529 28.0705,20.6049529 L28.0705,20.6049529 Z" id="Fill-1" fill="#4D4D4F" mask="url(#mask-2)"/>
            </g>
        </g>
    </g>
</svg>