<svg version="1.1" xmlns="http://www.w3.org/2000/svg" xmlns:xlink="http://www.w3.org/1999/xlink" x="0px" y="0px" width="54px" height="16px" viewBox="0 0 54 16" style="enable-background:new 0 0 54 16;" xml:space="preserve">
<style type="text/css">
	.st0{fill:#EE4036;}
	.st1{fill:#4D4D4F;}
</style>
<g>
	<path class="st0" d="M50.66,2.69h-0.27V2.51h0.75v0.18h-0.27v0.64h-0.2V2.69z M51.24,2.51h0.17l0.23,0.35l0.22-0.35h0.18l0.03,0.82   h-0.19L51.87,2.8l-0.2,0.32H51.6l-0.19-0.3l-0.01,0.51h-0.18L51.24,2.51z"/>
	<path class="st1" d="M9.99,2.37h1.04L10.08,3.7H9.37L9.99,2.37z"/>
	<polygon class="st0" points="29.23,9.38 29.85,2.36 34.16,2.36 34.1,3.07 30.52,3.07 30.31,5.48 33.2,5.48 33.14,6.19 30.25,6.19    29.96,9.38  "/>
	<path class="st0" d="M34.07,9.38l0.62-7.02h0c0.38,0,0.67,0.32,0.64,0.7l-0.56,6.31H34.07z"/>
	<path class="st0" d="M37.24,9.54c-0.21,0-0.42-0.02-0.63-0.06c-0.21-0.04-0.4-0.12-0.57-0.24c-0.17-0.11-0.3-0.27-0.39-0.47   c-0.09-0.19-0.13-0.44-0.1-0.74c0.02-0.24,0.08-0.46,0.18-0.67c0.1-0.22,0.25-0.4,0.45-0.56c0.19-0.16,0.44-0.28,0.73-0.37   c0.28-0.09,0.62-0.13,1.01-0.13c0.3,0,0.56,0.01,0.8,0.03c0.17,0.02,0.32,0.03,0.46,0.05l0.01-0.13c0.02-0.24,0.01-0.45-0.03-0.6   c-0.04-0.15-0.12-0.27-0.22-0.36c-0.1-0.09-0.24-0.15-0.4-0.19c-0.17-0.04-0.37-0.06-0.6-0.06c-0.38,0-0.69,0.05-0.91,0.16   c-0.23,0.11-0.42,0.21-0.54,0.31l-0.1,0.07l-0.35-0.49l0.08-0.07c0.16-0.13,0.39-0.26,0.71-0.41c0.32-0.14,0.71-0.21,1.16-0.21   c0.65,0,1.14,0.14,1.48,0.41c0.34,0.28,0.49,0.74,0.43,1.37l-0.22,2.53c-0.01,0.12-0.02,0.22-0.02,0.3c0,0.11,0,0.2,0,0.28l0,0.12   h-0.68l0-0.1c0-0.06,0-0.14,0.01-0.21c0-0.06,0-0.14,0.01-0.24l0-0.01c-0.08,0.08-0.16,0.15-0.24,0.21   c-0.17,0.12-0.35,0.22-0.53,0.3c-0.18,0.07-0.35,0.12-0.52,0.15C37.53,9.53,37.38,9.54,37.24,9.54z M37.86,6.91   c-0.34,0-0.61,0.04-0.82,0.12c-0.2,0.08-0.35,0.17-0.46,0.28c-0.11,0.11-0.18,0.23-0.22,0.36c-0.04,0.14-0.07,0.26-0.08,0.37   c-0.03,0.3,0.05,0.51,0.24,0.65c0.2,0.14,0.48,0.21,0.81,0.21c0.22,0,0.44-0.04,0.64-0.11c0.2-0.08,0.39-0.18,0.54-0.3   c0.16-0.12,0.29-0.27,0.39-0.43c0.1-0.16,0.15-0.31,0.17-0.47l0.05-0.57c-0.12-0.02-0.27-0.05-0.44-0.07   C38.48,6.92,38.2,6.91,37.86,6.91z"/>
	<path class="st0" d="M42.19,9.54c-0.47,0-0.87-0.07-1.19-0.2c-0.32-0.13-0.59-0.32-0.8-0.54l-0.07-0.08l0.5-0.49l0.08,0.08   c0.17,0.18,0.38,0.33,0.62,0.43c0.24,0.1,0.53,0.15,0.87,0.15c0.19,0,0.37-0.02,0.54-0.05c0.17-0.03,0.32-0.09,0.44-0.15   c0.12-0.06,0.22-0.14,0.3-0.23c0.07-0.09,0.11-0.2,0.12-0.32c0.01-0.15-0.01-0.27-0.06-0.36c-0.05-0.09-0.13-0.17-0.25-0.23   c-0.12-0.07-0.28-0.12-0.47-0.17c-0.2-0.05-0.43-0.11-0.69-0.17c-0.22-0.05-0.43-0.11-0.61-0.17c-0.19-0.07-0.35-0.15-0.49-0.25   c-0.14-0.1-0.24-0.24-0.31-0.4c-0.07-0.16-0.1-0.36-0.08-0.59c0.02-0.23,0.09-0.44,0.22-0.61c0.12-0.17,0.28-0.32,0.47-0.44   c0.19-0.12,0.4-0.2,0.63-0.25c0.23-0.05,0.46-0.08,0.7-0.08c0.39,0,0.74,0.07,1.03,0.21c0.29,0.14,0.53,0.33,0.7,0.55l0.06,0.08   l-0.53,0.43L43.86,5.6c-0.14-0.17-0.32-0.3-0.51-0.4c-0.19-0.1-0.44-0.15-0.73-0.15c-0.15,0-0.3,0.01-0.45,0.03   c-0.14,0.02-0.28,0.06-0.39,0.12c-0.11,0.06-0.21,0.13-0.28,0.23c-0.07,0.09-0.12,0.22-0.13,0.38c-0.01,0.12,0.01,0.22,0.08,0.3   c0.07,0.09,0.16,0.17,0.28,0.23C41.85,6.4,42,6.45,42.17,6.49c0.18,0.04,0.36,0.09,0.53,0.13c0.19,0.04,0.39,0.09,0.59,0.15   c0.2,0.06,0.39,0.15,0.55,0.25c0.17,0.11,0.3,0.25,0.4,0.41c0.1,0.17,0.14,0.38,0.11,0.63c-0.02,0.26-0.11,0.48-0.25,0.67   c-0.14,0.18-0.31,0.34-0.52,0.46c-0.2,0.12-0.43,0.21-0.68,0.26C42.67,9.51,42.42,9.54,42.19,9.54z"/>
	<path class="st0" d="M48.56,9.38l0.23-2.57c0.03-0.35,0.03-0.64-0.01-0.86c-0.04-0.22-0.11-0.39-0.21-0.52   c-0.1-0.12-0.22-0.21-0.38-0.26c-0.16-0.05-0.36-0.08-0.57-0.08c-0.29,0-0.54,0.06-0.76,0.17c-0.22,0.12-0.41,0.27-0.56,0.45   c-0.15,0.18-0.28,0.39-0.37,0.62C45.84,6.55,45.79,6.78,45.77,7l-0.21,2.38h-0.7l0.62-7.01h0.7l-0.25,2.87   c0.01-0.01,0.02-0.03,0.03-0.04c0.12-0.14,0.27-0.26,0.44-0.38c0.17-0.11,0.37-0.21,0.59-0.29c0.22-0.08,0.47-0.12,0.75-0.12   c0.36,0,0.66,0.05,0.9,0.16c0.24,0.11,0.44,0.26,0.58,0.46c0.14,0.2,0.23,0.44,0.27,0.72c0.04,0.27,0.05,0.57,0.02,0.9l-0.24,2.73   H48.56z"/>
	<path class="st0" d="M45.05,11.15h-2.22c-0.13,0-0.22-0.1-0.21-0.23v0c0.01-0.13,0.13-0.23,0.26-0.23h2.22   c0.13,0,0.22,0.1,0.21,0.23v0C45.29,11.05,45.18,11.15,45.05,11.15z M45.19,12.27L45.19,12.27c0.01-0.13-0.08-0.23-0.21-0.23h-3.22   c-0.13,0-0.24,0.1-0.26,0.23v0c-0.01,0.13,0.08,0.23,0.21,0.23h3.22C45.06,12.51,45.17,12.4,45.19,12.27z M53.26,8.45   c0.33,0,0.57,0.26,0.54,0.59l-0.36,4.01c-0.03,0.33-0.32,0.59-0.64,0.59h-5.94c-0.33,0-0.57-0.26-0.54-0.59l0.26-2.97   c0.01-0.13,0.13-0.23,0.26-0.23c0.13,0,0.22,0.1,0.21,0.23L47,10.69h6.19l0.04-0.5h-3.07c-0.13,0-0.22-0.1-0.21-0.23   c0.01-0.13,0.13-0.23,0.26-0.23h3.07l0.05-0.59c0.01-0.11-0.07-0.21-0.19-0.21H50.9c-0.13,0-0.22-0.1-0.21-0.23   c0.01-0.13,0.13-0.23,0.26-0.23H53.26z M46.98,13.17h5.77c0.11,0,0.21-0.09,0.22-0.21l0.16-1.81h-6.19l-0.16,1.81   C46.79,13.08,46.87,13.17,46.98,13.17z"/>
	<ellipse transform="matrix(0.7226 -0.6913 0.6913 0.7226 3.0949 13.6877)" class="st1" cx="18.6" cy="2.99" rx="0.65" ry="0.59"/>
	<path class="st1" d="M0.82,2.37h2.34c0.55,0,1.06,0.07,1.51,0.2C5.12,2.71,5.5,2.92,5.81,3.21C6.12,3.5,6.35,3.87,6.5,4.31   c0.15,0.44,0.2,0.97,0.14,1.57C6.6,6.47,6.46,6.98,6.23,7.42C6,7.86,5.71,8.22,5.34,8.51C4.98,8.8,4.56,9.02,4.08,9.16   c-0.48,0.14-1,0.21-1.55,0.21H0.2L0.82,2.37z M2.59,8.47c0.87,0,1.57-0.22,2.1-0.65c0.52-0.43,0.82-1.07,0.9-1.92   c0.08-0.85-0.1-1.51-0.53-1.96C4.63,3.5,3.95,3.27,3.02,3.27H1.75L1.29,8.47H2.59z"/>
	<path class="st1" d="M12.91,2.37h0.94l-0.24,2.66c0.05-0.06,0.13-0.13,0.22-0.21c0.09-0.08,0.21-0.15,0.34-0.22   c0.13-0.07,0.28-0.12,0.45-0.16c0.17-0.04,0.35-0.06,0.56-0.06c0.36,0,0.68,0.06,0.94,0.19c0.26,0.13,0.48,0.31,0.65,0.54   c0.17,0.23,0.29,0.5,0.35,0.8s0.09,0.64,0.05,0.99c-0.03,0.38-0.13,0.74-0.29,1.06c-0.16,0.32-0.37,0.6-0.63,0.83   C16,9.01,15.69,9.19,15.34,9.32C15,9.45,14.62,9.52,14.21,9.52c-0.4,0-0.77-0.03-1.1-0.09C12.77,9.36,12.5,9.28,12.3,9.2   L12.91,2.37z M13.29,8.56c0.1,0.03,0.21,0.06,0.35,0.09C13.79,8.68,14,8.7,14.28,8.7c0.27,0,0.52-0.04,0.75-0.13   c0.22-0.09,0.42-0.21,0.59-0.37c0.17-0.16,0.31-0.35,0.41-0.57c0.1-0.22,0.17-0.46,0.19-0.72c0.02-0.22,0.01-0.44-0.02-0.65   c-0.03-0.21-0.1-0.39-0.2-0.55c-0.1-0.16-0.24-0.28-0.4-0.38c-0.17-0.09-0.38-0.14-0.63-0.14c-0.23,0-0.44,0.04-0.61,0.12   c-0.18,0.08-0.33,0.19-0.46,0.31c-0.13,0.13-0.23,0.28-0.3,0.45c-0.07,0.17-0.11,0.35-0.13,0.53L13.29,8.56z"/>
	<path class="st1" d="M18.01,4.49h0.94l-0.43,4.88h-0.94L18.01,4.49z"/>
	<path class="st1" d="M25.62,9.52c-0.38,0-0.72-0.07-1.02-0.2c-0.3-0.14-0.56-0.32-0.76-0.56c-0.21-0.24-0.36-0.51-0.46-0.82   c-0.1-0.31-0.14-0.65-0.11-1c0.03-0.36,0.13-0.69,0.28-1c0.16-0.31,0.36-0.59,0.61-0.82c0.25-0.24,0.54-0.43,0.86-0.56   c0.33-0.14,0.68-0.2,1.06-0.2c0.37,0,0.71,0.07,1.01,0.2c0.3,0.14,0.56,0.32,0.77,0.56c0.21,0.24,0.37,0.51,0.47,0.82   c0.1,0.31,0.14,0.65,0.11,1c-0.03,0.36-0.13,0.69-0.28,1c-0.16,0.31-0.36,0.59-0.61,0.82c-0.25,0.24-0.54,0.43-0.87,0.56   C26.34,9.45,25.99,9.52,25.62,9.52z M25.69,8.7c0.25,0,0.48-0.05,0.7-0.15c0.21-0.1,0.39-0.23,0.55-0.4   c0.15-0.16,0.28-0.35,0.37-0.57c0.09-0.21,0.15-0.43,0.17-0.66c0.02-0.22,0-0.43-0.05-0.65c-0.05-0.21-0.15-0.4-0.27-0.57   c-0.13-0.17-0.29-0.3-0.48-0.4C26.48,5.2,26.26,5.15,26,5.15c-0.25,0-0.48,0.05-0.7,0.15c-0.21,0.1-0.4,0.23-0.55,0.4   c-0.15,0.16-0.28,0.35-0.37,0.57c-0.09,0.21-0.15,0.43-0.17,0.66c-0.02,0.22,0,0.44,0.05,0.65c0.05,0.21,0.15,0.4,0.28,0.57   c0.13,0.17,0.29,0.3,0.48,0.4C25.22,8.65,25.44,8.7,25.69,8.7z"/>
	<path class="st1" d="M22.63,8.38c-0.13,0.11-0.26,0.2-0.38,0.25c-0.12,0.06-0.28,0.08-0.46,0.08c-0.22,0-0.39-0.07-0.5-0.22   c-0.11-0.15-0.15-0.42-0.11-0.81l0.21-2.4h1.43l0.07-0.79h-1.43l0.14-1.6h-0.94l-0.14,1.6h-0.88l-0.07,0.79h0.88l-0.22,2.5   c-0.05,0.59,0.03,1.03,0.25,1.31s0.58,0.42,1.1,0.42c0.29,0,0.55-0.04,0.77-0.13c0.2-0.08,0.39-0.21,0.59-0.37L22.63,8.38z"/>
	<path class="st1" d="M11.01,8.09c-0.13,0.13-0.34,0.27-0.61,0.41c-0.28,0.14-0.62,0.21-1.04,0.21c-0.21,0-0.41-0.04-0.59-0.12   C8.59,8.52,8.43,8.41,8.3,8.28C8.16,8.14,8.06,7.99,7.99,7.81c-0.07-0.18-0.1-0.38-0.09-0.6h3.85c0.03-0.37,0.02-0.73-0.04-1.07   c-0.06-0.34-0.18-0.65-0.34-0.91c-0.17-0.27-0.4-0.48-0.68-0.64c-0.29-0.16-0.64-0.24-1.06-0.24c-0.36,0-0.69,0.07-1,0.2   C8.31,4.67,8.04,4.85,7.8,5.08c-0.24,0.23-0.43,0.5-0.58,0.81c-0.15,0.31-0.24,0.65-0.27,1C6.93,7.28,6.95,7.64,7.05,7.96   c0.09,0.32,0.24,0.6,0.45,0.83C7.7,9.02,7.95,9.2,8.26,9.33c0.3,0.13,0.64,0.19,1.02,0.19c0.31,0,0.59-0.03,0.83-0.1   c0.25-0.07,0.46-0.15,0.65-0.24c0.19-0.09,0.34-0.19,0.46-0.28c0.05-0.04,0.09-0.07,0.13-0.11L11.01,8.09z M8.12,5.99   c0.08-0.16,0.2-0.31,0.33-0.44c0.14-0.13,0.3-0.23,0.48-0.3c0.19-0.08,0.39-0.12,0.61-0.12c0.43,0,0.76,0.13,0.97,0.4   c0.21,0.27,0.32,0.59,0.31,0.97H7.96C7.98,6.33,8.04,6.16,8.12,5.99z"/>
</g>
</svg>