<svg width="50px" height="16px" viewBox="0 0 50 16" version="1.1" xmlns="http://www.w3.org/2000/svg" xmlns:xlink="http://www.w3.org/1999/xlink">
    <defs>
        <polygon id="path-1" points="0 0.05205 7.30968536 0.05205 7.30968536 8.72055 0 8.72055"/>
        <polygon id="path-3" points="1.06997869 1.299 9.16814464 1.299 9.16814464 10.4376 1.06997869 10.4376"/>
    </defs>
    <g id="pecFlash" stroke="none" stroke-width="1" fill="none" fill-rule="evenodd">
        <g id="Guide-UI" transform="translate(-661.000000, -443.000000)">
            <g id="pec-copy" transform="translate(661.000000, 442.000000)">
                <polygon id="Fill-1" fill="#EF4136" points="28.2566176 1.7085 28.9183824 1.7085 27.8948529 10.4055 27.2330882 10.4055"/>
                <polygon id="Fill-2" fill="#EF4136" points="22.4805882 10.4067 23.5011765 1.7307 27.7732353 1.7307 27.6997059 2.3607 24.0908824 2.3607 23.71 5.5962 26.335 5.5962 26.2614706 6.2262 23.635 6.2262 23.1423529 10.4067"/>
                <g id="Group-27" transform="translate(0.000000, 0.201300)">
                    <path d="M35.9772059,10.3365 C35.3566176,10.3365 34.7845588,10.122 34.2742647,9.708 L34.2301471,9.669 L34.6198529,9.036 L34.6860294,9.1005 C34.9257353,9.339 35.3051471,9.5295 35.7580882,9.6345 C35.8830882,9.66 36.0007353,9.6705 36.0919118,9.6705 C37.0066176,9.6705 37.5169118,9.291 37.6051471,8.544 C37.6345588,8.283 37.5713235,8.094 37.3830882,7.896 C37.1610294,7.6515 36.7742647,7.4595 36.4022059,7.2735 C36.1625,7.155 35.9169118,7.032 35.7286765,6.9 C35.3051471,6.6 34.9272059,6.2115 35.0242647,5.3955 C35.1154412,4.6125 35.6345588,4.026 36.4860294,3.7425 C36.7404412,3.654 37.0051471,3.612 37.2977941,3.612 C37.8286765,3.612 38.3463235,3.7725 38.8419118,4.086 L38.8933824,4.119 L38.5477941,4.764 L38.4816176,4.7175 C38.0566176,4.422 37.6242647,4.278 37.1595588,4.278 C36.5933824,4.278 36.1316176,4.512 35.8948529,4.9245 C35.8154412,5.064 35.7698529,5.205 35.7551471,5.3565 C35.6904412,5.8875 35.8566176,6.0975 36.2036765,6.3195 C36.4080882,6.453 36.6419118,6.573 36.8948529,6.699 C37.3448529,6.927 37.8125,7.161 38.0772059,7.488 C38.3066176,7.7715 38.3830882,8.0865 38.3286765,8.544 C38.2345588,9.339 37.7213235,9.9315 36.8786765,10.2075 C36.6110294,10.2945 36.3154412,10.3365 35.9772059,10.3365" id="Fill-3" fill="#EF4136"/>
                    <path d="M31.2495588,9.72345 L31.2230882,9.72345 C30.7613235,9.72345 29.4289706,9.72345 29.4804412,7.56795 L33.4525,7.56645 C33.1539706,8.59695 32.3995588,9.72345 31.2495588,9.72345 M34.1495588,5.59995 C33.8598529,4.31745 32.9525,3.61245 31.5863235,3.61245 C31.2216176,3.61245 30.8760294,3.66645 30.5583824,3.77295 L30.4833824,4.40445 C30.7907353,4.27695 31.1304412,4.21245 31.5054412,4.21245 C31.8701471,4.21245 32.1804412,4.27245 32.4657353,4.39845 C33.1848529,4.74195 33.5657353,5.45295 33.5598529,6.45645 L33.5598529,6.92595 L28.9348529,6.92595 L28.8863235,6.92745 L28.8833824,6.97695 C28.6966176,8.56095 28.9877941,10.36695 31.1377941,10.36695 L31.1598529,10.36695 C32.0245588,10.36695 32.7407353,9.90345 33.2583824,9.24195 L33.1466176,10.20495 L33.8098529,10.20495 C33.8098529,10.20495 34.1922059,6.96345 34.1922059,6.94995 C34.2525,6.44595 34.2363235,6.00345 34.1495588,5.59995" id="Fill-5" fill="#EF4136"/>
                    <polygon id="Fill-7" fill="#EF4136" points="39.7010294 1.5072 38.6804412 10.2042 39.3348529 10.2042 40.3583824 1.5072"/>
                    <path d="M41.3613235,3.6261 C41.1554412,3.6261 40.9554412,3.6531 40.7657353,3.6996 L40.6922059,4.3206 C40.8422059,4.2771 40.9951471,4.2516 41.1495588,4.2516 C42.1789706,4.2516 42.5642647,4.8546 42.4054412,6.2046 L41.9348529,10.2051 L42.5833824,10.2051 L43.0686765,6.0861 C43.1775,5.1666 43.0995588,3.6261 41.3613235,3.6261" id="Fill-9" fill="#EF4136"/>
                    <g id="Group-13" transform="translate(0.000000, 1.500000)">
                        <mask id="mask-2" fill="white">
                            <use xlink:href="#path-1"/>
                        </mask>
                        <g id="Clip-12"/>
                        <path d="M2.10058824,4.20105 L4.06970588,4.20255 C4.58882353,4.20255 4.98735294,4.08405 5.24911765,3.85155 C5.52117647,3.64155 5.69617647,3.27255 5.76088235,2.76255 C5.81382353,2.32305 5.74323529,1.96005 5.54029412,1.68255 C5.27558824,1.42755 4.92852941,1.30755 4.49323529,1.30755 L2.46088235,1.30605 L2.10058824,4.20105 Z M-0.000882352941,8.72055 L0.975588235,0.85455 C1.00647059,0.62955 1.10647059,0.44355 1.28294118,0.28605 C1.45941176,0.12855 1.65647059,0.05205 1.88,0.05205 L4.92264706,0.05205 C5.82558824,0.05355 6.47411765,0.28005 6.84911765,0.73005 C7.24323529,1.18305 7.38441176,1.87005 7.27264706,2.77605 C7.16382353,3.64005 6.85352941,4.32855 6.34911765,4.82355 C5.85647059,5.27655 5.17852941,5.51055 4.33735294,5.51055 L1.93735294,5.50905 L1.53882353,8.72055 L-0.000882352941,8.72055 Z" id="Fill-11" fill="#4D4D4F" mask="url(#mask-2)"/>
                    </g>
                    <path d="M7.17720588,10.22295 L8.15514706,2.35695 C8.18308824,2.13345 8.28455882,1.94745 8.45955882,1.78845 C8.6375,1.63095 8.83308824,1.55445 9.05661765,1.55445 L14.4492647,1.55595 L14.2977941,2.78595 L9.61544118,2.78445 L9.3375,5.02545 L12.8213235,5.02845 L12.7683824,5.45445 C12.7404412,5.67645 12.6404412,5.86395 12.4639706,6.01995 C12.2860294,6.18045 12.0904412,6.25545 11.8669118,6.25545 L9.18308824,6.25545 L8.85955882,8.86395 L13.5404412,8.86545 L13.3713235,10.22595 L7.17720588,10.22295 Z" id="Fill-14" fill="#4D4D4F"/>
                    <g id="Group-18" transform="translate(13.235294, 0.000000)">
                        <mask id="mask-4" fill="white">
                            <use xlink:href="#path-3"/>
                        </mask>
                        <g id="Clip-17"/>
                        <path d="M4.55926471,10.4376 C3.26514706,10.4376 2.31808824,10.0446 1.74161765,9.2706 C1.15338235,8.5236 0.951911765,7.3926 1.13573529,5.9106 C1.32544118,4.3896 1.82544118,3.2361 2.61955882,2.4816 C3.43279412,1.6956 4.53279412,1.2981 5.88867647,1.2981 C6.99014706,1.2981 7.83867647,1.5741 8.41220588,2.1186 C8.91808824,2.6136 9.1725,3.3126 9.16814464,4.1991 L8.1975,4.1991 C7.84308824,4.1991 7.63279412,4.0581 7.52544118,3.7536 C7.42102941,3.5016 7.28867647,3.2871 7.12838235,3.1026 C6.76808824,2.8026 6.29014706,2.6571 5.68573529,2.6571 C4.84602941,2.6571 4.15632353,2.9361 3.63132353,3.4851 C3.12691176,4.0326 2.80926471,4.8351 2.67985294,5.8746 C2.55485294,6.8811 2.67985294,7.6731 3.04897059,8.2266 C3.40632353,8.8071 4.01955882,9.1041 4.86808824,9.1041 C5.45338235,9.1041 5.96367647,8.9541 6.38426471,8.6586 C6.74897059,8.3961 7.04455882,7.9851 7.26220588,7.4346 L8.76073529,7.4346 C8.53279412,8.3481 8.0725,9.0786 7.38426471,9.6081 C6.63573529,10.1586 5.68573529,10.4376 4.56367647,10.4376 L4.55926471,10.4376 Z" id="Fill-16" fill="#4D4D4F" mask="url(#mask-4)"/>
                    </g>
                    <path d="M32.3452941,12.31185 C32.1482353,12.31185 31.9894118,12.14985 31.9894118,11.94885 C31.9894118,11.74785 32.1482353,11.58285 32.3452941,11.58285 L40.2732353,11.58285 C40.4658824,11.58285 40.6247059,11.74485 40.6247059,11.94885 C40.6247059,12.15135 40.4658824,12.31185 40.2732353,12.31185 L32.3452941,12.31185 Z" id="Fill-19" fill="#EF4136"/>
                    <path d="M28.2264706,14.4021 C28.025,14.4021 27.8676471,14.2446 27.8676471,14.0421 C27.8676471,13.8426 28.0279412,13.6806 28.2264706,13.6806 L38.8838235,13.6806 C39.0764706,13.6806 39.2411765,13.8456 39.2411765,14.0421 C39.2411765,14.2416 39.0823529,14.4021 38.8838235,14.4021 L28.2264706,14.4021 Z" id="Fill-21" fill="#EF4136"/>
                    <path d="M43.4708824,14.4732 C42.6679412,14.4732 42.015,13.8087 42.015,12.9942 C42.015,12.1797 42.6679412,11.5152 43.4708824,11.5152 C44.2694118,11.5152 44.9194118,12.1797 44.9194118,12.9942 C44.9194118,13.8087 44.2694118,14.4732 43.4708824,14.4732" id="Fill-23" fill="#EF4136"/>
                    <path d="M49.5888235,9.489 L44.1814706,9.489 C43.9785294,9.489 43.8197059,9.648 43.8197059,9.8505 C43.8197059,10.0545 43.9785294,10.2135 44.1814706,10.2135 L47.7167647,10.2135 L49.2285294,11.7585 L49.2285294,14.2305 L47.7226471,15.768 L36.6697059,15.768 C36.4755882,15.768 36.3138235,15.9345 36.3138235,16.1355 C36.3138235,16.335 36.4726471,16.5 36.6697059,16.5 L49.5888235,16.5 C49.7844118,16.5 49.9447059,16.335 49.9447059,16.1355 L49.9447059,9.8505 C49.9447059,9.6495 49.7844118,9.489 49.5888235,9.489" id="Fill-25" fill="#EF4136"/>
                </g>
            </g>
        </g>
    </g>
</svg>