<svg width="28px" height="28px" viewBox="0 0 28 28" version="1.1" xmlns="http://www.w3.org/2000/svg" xmlns:xlink="http://www.w3.org/1999/xlink">
    <title>pix</title>
    <g id="pix" stroke="none" stroke-width="1" fill="none" fill-rule="evenodd">
        <g transform="translate(-498.000000, -607.000000)">
            <g transform="translate(498.000000, 607.000000)">
                <path d="M23.2847,27.7735 L4.4877,27.7735 C2.0097,27.7735 -0.0003,25.7635 -0.0003,23.2855 L-0.0003,4.4885 C-0.0003,2.0085 2.0097,0.0005 4.4877,0.0005 L23.2847,0.0005 C25.7637,0.0005 27.7727,2.0085 27.7727,4.4885 L27.7727,23.2855 C27.7727,25.7635 25.7637,27.7735 23.2847,27.7735" id="Fill-1" fill="#62B9A5"/>
                <path d="M23.9871115,11.8205003 L21.1117407,8.94446159 L20.4257928,8.94446159 C19.7745764,8.94446159 19.1387221,9.20962355 18.6805329,9.67115229 L15.424451,12.9506112 C15.0711243,13.2925833 14.614271,13.4622335 14.1580856,13.4622335 C13.6945531,13.4622335 13.2316885,13.2865721 12.8823694,12.9372529 L12.8670073,12.9198871 L9.99030072,9.75130199 C9.52543241,9.23901177 8.86152566,8.94446159 8.16889859,8.94446159 L6.74958083,8.94446159 L3.87421003,11.8205003 C2.70869969,12.9860107 2.70869969,14.87554 3.87421003,16.0410504 L6.74958083,18.9170891 L7.8175757,18.9170891 C8.46879208,18.9170891 9.10464644,18.6525951 9.56283561,18.1903984 L12.8189175,14.9109395 C13.5302462,14.2223199 14.6670362,14.2310028 15.3603312,14.9242978 L15.3763611,14.9409956 L18.2530678,18.1102487 C18.7179361,18.6232068 19.3818428,18.9170891 20.0744699,18.9170891 L21.1117407,18.9170891 L23.9871115,16.0410504 C25.1526219,14.87554 25.1526219,12.9860107 23.9871115,11.8205003 L23.9871115,11.8205003 Z M8.16889859,7.99068006 C9.13002718,7.99068006 10.0510809,8.39877566 10.696954,9.10943641 L13.5649777,12.2700066 C13.8929236,12.5892696 14.4239154,12.5912733 14.7538651,12.2720103 L18.0032678,8.99856265 C18.5790099,8.41881309 19.3564621,8.06415063 20.1679779,8.00136669 L16.0416037,3.87432461 C14.8754255,2.70814634 12.9858961,2.70814634 11.8203857,3.87432461 L7.70403028,7.99068006 L8.16889859,7.99068006 Z M20.1579592,19.8715385 L16.0416037,23.987894 C14.8754255,25.1534043 12.9858961,25.1534043 11.8203857,23.987894 L7.70403028,19.8715385 L7.8175757,19.8715385 C8.72126367,19.8715385 9.60357838,19.5035178 10.2401006,18.862988 L13.4895034,15.5902083 C13.8194531,15.2702774 14.3504449,15.2722811 14.6783908,15.5915441 L17.5457466,18.7514464 C18.1922876,19.462775 19.1133413,19.8715385 20.0744699,19.8715385 L20.1579592,19.8715385 Z" id="Fill-1" fill="#FFFFFF"/>
            </g>
        </g>
    </g>
</svg>