<?xml version="1.0" encoding="UTF-8"?>
<svg width="170px" height="170px" viewBox="0 0 170 170" version="1.1" xmlns="http://www.w3.org/2000/svg" xmlns:xlink="http://www.w3.org/1999/xlink">
    <title>qr-exp - 170px@2x</title>
    <defs>
        <polygon id="path-1" points="0 0.000241134752 35.7994681 0.000241134752 35.7994681 31.5750284 0 31.5750284"></polygon>
    </defs>
    <g id="Page-1" stroke="none" stroke-width="1" fill="none" fill-rule="evenodd">
        <g id="Boleto-Flash-Pix--2-Copy-3" transform="translate(-796.000000, -265.000000)">
            <g id="qr-exp---170px" transform="translate(796.000000, 265.000000)">
                <g id="Group-3-Copy">
                    <polygon id="Fill-1" fill="#FEFEFE" points="0 169.598547 169.599122 169.598547 169.599122 -0.000574324324 0 -0.000574324324"></polygon>
                    <path d="M113.031047,157.60723 L116.002601,157.60723 L116.002601,154.635676 L113.031047,154.635676 L113.031047,157.60723 Z M80.3416554,157.60723 L83.3132095,157.60723 L83.3132095,154.635676 L80.3416554,154.635676 L80.3416554,157.60723 Z M74.3985473,157.606655 L77.3701014,157.606655 L77.3701014,154.635101 L74.3985473,154.635101 L74.3985473,157.606655 Z M62.5117568,154.635676 L62.5117568,157.606655 L65.4827365,157.606655 L68.4548649,157.606655 L68.4548649,154.635676 L68.4548649,151.663547 L65.4827365,151.663547 L65.4827365,154.635676 L62.5117568,154.635676 Z M59.5396284,154.635676 L62.5117568,154.635676 L62.5117568,151.663547 L59.5396284,151.663547 L59.5396284,154.635676 Z M50.6238176,151.663547 L50.6238176,148.691993 L50.6238176,145.719865 L50.6238176,142.748311 L47.6522635,142.748311 L44.6807095,142.748311 L44.6807095,145.719865 L47.6522635,145.719865 L47.6522635,148.691993 L47.6522635,151.663547 L44.6807095,151.663547 L44.6807095,154.635676 L47.6522635,154.635676 L47.6522635,157.606655 L50.6238176,157.606655 L53.5959459,157.606655 L53.5959459,154.635676 L50.6238176,154.635676 L50.6238176,151.663547 Z M35.765473,154.635676 L35.765473,157.606655 L38.737027,157.606655 L38.737027,154.635676 L38.737027,151.663547 L35.765473,151.663547 L35.765473,154.635676 Z M121.946284,148.691993 L121.946284,145.719865 L118.97473,145.719865 L118.97473,148.691993 L116.002601,148.691993 L116.002601,145.719865 L116.002601,142.748311 L113.031047,142.748311 L113.031047,145.719865 L113.031047,148.691993 L113.031047,151.663547 L116.002601,151.663547 L118.97473,151.663547 L118.97473,154.635676 L121.946284,154.635676 L124.918412,154.635676 L124.918412,151.663547 L121.946284,151.663547 L121.946284,148.691993 Z M62.5117568,151.663547 L65.4833108,151.663547 L65.4833108,148.691993 L62.5117568,148.691993 L62.5117568,151.663547 Z M38.737027,151.663547 L41.7091554,151.663547 L41.7091554,148.691993 L38.737027,148.691993 L38.737027,151.663547 Z M148.691993,148.691993 L151.663547,148.691993 L151.663547,145.719865 L148.691993,145.719865 L148.691993,148.691993 Z M104.115811,148.691993 L107.087365,148.691993 L110.059493,148.691993 L110.059493,145.719865 L107.087365,145.719865 L107.087365,142.748311 L104.115811,142.748311 L104.115811,145.719865 L101.143682,145.719865 L101.143682,148.691993 L104.115811,148.691993 Z M65.4827365,148.691993 L68.4548649,148.691993 L68.4548649,145.719865 L65.4827365,145.719865 L65.4827365,148.691993 Z M53.5959459,148.691993 L53.5959459,151.663547 L53.5959459,154.635676 L56.5680743,154.635676 L56.5680743,151.663547 L56.5680743,148.691993 L56.5680743,145.719865 L56.5680743,142.748311 L53.5959459,142.748311 L53.5959459,145.719865 L53.5959459,148.691993 Z M65.4827365,145.719865 L65.4827365,142.748311 L62.5117568,142.748311 L59.5396284,142.748311 L59.5396284,145.719865 L59.5396284,148.691993 L62.5117568,148.691993 L62.5117568,145.719865 L65.4827365,145.719865 Z M20.9065541,142.748311 L17.935,142.748311 L17.935,145.719865 L17.935,148.691993 L17.935,151.663547 L20.9065541,151.663547 L23.8786824,151.663547 L26.8502365,151.663547 L26.8502365,148.691993 L26.8502365,145.719865 L26.8502365,142.748311 L23.8786824,142.748311 L20.9065541,142.748311 Z M35.765473,142.748311 L35.765473,145.719865 L35.765473,148.691993 L38.737027,148.691993 L38.737027,145.719865 L41.7091554,145.719865 L41.7091554,142.748311 L38.737027,142.748311 L35.765473,142.748311 Z M50.6238176,142.748311 L53.5959459,142.748311 L53.5959459,139.776182 L50.6238176,139.776182 L50.6238176,142.748311 Z M136.805203,139.776182 L139.776757,139.776182 L139.776757,136.804628 L136.805203,136.804628 L136.805203,139.776182 Z M83.3132095,139.776182 L86.2853378,139.776182 L86.2853378,136.804628 L83.3132095,136.804628 L83.3132095,139.776182 Z M71.4264189,136.805203 L68.4548649,136.805203 L68.4548649,139.776182 L68.4548649,142.748311 L68.4548649,145.719865 L71.4264189,145.719865 L71.4264189,142.748311 L74.3985473,142.748311 L74.3985473,139.776182 L71.4264189,139.776182 L71.4264189,136.805203 Z M47.6522635,139.776182 L50.6238176,139.776182 L50.6238176,136.804628 L47.6522635,136.804628 L47.6522635,139.776182 Z M44.6807095,136.805203 L47.6522635,136.805203 L47.6522635,133.833074 L44.6807095,133.833074 L41.7091554,133.833074 L41.7091554,136.805203 L41.7091554,139.776182 L41.7091554,142.748311 L44.6807095,142.748311 L44.6807095,139.776182 L44.6807095,136.805203 Z M29.8223649,139.776182 L26.8502365,139.776182 L23.8786824,139.776182 L20.9065541,139.776182 L17.935,139.776182 L14.9628716,139.776182 L14.9628716,142.748311 L14.9628716,145.719865 L14.9628716,148.691993 L14.9628716,151.663547 L14.9628716,154.635676 L17.935,154.635676 L20.9065541,154.635676 L23.8786824,154.635676 L26.8502365,154.635676 L29.8223649,154.635676 L29.8223649,151.663547 L29.8223649,148.691993 L29.8223649,145.719865 L29.8223649,142.748311 L29.8223649,139.776182 Z M29.8223649,136.805203 L32.7933446,136.805203 L32.7933446,139.776182 L32.7933446,142.748311 L32.7933446,145.719865 L32.7933446,148.691993 L32.7933446,151.663547 L32.7933446,154.635676 L32.7933446,157.606655 L29.8223649,157.606655 L26.8502365,157.606655 L23.8786824,157.606655 L20.9065541,157.606655 L17.935,157.606655 L14.9628716,157.606655 L11.9918919,157.606655 L11.9918919,154.635676 L11.9918919,151.663547 L11.9918919,148.691993 L11.9918919,145.719865 L11.9918919,142.748311 L11.9918919,139.776182 L11.9918919,136.805203 L14.9628716,136.805203 L17.935,136.805203 L20.9065541,136.805203 L23.8786824,136.805203 L26.8502365,136.805203 L29.8223649,136.805203 Z M142.748885,142.748311 L142.748885,139.776182 L142.748885,136.805203 L142.748885,133.833074 L139.776757,133.833074 L136.805203,133.833074 L133.833074,133.833074 L133.833074,136.805203 L133.833074,139.776182 L133.833074,142.748311 L136.805203,142.748311 L139.776757,142.748311 L142.748885,142.748311 Z M118.97473,127.889392 L118.97473,124.917838 L121.946284,124.917838 L121.946284,121.946284 L118.97473,121.946284 L116.002601,121.946284 L116.002601,118.97473 L113.031047,118.97473 L110.059493,118.97473 L107.087365,118.97473 L107.087365,121.946284 L110.059493,121.946284 L110.059493,124.917838 L107.087365,124.917838 L107.087365,127.889392 L104.115811,127.889392 L104.115811,130.86152 L104.115811,133.833074 L107.087365,133.833074 L107.087365,136.805203 L110.059493,136.805203 L110.059493,133.833074 L110.059493,130.86152 L110.059493,127.889392 L113.031047,127.889392 L116.002601,127.889392 L118.97473,127.889392 Z M124.917838,127.889392 L127.889392,127.889392 L127.889392,124.917838 L124.917838,124.917838 L124.917838,127.889392 Z M89.2568919,142.748311 L89.2568919,139.776182 L89.2568919,136.805203 L89.2568919,133.833074 L86.2853378,133.833074 L83.3132095,133.833074 L80.3416554,133.833074 L80.3416554,136.805203 L80.3416554,139.776182 L80.3416554,142.748311 L83.3132095,142.748311 L86.2853378,142.748311 L89.2568919,142.748311 Z M151.663547,136.805203 L154.635676,136.805203 L154.635676,139.776182 L151.663547,139.776182 L148.691993,139.776182 L148.691993,142.748311 L145.719865,142.748311 L145.719865,145.719865 L145.719865,148.691993 L145.719865,151.663547 L148.691993,151.663547 L151.663547,151.663547 L151.663547,154.635676 L154.635676,154.635676 L154.635676,151.663547 L151.663547,151.663547 L151.663547,148.691993 L154.635676,148.691993 L154.635676,145.719865 L157.60723,145.719865 L157.60723,148.691993 L157.60723,151.663547 L157.60723,154.635676 L157.60723,157.606655 L154.635676,157.606655 L151.663547,157.606655 L148.691993,157.606655 L145.719865,157.606655 L142.748885,157.606655 L139.776757,157.606655 L136.805203,157.606655 L136.805203,154.635676 L133.833074,154.635676 L133.833074,157.606655 L130.86152,157.606655 L130.86152,154.635676 L130.86152,151.663547 L133.833074,151.663547 L136.805203,151.663547 L139.776757,151.663547 L139.776757,154.635676 L142.748885,154.635676 L142.748885,151.663547 L142.748885,148.691993 L142.748885,145.719865 L139.776757,145.719865 L136.805203,145.719865 L133.833074,145.719865 L130.86152,145.719865 L130.86152,148.691993 L130.86152,151.663547 L127.889392,151.663547 L124.918412,151.663547 L124.918412,148.691993 L127.889392,148.691993 L127.889392,145.719865 L127.889392,142.748311 L127.889392,139.776182 L130.86152,139.776182 L130.86152,136.805203 L127.889392,136.805203 L127.889392,139.776182 L124.918412,139.776182 L124.918412,142.748311 L124.918412,145.719865 L121.946284,145.719865 L121.946284,142.748311 L121.946284,139.776182 L118.97473,139.776182 L116.002601,139.776182 L116.002601,136.805203 L118.97473,136.805203 L118.97473,133.833074 L121.946284,133.833074 L121.946284,130.86152 L118.97473,130.86152 L116.002601,130.86152 L113.031047,130.86152 L113.031047,133.833074 L116.002601,133.833074 L116.002601,136.805203 L113.031047,136.805203 L113.031047,139.776182 L110.059493,139.776182 L107.087365,139.776182 L104.115811,139.776182 L104.115811,142.748311 L101.143682,142.748311 L101.143682,145.719865 L98.1721284,145.719865 L98.1721284,148.691993 L95.2,148.691993 L95.2,151.663547 L95.2,154.635676 L98.1721284,154.635676 L101.143682,154.635676 L104.115811,154.635676 L104.115811,151.663547 L107.087365,151.663547 L110.059493,151.663547 L113.031047,151.663547 L113.031047,154.635676 L110.059493,154.635676 L110.059493,157.606655 L107.087365,157.606655 L104.115811,157.606655 L101.143682,157.606655 L98.1721284,157.606655 L95.2,157.606655 L92.2290203,157.606655 L92.2290203,154.635676 L89.2568919,154.635676 L89.2568919,151.663547 L89.2568919,148.691993 L92.2290203,148.691993 L92.2290203,145.719865 L89.2568919,145.719865 L89.2568919,148.691993 L86.2853378,148.691993 L86.2853378,151.663547 L83.3132095,151.663547 L80.3416554,151.663547 L80.3416554,154.635676 L77.3701014,154.635676 L77.3701014,151.663547 L74.3985473,151.663547 L71.4264189,151.663547 L71.4264189,148.691993 L74.3985473,148.691993 L74.3985473,145.719865 L77.3701014,145.719865 L77.3701014,148.691993 L80.3416554,148.691993 L83.3132095,148.691993 L83.3132095,145.719865 L80.3416554,145.719865 L77.3701014,145.719865 L77.3701014,142.748311 L77.3701014,139.776182 L74.3985473,139.776182 L74.3985473,136.805203 L71.4264189,136.805203 L71.4264189,133.833074 L74.3985473,133.833074 L77.3701014,133.833074 L77.3701014,130.86152 L80.3416554,130.86152 L80.3416554,127.889392 L77.3701014,127.889392 L74.3985473,127.889392 L74.3985473,130.86152 L71.4264189,130.86152 L71.4264189,133.833074 L68.4548649,133.833074 L68.4548649,136.805203 L65.4827365,136.805203 L62.5117568,136.805203 L59.5396284,136.805203 L59.5396284,133.833074 L62.5117568,133.833074 L62.5117568,130.86152 L65.4827365,130.86152 L68.4548649,130.86152 L68.4548649,127.889392 L68.4548649,124.917838 L71.4264189,124.917838 L71.4264189,121.946284 L74.3985473,121.946284 L74.3985473,124.917838 L77.3701014,124.917838 L77.3701014,121.946284 L74.3985473,121.946284 L74.3985473,118.97473 L77.3701014,118.97473 L77.3701014,116.002601 L80.3416554,116.002601 L83.3132095,116.002601 L83.3132095,118.97473 L83.3132095,121.946284 L80.3416554,121.946284 L80.3416554,124.917838 L83.3132095,124.917838 L86.2853378,124.917838 L86.2853378,127.889392 L83.3132095,127.889392 L83.3132095,130.86152 L86.2853378,130.86152 L89.2568919,130.86152 L89.2568919,127.889392 L89.2568919,124.917838 L92.2290203,124.917838 L92.2290203,121.946284 L92.2290203,118.97473 L92.2290203,116.002601 L89.2568919,116.002601 L89.2568919,113.030473 L89.2568919,110.058919 L92.2290203,110.058919 L92.2290203,113.030473 L95.2,113.030473 L98.1721284,113.030473 L98.1721284,110.058919 L101.143682,110.058919 L101.143682,113.030473 L101.143682,116.002601 L98.1721284,116.002601 L98.1721284,118.97473 L101.143682,118.97473 L101.143682,121.946284 L98.1721284,121.946284 L95.2,121.946284 L95.2,124.917838 L95.2,127.889392 L92.2290203,127.889392 L92.2290203,130.86152 L92.2290203,133.833074 L92.2290203,136.805203 L95.2,136.805203 L95.2,139.776182 L98.1721284,139.776182 L101.143682,139.776182 L101.143682,136.805203 L101.143682,133.833074 L98.1721284,133.833074 L95.2,133.833074 L95.2,130.86152 L98.1721284,130.86152 L98.1721284,127.889392 L98.1721284,124.917838 L101.143682,124.917838 L104.115811,124.917838 L104.115811,121.946284 L104.115811,118.97473 L101.143682,118.97473 L101.143682,116.002601 L104.115811,116.002601 L107.087365,116.002601 L107.087365,113.030473 L110.059493,113.030473 L110.059493,116.002601 L113.031047,116.002601 L116.002601,116.002601 L116.002601,113.030473 L118.97473,113.030473 L121.946284,113.030473 L121.946284,116.002601 L121.946284,118.97473 L124.918412,118.97473 L124.918412,116.002601 L127.889392,116.002601 L127.889392,113.030473 L130.86152,113.030473 L130.86152,116.002601 L130.86152,118.97473 L127.889392,118.97473 L127.889392,121.946284 L130.86152,121.946284 L130.86152,118.97473 L133.833074,118.97473 L133.833074,121.946284 L133.833074,124.917838 L130.86152,124.917838 L130.86152,127.889392 L133.833074,127.889392 L133.833074,130.86152 L136.805203,130.86152 L139.776757,130.86152 L142.748885,130.86152 L142.748885,127.889392 L145.719865,127.889392 L145.719865,130.86152 L148.691993,130.86152 L148.691993,133.833074 L145.719865,133.833074 L145.719865,136.805203 L148.691993,136.805203 L148.691993,133.833074 L151.663547,133.833074 L151.663547,136.805203 Z M53.5959459,136.805203 L56.5680743,136.805203 L56.5680743,133.833074 L53.5959459,133.833074 L50.6238176,133.833074 L50.6238176,136.805203 L53.5959459,136.805203 Z M47.6522635,133.833074 L50.6238176,133.833074 L50.6238176,130.86152 L47.6522635,130.86152 L47.6522635,133.833074 Z M17.935,133.833074 L20.9065541,133.833074 L20.9065541,130.86152 L23.8786824,130.86152 L23.8786824,127.889392 L20.9065541,127.889392 L17.935,127.889392 L17.935,124.917838 L14.9628716,124.917838 L14.9628716,127.889392 L14.9628716,130.86152 L11.9918919,130.86152 L11.9918919,133.833074 L14.9628716,133.833074 L17.935,133.833074 Z M29.8223649,133.833074 L32.7939189,133.833074 L32.7939189,130.86152 L29.8223649,130.86152 L29.8223649,133.833074 Z M50.6238176,127.889392 L53.5959459,127.889392 L53.5959459,124.917838 L50.6238176,124.917838 L50.6238176,127.889392 Z M41.7091554,127.889392 L41.7091554,130.86152 L44.6807095,130.86152 L47.6522635,130.86152 L47.6522635,127.889392 L44.6807095,127.889392 L44.6807095,124.917838 L41.7091554,124.917838 L41.7091554,127.889392 Z M154.635676,124.917838 L154.635676,127.889392 L151.663547,127.889392 L151.663547,130.86152 L154.635676,130.86152 L154.635676,133.833074 L154.635676,136.805203 L157.60723,136.805203 L157.60723,133.833074 L157.60723,130.86152 L157.60723,127.889392 L157.60723,124.917838 L157.60723,121.946284 L157.60723,118.97473 L154.635676,118.97473 L154.635676,121.946284 L154.635676,124.917838 Z M62.5117568,118.97473 L65.4833108,118.97473 L65.4833108,116.002601 L62.5117568,116.002601 L62.5117568,118.97473 Z M23.8786824,104.115811 L23.8786824,101.143682 L20.9065541,101.143682 L20.9065541,104.115811 L17.935,104.115811 L17.935,101.143682 L14.9628716,101.143682 L14.9628716,104.115811 L14.9628716,107.086791 L17.935,107.086791 L20.9065541,107.086791 L20.9065541,104.115811 L23.8786824,104.115811 Z M68.4548649,121.946284 L68.4548649,124.917838 L65.4827365,124.917838 L62.5117568,124.917838 L59.5396284,124.917838 L59.5396284,127.889392 L59.5396284,130.86152 L56.5680743,130.86152 L53.5959459,130.86152 L53.5959459,127.889392 L56.5680743,127.889392 L56.5680743,124.917838 L53.5959459,124.917838 L53.5959459,121.946284 L50.6238176,121.946284 L47.6522635,121.946284 L47.6522635,124.917838 L44.6807095,124.917838 L44.6807095,121.946284 L41.7091554,121.946284 L38.737027,121.946284 L38.737027,118.97473 L35.765473,118.97473 L35.765473,121.946284 L35.765473,124.917838 L38.737027,124.917838 L38.737027,127.889392 L38.737027,130.86152 L38.737027,133.833074 L38.737027,136.805203 L35.765473,136.805203 L35.765473,133.833074 L35.765473,130.86152 L35.765473,127.889392 L32.7933446,127.889392 L29.8223649,127.889392 L26.8502365,127.889392 L26.8502365,124.917838 L29.8223649,124.917838 L32.7933446,124.917838 L32.7933446,121.946284 L29.8223649,121.946284 L29.8223649,118.97473 L32.7933446,118.97473 L32.7933446,116.002601 L35.765473,116.002601 L38.737027,116.002601 L38.737027,113.030473 L38.737027,110.058919 L41.7091554,110.058919 L41.7091554,107.086791 L38.737027,107.086791 L38.737027,110.058919 L35.765473,110.058919 L35.765473,107.086791 L32.7933446,107.086791 L32.7933446,104.115811 L29.8223649,104.115811 L26.8502365,104.115811 L26.8502365,107.086791 L29.8223649,107.086791 L32.7933446,107.086791 L32.7933446,110.058919 L29.8223649,110.058919 L26.8502365,110.058919 L23.8786824,110.058919 L23.8786824,113.030473 L23.8786824,116.002601 L20.9065541,116.002601 L20.9065541,113.030473 L20.9065541,110.058919 L17.935,110.058919 L14.9628716,110.058919 L11.9918919,110.058919 L11.9918919,107.086791 L11.9918919,104.115811 L11.9918919,101.143682 L11.9918919,98.1721284 L14.9628716,98.1721284 L14.9628716,95.2 L17.935,95.2 L17.935,98.1721284 L20.9065541,98.1721284 L20.9065541,95.2 L17.935,95.2 L17.935,92.2284459 L20.9065541,92.2284459 L23.8786824,92.2284459 L23.8786824,95.2 L26.8502365,95.2 L26.8502365,98.1721284 L26.8502365,101.143682 L29.8223649,101.143682 L32.7933446,101.143682 L35.765473,101.143682 L38.737027,101.143682 L38.737027,104.115811 L41.7091554,104.115811 L44.6807095,104.115811 L44.6807095,107.086791 L47.6522635,107.086791 L47.6522635,110.058919 L44.6807095,110.058919 L44.6807095,113.030473 L41.7091554,113.030473 L41.7091554,116.002601 L41.7091554,118.97473 L44.6807095,118.97473 L47.6522635,118.97473 L47.6522635,116.002601 L50.6238176,116.002601 L53.5959459,116.002601 L53.5959459,118.97473 L56.5680743,118.97473 L56.5680743,116.002601 L53.5959459,116.002601 L53.5959459,113.030473 L56.5680743,113.030473 L59.5396284,113.030473 L62.5117568,113.030473 L65.4827365,113.030473 L68.4548649,113.030473 L71.4264189,113.030473 L71.4264189,116.002601 L68.4548649,116.002601 L68.4548649,118.97473 L68.4548649,121.946284 Z M17.935,118.97473 L17.935,116.002601 L14.9628716,116.002601 L14.9628716,118.97473 L14.9628716,121.946284 L17.935,121.946284 L17.935,118.97473 Z M86.2853378,118.97473 L89.2568919,118.97473 L89.2568919,116.002601 L86.2853378,116.002601 L86.2853378,118.97473 Z M133.833074,116.002601 L136.805203,116.002601 L136.805203,113.030473 L136.805203,110.058919 L139.776757,110.058919 L139.776757,107.086791 L136.805203,107.086791 L133.833074,107.086791 L133.833074,110.058919 L130.86152,110.058919 L130.86152,113.030473 L133.833074,113.030473 L133.833074,116.002601 Z M44.6807095,116.002601 L47.6528378,116.002601 L47.6528378,113.030473 L44.6807095,113.030473 L44.6807095,116.002601 Z M32.7933446,116.002601 L32.7933446,113.030473 L29.8223649,113.030473 L26.8502365,113.030473 L26.8502365,116.002601 L23.8786824,116.002601 L23.8786824,118.97473 L23.8786824,121.946284 L26.8502365,121.946284 L26.8502365,118.97473 L29.8223649,118.97473 L29.8223649,116.002601 L32.7933446,116.002601 Z M151.663547,113.030473 L151.663547,116.002601 L148.691993,116.002601 L145.719865,116.002601 L145.719865,118.97473 L142.748885,118.97473 L142.748885,116.002601 L142.748885,113.030473 L139.776757,113.030473 L139.776757,116.002601 L139.776757,118.97473 L136.805203,118.97473 L136.805203,121.946284 L139.776757,121.946284 L139.776757,124.917838 L136.805203,124.917838 L136.805203,127.889392 L139.776757,127.889392 L142.748885,127.889392 L142.748885,124.917838 L145.719865,124.917838 L145.719865,127.889392 L148.691993,127.889392 L148.691993,124.917838 L148.691993,121.946284 L148.691993,118.97473 L151.663547,118.97473 L154.635676,118.97473 L154.635676,116.002601 L154.635676,113.030473 L154.635676,110.058919 L151.663547,110.058919 L151.663547,113.030473 Z M124.918412,110.058919 L124.918412,107.086791 L124.918412,104.115811 L127.889392,104.115811 L127.889392,101.143682 L124.918412,101.143682 L121.946284,101.143682 L121.946284,104.115811 L118.97473,104.115811 L118.97473,107.086791 L116.002601,107.086791 L116.002601,110.058919 L118.97473,110.058919 L121.946284,110.058919 L121.946284,113.030473 L124.918412,113.030473 L127.889392,113.030473 L127.889392,110.058919 L124.918412,110.058919 Z M113.031047,113.030473 L116.002601,113.030473 L116.002601,110.058919 L113.031047,110.058919 L113.031047,113.030473 Z M32.7933446,113.030473 L35.765473,113.030473 L35.765473,110.058919 L32.7933446,110.058919 L32.7933446,113.030473 Z M127.889392,110.058919 L130.86152,110.058919 L130.86152,107.086791 L130.86152,104.115811 L127.889392,104.115811 L127.889392,107.086791 L127.889392,110.058919 Z M80.3416554,107.087365 L83.3132095,107.087365 L83.3132095,104.115811 L80.3416554,104.115811 L80.3416554,107.087365 Z M83.3132095,89.2568919 L86.2853378,89.2568919 L89.2568919,89.2568919 L89.2568919,86.2853378 L89.2568919,83.3132095 L89.2568919,80.3416554 L86.2853378,80.3416554 L83.3132095,80.3416554 L80.3416554,80.3416554 L80.3416554,83.3132095 L80.3416554,86.2853378 L80.3416554,89.2568919 L83.3132095,89.2568919 Z M98.1721284,107.086791 L98.1721284,110.058919 L95.2,110.058919 L92.2290203,110.058919 L92.2290203,107.086791 L89.2568919,107.086791 L89.2568919,104.115811 L86.2853378,104.115811 L86.2853378,107.086791 L86.2853378,110.058919 L83.3132095,110.058919 L80.3416554,110.058919 L80.3416554,113.030473 L77.3701014,113.030473 L77.3701014,116.002601 L74.3985473,116.002601 L74.3985473,113.030473 L71.4264189,113.030473 L71.4264189,110.058919 L74.3985473,110.058919 L74.3985473,107.086791 L71.4264189,107.086791 L68.4548649,107.086791 L65.4827365,107.086791 L62.5117568,107.086791 L62.5117568,104.115811 L65.4827365,104.115811 L65.4827365,101.143682 L62.5117568,101.143682 L62.5117568,104.115811 L59.5396284,104.115811 L59.5396284,101.143682 L59.5396284,98.1721284 L62.5117568,98.1721284 L65.4827365,98.1721284 L68.4548649,98.1721284 L68.4548649,101.143682 L71.4264189,101.143682 L74.3985473,101.143682 L74.3985473,104.115811 L77.3701014,104.115811 L77.3701014,101.143682 L80.3416554,101.143682 L80.3416554,98.1721284 L83.3132095,98.1721284 L83.3132095,95.2 L83.3132095,92.2284459 L80.3416554,92.2284459 L80.3416554,95.2 L77.3701014,95.2 L77.3701014,92.2284459 L74.3985473,92.2284459 L74.3985473,89.2568919 L77.3701014,89.2568919 L77.3701014,86.2853378 L74.3985473,86.2853378 L74.3985473,83.3132095 L77.3701014,83.3132095 L77.3701014,80.3416554 L74.3985473,80.3416554 L74.3985473,77.369527 L77.3701014,77.369527 L80.3416554,77.369527 L83.3132095,77.369527 L86.2853378,77.369527 L89.2568919,77.369527 L89.2568919,74.397973 L92.2290203,74.397973 L92.2290203,71.4264189 L92.2290203,68.4548649 L95.2,68.4548649 L95.2,71.4264189 L98.1721284,71.4264189 L101.143682,71.4264189 L101.143682,68.4548649 L101.143682,65.4827365 L98.1721284,65.4827365 L98.1721284,62.5111824 L101.143682,62.5111824 L104.115811,62.5111824 L107.087365,62.5111824 L107.087365,65.4827365 L107.087365,68.4548649 L104.115811,68.4548649 L104.115811,71.4264189 L107.087365,71.4264189 L110.059493,71.4264189 L110.059493,68.4548649 L110.059493,65.4827365 L113.031047,65.4827365 L113.031047,68.4548649 L113.031047,71.4264189 L113.031047,74.397973 L110.059493,74.397973 L107.087365,74.397973 L104.115811,74.397973 L101.143682,74.397973 L98.1721284,74.397973 L95.2,74.397973 L95.2,77.369527 L98.1721284,77.369527 L98.1721284,80.3416554 L95.2,80.3416554 L92.2290203,80.3416554 L92.2290203,83.3132095 L92.2290203,86.2853378 L92.2290203,89.2568919 L95.2,89.2568919 L95.2,92.2284459 L95.2,95.2 L98.1721284,95.2 L98.1721284,98.1721284 L95.2,98.1721284 L95.2,101.143682 L92.2290203,101.143682 L92.2290203,98.1721284 L89.2568919,98.1721284 L89.2568919,95.2 L92.2290203,95.2 L92.2290203,92.2284459 L89.2568919,92.2284459 L86.2853378,92.2284459 L86.2853378,95.2 L86.2853378,98.1721284 L86.2853378,101.143682 L89.2568919,101.143682 L92.2290203,101.143682 L92.2290203,104.115811 L95.2,104.115811 L95.2,107.086791 L98.1721284,107.086791 Z M53.5959459,107.086791 L50.6238176,107.086791 L50.6238176,110.058919 L47.6522635,110.058919 L47.6522635,113.030473 L50.6238176,113.030473 L53.5959459,113.030473 L53.5959459,110.058919 L53.5959459,107.086791 Z M142.748885,107.086791 L142.748885,110.058919 L142.748885,113.030473 L145.719865,113.030473 L145.719865,110.058919 L148.691993,110.058919 L151.663547,110.058919 L151.663547,107.086791 L151.663547,104.115811 L148.691993,104.115811 L148.691993,107.086791 L145.719865,107.086791 L145.719865,104.115811 L145.719865,101.143682 L142.748885,101.143682 L142.748885,104.115811 L139.776757,104.115811 L139.776757,107.086791 L142.748885,107.086791 Z M53.5959459,107.087365 L56.5680743,107.087365 L56.5680743,104.115811 L53.5959459,104.115811 L53.5959459,107.087365 Z M95.2,104.115811 L98.1721284,104.115811 L98.1721284,101.143682 L95.2,101.143682 L95.2,104.115811 Z M50.6238176,101.143682 L50.6238176,98.1721284 L53.5959459,98.1721284 L53.5959459,95.2 L50.6238176,95.2 L47.6522635,95.2 L47.6522635,98.1721284 L47.6522635,101.143682 L47.6522635,104.115811 L50.6238176,104.115811 L53.5959459,104.115811 L53.5959459,101.143682 L50.6238176,101.143682 Z M145.719865,101.143682 L148.691993,101.143682 L148.691993,98.1721284 L145.719865,98.1721284 L145.719865,101.143682 Z M98.1721284,101.143682 L101.143682,101.143682 L101.143682,98.1721284 L98.1721284,98.1721284 L98.1721284,101.143682 Z M44.6807095,101.143682 L44.6807095,98.1721284 L41.7091554,98.1721284 L41.7091554,95.2 L38.737027,95.2 L38.737027,98.1721284 L38.737027,101.143682 L41.7091554,101.143682 L44.6807095,101.143682 Z M127.889392,98.1721284 L130.86152,98.1721284 L130.86152,95.2 L127.889392,95.2 L124.918412,95.2 L124.918412,98.1721284 L127.889392,98.1721284 Z M29.8223649,98.1721284 L32.7939189,98.1721284 L32.7939189,95.2 L29.8223649,95.2 L29.8223649,98.1721284 Z M113.031047,92.2284459 L110.059493,92.2284459 L110.059493,95.2 L107.087365,95.2 L107.087365,98.1721284 L107.087365,101.143682 L104.115811,101.143682 L104.115811,104.115811 L101.143682,104.115811 L98.1721284,104.115811 L98.1721284,107.086791 L101.143682,107.086791 L104.115811,107.086791 L104.115811,110.058919 L107.087365,110.058919 L107.087365,107.086791 L110.059493,107.086791 L110.059493,110.058919 L113.031047,110.058919 L113.031047,107.086791 L113.031047,104.115811 L110.059493,104.115811 L110.059493,101.143682 L110.059493,98.1721284 L113.031047,98.1721284 L113.031047,95.2 L116.002601,95.2 L116.002601,98.1721284 L113.031047,98.1721284 L113.031047,101.143682 L113.031047,104.115811 L116.002601,104.115811 L116.002601,101.143682 L118.97473,101.143682 L118.97473,98.1721284 L118.97473,95.2 L118.97473,92.2284459 L116.002601,92.2284459 L113.031047,92.2284459 Z M104.115811,95.2 L107.087365,95.2 L107.087365,92.2284459 L104.115811,92.2284459 L101.143682,92.2284459 L98.1721284,92.2284459 L98.1721284,95.2 L101.143682,95.2 L104.115811,95.2 Z M71.4264189,95.2 L71.4264189,98.1721284 L74.3985473,98.1721284 L74.3985473,95.2 L74.3985473,92.2284459 L71.4264189,92.2284459 L71.4264189,95.2 Z M41.7091554,95.2 L44.6807095,95.2 L44.6807095,92.2284459 L41.7091554,92.2284459 L41.7091554,95.2 Z M11.9918919,95.2 L14.9634459,95.2 L14.9634459,92.2284459 L11.9918919,92.2284459 L11.9918919,95.2 Z M154.635676,92.2284459 L151.663547,92.2284459 L151.663547,95.2 L151.663547,98.1721284 L151.663547,101.143682 L151.663547,104.115811 L154.635676,104.115811 L154.635676,107.086791 L154.635676,110.058919 L157.60723,110.058919 L157.60723,107.086791 L157.60723,104.115811 L157.60723,101.143682 L157.60723,98.1721284 L157.60723,95.2 L157.60723,92.2284459 L157.60723,89.2568919 L157.60723,86.2853378 L157.60723,83.3132095 L154.635676,83.3132095 L151.663547,83.3132095 L148.691993,83.3132095 L148.691993,86.2853378 L151.663547,86.2853378 L151.663547,89.2568919 L154.635676,89.2568919 L154.635676,92.2284459 Z M107.087365,92.2284459 L110.059493,92.2284459 L110.059493,89.2563176 L107.087365,89.2563176 L107.087365,92.2284459 Z M53.5959459,92.2284459 L56.5680743,92.2284459 L59.5396284,92.2284459 L59.5396284,95.2 L62.5117568,95.2 L62.5117568,92.2284459 L65.4827365,92.2284459 L65.4827365,89.2568919 L62.5117568,89.2568919 L62.5117568,86.2853378 L62.5117568,83.3132095 L59.5396284,83.3132095 L59.5396284,86.2853378 L59.5396284,89.2568919 L56.5680743,89.2568919 L56.5680743,86.2853378 L53.5959459,86.2853378 L53.5959459,89.2568919 L53.5959459,92.2284459 Z M14.9628716,92.2290203 L17.935,92.2290203 L17.935,89.2568919 L14.9628716,89.2568919 L14.9628716,92.2290203 Z M101.143682,89.2568919 L104.115811,89.2568919 L104.115811,86.2853378 L101.143682,86.2853378 L98.1721284,86.2853378 L98.1721284,83.3132095 L95.2,83.3132095 L95.2,86.2853378 L95.2,89.2568919 L98.1721284,89.2568919 L101.143682,89.2568919 Z M26.8502365,86.2853378 L26.8502365,89.2568919 L29.8223649,89.2568919 L32.7933446,89.2568919 L35.765473,89.2568919 L35.765473,86.2853378 L35.765473,83.3132095 L35.765473,80.3416554 L32.7933446,80.3416554 L29.8223649,80.3416554 L26.8502365,80.3416554 L26.8502365,83.3132095 L26.8502365,86.2853378 Z M20.9065541,89.2568919 L17.935,89.2568919 L17.935,86.2853378 L17.935,83.3132095 L20.9065541,83.3132095 L20.9065541,86.2853378 L23.8786824,86.2853378 L23.8786824,83.3132095 L23.8786824,80.3416554 L23.8786824,77.369527 L26.8502365,77.369527 L26.8502365,74.397973 L26.8502365,71.4264189 L29.8223649,71.4264189 L32.7933446,71.4264189 L32.7933446,74.397973 L29.8223649,74.397973 L29.8223649,77.369527 L32.7933446,77.369527 L35.765473,77.369527 L38.737027,77.369527 L38.737027,74.397973 L35.765473,74.397973 L35.765473,71.4264189 L38.737027,71.4264189 L41.7091554,71.4264189 L44.6807095,71.4264189 L44.6807095,74.397973 L41.7091554,74.397973 L41.7091554,77.369527 L41.7091554,80.3416554 L38.737027,80.3416554 L38.737027,83.3132095 L38.737027,86.2853378 L41.7091554,86.2853378 L41.7091554,83.3132095 L41.7091554,80.3416554 L44.6807095,80.3416554 L47.6522635,80.3416554 L47.6522635,77.369527 L50.6238176,77.369527 L50.6238176,74.397973 L47.6522635,74.397973 L47.6522635,71.4264189 L44.6807095,71.4264189 L44.6807095,68.4548649 L47.6522635,68.4548649 L47.6522635,65.4827365 L50.6238176,65.4827365 L50.6238176,62.5111824 L53.5959459,62.5111824 L53.5959459,65.4827365 L56.5680743,65.4827365 L59.5396284,65.4827365 L59.5396284,68.4548649 L56.5680743,68.4548649 L56.5680743,71.4264189 L53.5959459,71.4264189 L53.5959459,68.4548649 L50.6238176,68.4548649 L50.6238176,71.4264189 L53.5959459,71.4264189 L53.5959459,74.397973 L56.5680743,74.397973 L56.5680743,71.4264189 L59.5396284,71.4264189 L59.5396284,68.4548649 L62.5117568,68.4548649 L62.5117568,65.4827365 L59.5396284,65.4827365 L59.5396284,62.5111824 L62.5117568,62.5111824 L65.4827365,62.5111824 L68.4548649,62.5111824 L68.4548649,59.5390541 L71.4264189,59.5390541 L71.4264189,62.5111824 L71.4264189,65.4827365 L74.3985473,65.4827365 L77.3701014,65.4827365 L77.3701014,62.5111824 L80.3416554,62.5111824 L83.3132095,62.5111824 L83.3132095,65.4827365 L83.3132095,68.4548649 L80.3416554,68.4548649 L80.3416554,71.4264189 L77.3701014,71.4264189 L77.3701014,68.4548649 L74.3985473,68.4548649 L71.4264189,68.4548649 L71.4264189,71.4264189 L71.4264189,74.397973 L71.4264189,77.369527 L68.4548649,77.369527 L65.4827365,77.369527 L62.5117568,77.369527 L62.5117568,74.397973 L65.4827365,74.397973 L65.4827365,71.4264189 L62.5117568,71.4264189 L62.5117568,74.397973 L59.5396284,74.397973 L59.5396284,77.369527 L62.5117568,77.369527 L62.5117568,80.3416554 L59.5396284,80.3416554 L59.5396284,83.3132095 L56.5680743,83.3132095 L56.5680743,80.3416554 L56.5680743,77.369527 L53.5959459,77.369527 L53.5959459,80.3416554 L50.6238176,80.3416554 L50.6238176,83.3132095 L53.5959459,83.3132095 L53.5959459,86.2853378 L50.6238176,86.2853378 L47.6522635,86.2853378 L47.6522635,89.2568919 L44.6807095,89.2568919 L41.7091554,89.2568919 L38.737027,89.2568919 L38.737027,92.2284459 L35.765473,92.2284459 L35.765473,95.2 L32.7933446,95.2 L32.7933446,92.2284459 L29.8223649,92.2284459 L26.8502365,92.2284459 L23.8786824,92.2284459 L23.8786824,89.2568919 L20.9065541,89.2568919 Z M136.805203,86.2853378 L139.776757,86.2853378 L139.776757,83.3132095 L136.805203,83.3132095 L136.805203,86.2853378 Z M121.946284,83.3132095 L121.946284,80.3416554 L118.97473,80.3416554 L118.97473,77.369527 L116.002601,77.369527 L113.031047,77.369527 L113.031047,80.3416554 L110.059493,80.3416554 L110.059493,77.369527 L107.087365,77.369527 L107.087365,80.3416554 L104.115811,80.3416554 L104.115811,83.3132095 L104.115811,86.2853378 L107.087365,86.2853378 L110.059493,86.2853378 L110.059493,89.2568919 L113.031047,89.2568919 L113.031047,86.2853378 L116.002601,86.2853378 L116.002601,83.3132095 L118.97473,83.3132095 L118.97473,86.2853378 L116.002601,86.2853378 L116.002601,89.2568919 L118.97473,89.2568919 L118.97473,92.2284459 L121.946284,92.2284459 L121.946284,95.2 L124.918412,95.2 L124.918412,92.2284459 L124.918412,89.2568919 L124.918412,86.2853378 L121.946284,86.2853378 L121.946284,83.3132095 Z M83.3132095,86.2853378 L86.2853378,86.2853378 L86.2853378,83.3132095 L83.3132095,83.3132095 L83.3132095,86.2853378 Z M29.8217905,86.2853378 L32.7933446,86.2853378 L32.7933446,83.3132095 L29.8217905,83.3132095 L29.8217905,86.2853378 Z M68.4548649,80.3416554 L68.4548649,83.3132095 L65.4827365,83.3132095 L65.4827365,86.2853378 L65.4827365,89.2568919 L68.4548649,89.2568919 L68.4548649,92.2284459 L71.4264189,92.2284459 L71.4264189,89.2568919 L74.3985473,89.2568919 L74.3985473,86.2853378 L71.4264189,86.2853378 L71.4264189,83.3132095 L74.3985473,83.3132095 L74.3985473,80.3416554 L71.4264189,80.3416554 L68.4548649,80.3416554 Z M62.5111824,83.3132095 L65.4827365,83.3132095 L65.4827365,80.3416554 L62.5111824,80.3416554 L62.5111824,83.3132095 Z M121.946284,80.3416554 L124.918412,80.3416554 L124.918412,77.369527 L121.946284,77.369527 L121.946284,80.3416554 Z M118.97473,77.369527 L121.946284,77.369527 L121.946284,74.397973 L118.97473,74.397973 L118.97473,77.369527 Z M44.6807095,77.369527 L47.6528378,77.369527 L47.6528378,74.397973 L44.6807095,74.397973 L44.6807095,77.369527 Z M142.748885,80.3416554 L139.776757,80.3416554 L136.805203,80.3416554 L133.833074,80.3416554 L133.833074,83.3132095 L133.833074,86.2853378 L133.833074,89.2568919 L136.805203,89.2568919 L139.776757,89.2568919 L142.748885,89.2568919 L142.748885,86.2853378 L142.748885,83.3132095 L142.748885,80.3416554 Z M148.691993,71.4264189 L151.663547,71.4264189 L151.663547,74.397973 L151.663547,77.369527 L154.635676,77.369527 L157.60723,77.369527 L157.60723,80.3416554 L154.635676,80.3416554 L151.663547,80.3416554 L148.691993,80.3416554 L145.719865,80.3416554 L145.719865,83.3132095 L145.719865,86.2853378 L145.719865,89.2568919 L148.691993,89.2568919 L151.663547,89.2568919 L151.663547,92.2284459 L148.691993,92.2284459 L148.691993,95.2 L145.719865,95.2 L145.719865,98.1721284 L142.748885,98.1721284 L142.748885,95.2 L142.748885,92.2284459 L139.776757,92.2284459 L136.805203,92.2284459 L136.805203,95.2 L139.776757,95.2 L139.776757,98.1721284 L139.776757,101.143682 L139.776757,104.115811 L136.805203,104.115811 L136.805203,101.143682 L133.833074,101.143682 L133.833074,98.1721284 L133.833074,95.2 L133.833074,92.2284459 L130.86152,92.2284459 L127.889392,92.2284459 L127.889392,89.2568919 L130.86152,89.2568919 L130.86152,86.2853378 L127.889392,86.2853378 L124.918412,86.2853378 L124.918412,83.3132095 L124.918412,80.3416554 L127.889392,80.3416554 L127.889392,83.3132095 L130.86152,83.3132095 L130.86152,80.3416554 L130.86152,77.369527 L133.833074,77.369527 L136.805203,77.369527 L139.776757,77.369527 L139.776757,74.397973 L139.776757,71.4264189 L142.748885,71.4264189 L142.748885,74.397973 L145.719865,74.397973 L145.719865,77.369527 L148.691993,77.369527 L148.691993,74.397973 L148.691993,71.4264189 Z M133.833074,74.397973 L136.805203,74.397973 L136.805203,71.4258446 L133.833074,71.4258446 L133.833074,74.397973 Z M121.946284,74.3985473 L124.918412,74.3985473 L124.918412,71.4264189 L121.946284,71.4264189 L121.946284,74.3985473 Z M11.9918919,71.4264189 L11.9918919,74.397973 L11.9918919,77.369527 L11.9918919,80.3416554 L11.9918919,83.3132095 L14.9628716,83.3132095 L14.9628716,80.3416554 L17.935,80.3416554 L20.9065541,80.3416554 L20.9065541,77.369527 L20.9065541,74.397973 L20.9065541,71.4264189 L17.935,71.4264189 L17.935,68.4548649 L14.9628716,68.4548649 L14.9628716,71.4264189 L11.9918919,71.4264189 Z M136.805203,71.4264189 L139.776757,71.4264189 L139.776757,68.4548649 L136.805203,68.4548649 L136.805203,71.4264189 Z M124.918412,71.4264189 L127.889392,71.4264189 L127.889392,68.4548649 L130.86152,68.4548649 L133.833074,68.4548649 L133.833074,65.4827365 L133.833074,62.5111824 L130.86152,62.5111824 L130.86152,65.4827365 L127.889392,65.4827365 L124.918412,65.4827365 L124.918412,68.4548649 L124.918412,71.4264189 Z M116.002601,71.4264189 L118.97473,71.4264189 L118.97473,68.4548649 L116.002601,68.4548649 L116.002601,71.4264189 Z M89.2568919,68.4548649 L86.2853378,68.4548649 L86.2853378,71.4264189 L83.3132095,71.4264189 L83.3132095,74.397973 L86.2853378,74.397973 L89.2568919,74.397973 L89.2568919,71.4264189 L89.2568919,68.4548649 Z M23.8786824,71.4264189 L26.8502365,71.4264189 L26.8502365,68.4548649 L23.8786824,68.4548649 L23.8786824,71.4264189 Z M118.97473,68.4548649 L121.946284,68.4548649 L121.946284,65.4827365 L118.97473,65.4827365 L118.97473,68.4548649 Z M95.2,68.4548649 L98.1721284,68.4548649 L98.1721284,65.4827365 L95.2,65.4827365 L95.2,68.4548649 Z M89.2568919,68.4548649 L92.2290203,68.4548649 L92.2290203,65.4827365 L89.2568919,65.4827365 L89.2568919,68.4548649 Z M121.946284,65.4827365 L124.918412,65.4827365 L124.918412,62.5111824 L121.946284,62.5111824 L121.946284,65.4827365 Z M20.9065541,59.5390541 L23.8786824,59.5390541 L23.8786824,56.5675 L20.9065541,56.5675 L20.9065541,59.5390541 Z M17.935,53.5959459 L20.9065541,53.5959459 L20.9065541,50.6238176 L17.935,50.6238176 L17.935,53.5959459 Z M23.8786824,65.4827365 L23.8786824,68.4548649 L20.9065541,68.4548649 L20.9065541,65.4827365 L17.935,65.4827365 L17.935,62.5111824 L14.9628716,62.5111824 L14.9628716,65.4827365 L14.9628716,68.4548649 L11.9918919,68.4548649 L11.9918919,65.4827365 L11.9918919,62.5111824 L11.9918919,59.5390541 L14.9628716,59.5390541 L17.935,59.5390541 L17.935,56.5680743 L14.9628716,56.5680743 L14.9628716,53.5959459 L11.9918919,53.5959459 L11.9918919,50.6238176 L14.9628716,50.6238176 L14.9628716,47.6522635 L17.935,47.6522635 L20.9065541,47.6522635 L20.9065541,44.6801351 L23.8786824,44.6801351 L23.8786824,47.6522635 L23.8786824,50.6238176 L23.8786824,53.5959459 L26.8502365,53.5959459 L29.8223649,53.5959459 L32.7933446,53.5959459 L32.7933446,56.5680743 L29.8223649,56.5680743 L29.8223649,59.5390541 L32.7933446,59.5390541 L35.765473,59.5390541 L35.765473,62.5111824 L35.765473,65.4827365 L38.737027,65.4827365 L38.737027,68.4548649 L35.765473,68.4548649 L32.7933446,68.4548649 L29.8223649,68.4548649 L26.8502365,68.4548649 L26.8502365,65.4827365 L29.8223649,65.4827365 L32.7933446,65.4827365 L32.7933446,62.5111824 L29.8223649,62.5111824 L26.8502365,62.5111824 L23.8786824,62.5111824 L23.8786824,65.4827365 Z M142.748311,62.5111824 L145.719865,62.5111824 L145.719865,59.5390541 L142.748311,59.5390541 L142.748311,62.5111824 Z M118.97473,62.5111824 L121.946284,62.5111824 L121.946284,59.5390541 L118.97473,59.5390541 L118.97473,62.5111824 Z M107.087365,62.5111824 L110.059493,62.5111824 L110.059493,59.5390541 L107.087365,59.5390541 L107.087365,62.5111824 Z M89.2568919,62.5111824 L92.2290203,62.5111824 L95.2,62.5111824 L98.1721284,62.5111824 L98.1721284,59.5390541 L101.143682,59.5390541 L101.143682,56.5680743 L101.143682,53.5959459 L98.1721284,53.5959459 L98.1721284,56.5680743 L95.2,56.5680743 L95.2,59.5390541 L92.2290203,59.5390541 L89.2568919,59.5390541 L86.2853378,59.5390541 L83.3132095,59.5390541 L83.3132095,62.5111824 L86.2853378,62.5111824 L89.2568919,62.5111824 Z M74.3985473,62.5111824 L77.3701014,62.5111824 L77.3701014,59.5390541 L74.3985473,59.5390541 L74.3985473,62.5111824 Z M47.6522635,59.5390541 L47.6522635,56.5680743 L44.6807095,56.5680743 L44.6807095,53.5959459 L44.6807095,50.6238176 L41.7091554,50.6238176 L41.7091554,53.5959459 L38.737027,53.5959459 L35.765473,53.5959459 L35.765473,56.5680743 L38.737027,56.5680743 L38.737027,59.5390541 L41.7091554,59.5390541 L44.6807095,59.5390541 L44.6807095,62.5111824 L41.7091554,62.5111824 L41.7091554,65.4827365 L44.6807095,65.4827365 L47.6522635,65.4827365 L47.6522635,62.5111824 L47.6522635,59.5390541 Z M71.4264189,59.5396284 L74.3985473,59.5396284 L74.3985473,56.5680743 L71.4264189,56.5680743 L71.4264189,59.5396284 Z M65.4827365,59.5390541 L65.4827365,56.5680743 L62.5117568,56.5680743 L62.5117568,53.5959459 L59.5396284,53.5959459 L59.5396284,56.5680743 L59.5396284,59.5390541 L62.5117568,59.5390541 L65.4827365,59.5390541 Z M113.031047,56.5680743 L113.031047,59.5390541 L113.031047,62.5111824 L116.002601,62.5111824 L116.002601,59.5390541 L118.97473,59.5390541 L118.97473,56.5680743 L116.002601,56.5680743 L116.002601,53.5959459 L113.031047,53.5959459 L113.031047,56.5680743 Z M104.115811,53.5959459 L104.115811,56.5680743 L107.087365,56.5680743 L110.059493,56.5680743 L110.059493,53.5959459 L110.059493,50.6238176 L107.087365,50.6238176 L107.087365,53.5959459 L104.115811,53.5959459 Z M92.2290203,56.5680743 L95.2005743,56.5680743 L95.2005743,53.5959459 L92.2290203,53.5959459 L92.2290203,56.5680743 Z M83.3132095,56.5680743 L86.2853378,56.5680743 L86.2853378,53.5959459 L83.3132095,53.5959459 L83.3132095,56.5680743 Z M80.3416554,56.5680743 L80.3416554,53.5959459 L83.3132095,53.5959459 L83.3132095,50.6238176 L80.3416554,50.6238176 L77.3701014,50.6238176 L74.3985473,50.6238176 L74.3985473,47.6522635 L71.4264189,47.6522635 L71.4264189,50.6238176 L68.4548649,50.6238176 L65.4827365,50.6238176 L65.4827365,53.5959459 L68.4548649,53.5959459 L71.4264189,53.5959459 L74.3985473,53.5959459 L74.3985473,56.5680743 L77.3701014,56.5680743 L80.3416554,56.5680743 Z M53.5959459,56.5680743 L53.5959459,53.5959459 L56.5680743,53.5959459 L56.5680743,50.6238176 L53.5959459,50.6238176 L50.6238176,50.6238176 L50.6238176,53.5959459 L47.6522635,53.5959459 L47.6522635,56.5680743 L50.6238176,56.5680743 L53.5959459,56.5680743 Z M148.691993,53.5959459 L145.719865,53.5959459 L145.719865,50.6238176 L145.719865,47.6522635 L142.748885,47.6522635 L142.748885,44.6801351 L139.776757,44.6801351 L139.776757,41.7091554 L136.805203,41.7091554 L136.805203,44.6801351 L136.805203,47.6522635 L139.776757,47.6522635 L139.776757,50.6238176 L142.748885,50.6238176 L142.748885,53.5959459 L139.776757,53.5959459 L139.776757,56.5680743 L136.805203,56.5680743 L136.805203,53.5959459 L133.833074,53.5959459 L130.86152,53.5959459 L130.86152,56.5680743 L130.86152,59.5390541 L133.833074,59.5390541 L133.833074,62.5111824 L136.805203,62.5111824 L136.805203,65.4827365 L139.776757,65.4827365 L139.776757,68.4548649 L142.748885,68.4548649 L142.748885,65.4827365 L142.748885,62.5111824 L139.776757,62.5111824 L139.776757,59.5390541 L142.748885,59.5390541 L142.748885,56.5680743 L145.719865,56.5680743 L148.691993,56.5680743 L148.691993,59.5390541 L148.691993,62.5111824 L145.719865,62.5111824 L145.719865,65.4827365 L148.691993,65.4827365 L148.691993,68.4548649 L151.663547,68.4548649 L151.663547,71.4264189 L154.635676,71.4264189 L154.635676,68.4548649 L154.635676,65.4827365 L151.663547,65.4827365 L151.663547,62.5111824 L151.663547,59.5390541 L151.663547,56.5680743 L151.663547,53.5959459 L151.663547,50.6238176 L148.691993,50.6238176 L148.691993,53.5959459 Z M136.805203,53.5959459 L139.776757,53.5959459 L139.776757,50.6238176 L136.805203,50.6238176 L136.805203,53.5959459 Z M101.143682,53.5959459 L104.115811,53.5959459 L104.115811,50.6238176 L101.143682,50.6238176 L101.143682,53.5959459 Z M59.5396284,50.6238176 L62.5117568,50.6238176 L62.5117568,47.6522635 L59.5396284,47.6522635 L59.5396284,50.6238176 Z M44.6801351,50.6238176 L47.6522635,50.6238176 L47.6522635,47.6522635 L44.6801351,47.6522635 L44.6801351,50.6238176 Z M26.8502365,50.6238176 L29.8223649,50.6238176 L32.7933446,50.6238176 L32.7933446,53.5959459 L35.765473,53.5959459 L35.765473,50.6238176 L35.765473,47.6522635 L32.7933446,47.6522635 L29.8223649,47.6522635 L29.8223649,44.6801351 L26.8502365,44.6801351 L26.8502365,47.6522635 L26.8502365,50.6238176 Z M62.5111824,47.6522635 L65.4827365,47.6522635 L65.4827365,44.6801351 L62.5111824,44.6801351 L62.5111824,47.6522635 Z M56.5680743,47.6522635 L59.5396284,47.6522635 L59.5396284,44.6801351 L59.5396284,41.7091554 L56.5680743,41.7091554 L56.5680743,44.6801351 L53.5959459,44.6801351 L53.5959459,47.6522635 L56.5680743,47.6522635 Z M47.6522635,47.6522635 L50.6238176,47.6522635 L50.6238176,44.6801351 L47.6522635,44.6801351 L47.6522635,47.6522635 Z M148.691993,41.7091554 L145.719865,41.7091554 L145.719865,38.737027 L142.748885,38.737027 L139.776757,38.737027 L139.776757,41.7091554 L142.748885,41.7091554 L142.748885,44.6801351 L145.719865,44.6801351 L148.691993,44.6801351 L148.691993,47.6522635 L151.663547,47.6522635 L151.663547,50.6238176 L154.635676,50.6238176 L154.635676,53.5959459 L154.635676,56.5680743 L154.635676,59.5390541 L154.635676,62.5111824 L157.60723,62.5111824 L157.60723,59.5390541 L157.60723,56.5680743 L157.60723,53.5959459 L157.60723,50.6238176 L157.60723,47.6522635 L157.60723,44.6801351 L154.635676,44.6801351 L154.635676,41.7091554 L151.663547,41.7091554 L148.691993,41.7091554 Z M74.3985473,44.6801351 L74.3985473,41.7091554 L74.3985473,38.737027 L71.4264189,38.737027 L71.4264189,41.7091554 L68.4548649,41.7091554 L68.4548649,44.6801351 L68.4548649,47.6522635 L71.4264189,47.6522635 L71.4264189,44.6801351 L74.3985473,44.6801351 Z M53.5959459,41.7091554 L53.5959459,38.737027 L56.5680743,38.737027 L56.5680743,35.765473 L53.5959459,35.765473 L53.5959459,32.7939189 L50.6238176,32.7939189 L50.6238176,35.765473 L50.6238176,38.737027 L50.6238176,41.7091554 L50.6238176,44.6801351 L53.5959459,44.6801351 L53.5959459,41.7091554 Z M44.6801351,44.6807095 L47.6522635,44.6807095 L47.6522635,41.7091554 L44.6801351,41.7091554 L44.6801351,44.6807095 Z M17.935,44.6801351 L20.9065541,44.6801351 L20.9065541,41.7085811 L17.935,41.7085811 L17.935,44.6801351 Z M23.8786824,44.6807095 L26.8502365,44.6807095 L26.8502365,41.7091554 L23.8786824,41.7091554 L23.8786824,44.6807095 Z M29.8217905,44.6807095 L32.7933446,44.6807095 L32.7933446,41.7091554 L29.8217905,41.7091554 L29.8217905,44.6807095 Z M38.737027,44.6801351 L38.737027,47.6522635 L38.737027,50.6238176 L41.7091554,50.6238176 L41.7091554,47.6522635 L41.7091554,44.6801351 L41.7091554,41.7091554 L38.737027,41.7091554 L35.765473,41.7091554 L35.765473,44.6801351 L38.737027,44.6801351 Z M133.833074,41.7091554 L136.805203,41.7091554 L136.805203,38.7376014 L133.833074,38.7376014 L133.833074,41.7091554 Z M116.002601,38.737027 L116.002601,41.7091554 L116.002601,44.6801351 L118.97473,44.6801351 L118.97473,41.7091554 L121.946284,41.7091554 L121.946284,38.737027 L118.97473,38.737027 L116.002601,38.737027 Z M44.6807095,38.737027 L47.6522635,38.737027 L47.6522635,35.765473 L44.6807095,35.765473 L44.6807095,32.7939189 L44.6807095,29.8217905 L44.6807095,26.8502365 L41.7091554,26.8502365 L38.737027,26.8502365 L38.737027,29.8217905 L41.7091554,29.8217905 L41.7091554,32.7939189 L41.7091554,35.765473 L38.737027,35.765473 L38.737027,38.737027 L41.7091554,38.737027 L41.7091554,41.7091554 L44.6807095,41.7091554 L44.6807095,38.737027 Z M14.9628716,38.737027 L17.935,38.737027 L17.935,35.765473 L14.9628716,35.765473 L11.9918919,35.765473 L11.9918919,38.737027 L11.9918919,41.7091554 L14.9628716,41.7091554 L14.9628716,38.737027 Z M23.8786824,38.737027 L26.8502365,38.737027 L26.8502365,35.765473 L23.8786824,35.765473 L20.9065541,35.765473 L20.9065541,38.737027 L20.9065541,41.7091554 L23.8786824,41.7091554 L23.8786824,38.737027 Z M32.7933446,41.7085811 L35.765473,41.7085811 L35.765473,38.737027 L32.7933446,38.737027 L32.7933446,41.7085811 Z M154.635676,38.737027 L154.635676,41.7091554 L157.60723,41.7091554 L157.60723,38.737027 L157.60723,35.765473 L154.635676,35.765473 L154.635676,38.737027 Z M136.805203,38.737027 L139.776757,38.737027 L139.776757,35.765473 L136.805203,35.765473 L136.805203,38.737027 Z M121.946284,38.737027 L124.918412,38.737027 L124.918412,35.765473 L121.946284,35.765473 L121.946284,38.737027 Z M29.8223649,38.737027 L32.7939189,38.737027 L32.7939189,35.765473 L29.8223649,35.765473 L29.8223649,38.737027 Z M116.002601,32.7939189 L116.002601,35.765473 L118.97473,35.765473 L121.946284,35.765473 L121.946284,32.7939189 L121.946284,29.8217905 L118.97473,29.8217905 L118.97473,32.7939189 L116.002601,32.7939189 Z M130.86152,32.7933446 L133.833074,32.7933446 L133.833074,29.8217905 L130.86152,29.8217905 L130.86152,32.7933446 Z M113.031047,32.7933446 L116.002601,32.7933446 L116.002601,29.8217905 L113.031047,29.8217905 L113.031047,32.7933446 Z M83.3132095,32.7933446 L86.2853378,32.7933446 L86.2853378,29.8217905 L83.3132095,29.8217905 L83.3132095,32.7933446 Z M80.3416554,26.8502365 L80.3416554,29.8217905 L80.3416554,32.7939189 L80.3416554,35.765473 L83.3132095,35.765473 L86.2853378,35.765473 L89.2568919,35.765473 L89.2568919,32.7939189 L89.2568919,29.8217905 L89.2568919,26.8502365 L86.2853378,26.8502365 L83.3132095,26.8502365 L80.3416554,26.8502365 Z M92.2290203,32.7939189 L95.2005743,32.7939189 L95.2005743,29.8223649 L92.2290203,29.8223649 L92.2290203,32.7939189 Z M80.3416554,41.7085811 L83.3132095,41.7085811 L83.3132095,38.737027 L80.3416554,38.737027 L80.3416554,41.7085811 Z M71.4264189,29.8217905 L71.4264189,26.8502365 L74.3985473,26.8502365 L77.3701014,26.8502365 L77.3701014,23.8781081 L77.3701014,20.9065541 L77.3701014,17.9344257 L80.3416554,17.9344257 L83.3132095,17.9344257 L83.3132095,20.9065541 L86.2853378,20.9065541 L86.2853378,23.8781081 L89.2568919,23.8781081 L89.2568919,20.9065541 L86.2853378,20.9065541 L86.2853378,17.9344257 L89.2568919,17.9344257 L92.2290203,17.9344257 L92.2290203,20.9065541 L92.2290203,23.8781081 L92.2290203,26.8502365 L95.2,26.8502365 L95.2,23.8781081 L98.1721284,23.8781081 L98.1721284,20.9065541 L98.1721284,17.9344257 L101.143682,17.9344257 L104.115811,17.9344257 L104.115811,20.9065541 L101.143682,20.9065541 L101.143682,23.8781081 L101.143682,26.8502365 L98.1721284,26.8502365 L98.1721284,29.8217905 L98.1721284,32.7939189 L98.1721284,35.765473 L98.1721284,38.737027 L101.143682,38.737027 L101.143682,35.765473 L101.143682,32.7939189 L101.143682,29.8217905 L101.143682,26.8502365 L104.115811,26.8502365 L104.115811,29.8217905 L104.115811,32.7939189 L104.115811,35.765473 L107.087365,35.765473 L107.087365,32.7939189 L107.087365,29.8217905 L110.059493,29.8217905 L110.059493,32.7939189 L113.031047,32.7939189 L113.031047,35.765473 L113.031047,38.737027 L113.031047,41.7091554 L110.059493,41.7091554 L107.087365,41.7091554 L104.115811,41.7091554 L104.115811,44.6801351 L107.087365,44.6801351 L110.059493,44.6801351 L113.031047,44.6801351 L113.031047,47.6522635 L116.002601,47.6522635 L118.97473,47.6522635 L121.946284,47.6522635 L124.918412,47.6522635 L124.918412,44.6801351 L124.918412,41.7091554 L124.918412,38.737027 L127.889392,38.737027 L127.889392,41.7091554 L130.86152,41.7091554 L130.86152,44.6801351 L133.833074,44.6801351 L133.833074,47.6522635 L133.833074,50.6238176 L130.86152,50.6238176 L130.86152,47.6522635 L127.889392,47.6522635 L127.889392,50.6238176 L127.889392,53.5959459 L127.889392,56.5680743 L127.889392,59.5390541 L124.918412,59.5390541 L121.946284,59.5390541 L121.946284,56.5680743 L124.918412,56.5680743 L124.918412,53.5959459 L121.946284,53.5959459 L118.97473,53.5959459 L116.002601,53.5959459 L116.002601,50.6238176 L113.031047,50.6238176 L110.059493,50.6238176 L110.059493,47.6522635 L107.087365,47.6522635 L107.087365,50.6238176 L104.115811,50.6238176 L104.115811,47.6522635 L101.143682,47.6522635 L101.143682,44.6801351 L101.143682,41.7091554 L98.1721284,41.7091554 L98.1721284,44.6801351 L98.1721284,47.6522635 L95.2,47.6522635 L95.2,50.6238176 L92.2290203,50.6238176 L92.2290203,47.6522635 L92.2290203,44.6801351 L92.2290203,41.7091554 L95.2,41.7091554 L95.2,38.737027 L92.2290203,38.737027 L89.2568919,38.737027 L86.2853378,38.737027 L86.2853378,41.7091554 L89.2568919,41.7091554 L89.2568919,44.6801351 L89.2568919,47.6522635 L89.2568919,50.6238176 L86.2853378,50.6238176 L83.3132095,50.6238176 L83.3132095,47.6522635 L80.3416554,47.6522635 L77.3701014,47.6522635 L77.3701014,44.6801351 L77.3701014,41.7091554 L77.3701014,38.737027 L74.3985473,38.737027 L74.3985473,35.765473 L74.3985473,32.7939189 L77.3701014,32.7939189 L77.3701014,29.8217905 L74.3985473,29.8217905 L74.3985473,32.7939189 L71.4264189,32.7939189 L71.4264189,29.8217905 Z M62.5117568,29.8217905 L59.5396284,29.8217905 L59.5396284,32.7939189 L56.5680743,32.7939189 L56.5680743,35.765473 L59.5396284,35.765473 L62.5117568,35.765473 L62.5117568,32.7939189 L62.5117568,29.8217905 Z M53.5959459,32.7933446 L56.5680743,32.7933446 L56.5680743,29.8217905 L53.5959459,29.8217905 L53.5959459,32.7933446 Z M14.9628716,29.8217905 L17.935,29.8217905 L20.9065541,29.8217905 L23.8786824,29.8217905 L26.8502365,29.8217905 L29.8223649,29.8217905 L29.8223649,26.8502365 L29.8223649,23.8781081 L29.8223649,20.9065541 L29.8223649,17.9344257 L29.8223649,14.9628716 L26.8502365,14.9628716 L23.8786824,14.9628716 L20.9065541,14.9628716 L17.935,14.9628716 L14.9628716,14.9628716 L14.9628716,17.9344257 L14.9628716,20.9065541 L14.9628716,23.8781081 L14.9628716,26.8502365 L14.9628716,29.8217905 Z M14.9628716,32.7939189 L11.9918919,32.7939189 L11.9918919,29.8217905 L11.9918919,26.8502365 L11.9918919,23.8781081 L11.9918919,20.9065541 L11.9918919,17.9344257 L11.9918919,14.9628716 L11.9918919,11.9913176 L14.9628716,11.9913176 L17.935,11.9913176 L20.9065541,11.9913176 L23.8786824,11.9913176 L26.8502365,11.9913176 L29.8223649,11.9913176 L32.7933446,11.9913176 L32.7933446,14.9628716 L32.7933446,17.9344257 L32.7933446,20.9065541 L32.7933446,23.8781081 L32.7933446,26.8502365 L32.7933446,29.8217905 L32.7933446,32.7939189 L29.8223649,32.7939189 L26.8502365,32.7939189 L23.8786824,32.7939189 L20.9065541,32.7939189 L17.935,32.7939189 L14.9628716,32.7939189 Z M38.737027,29.8217905 L35.765473,29.8217905 L35.765473,32.7939189 L35.765473,35.765473 L38.737027,35.765473 L38.737027,32.7939189 L38.737027,29.8217905 Z M50.6238176,26.8502365 L53.5959459,26.8502365 L56.5680743,26.8502365 L56.5680743,23.8781081 L56.5680743,20.9065541 L53.5959459,20.9065541 L53.5959459,23.8781081 L50.6238176,23.8781081 L47.6522635,23.8781081 L47.6522635,26.8502365 L47.6522635,29.8217905 L47.6522635,32.7939189 L50.6238176,32.7939189 L50.6238176,29.8217905 L50.6238176,26.8502365 Z M110.059493,26.8502365 L110.059493,29.8217905 L113.031047,29.8217905 L113.031047,26.8502365 L116.002601,26.8502365 L116.002601,29.8217905 L118.97473,29.8217905 L118.97473,26.8502365 L121.946284,26.8502365 L121.946284,29.8217905 L124.918412,29.8217905 L124.918412,32.7939189 L124.918412,35.765473 L127.889392,35.765473 L130.86152,35.765473 L130.86152,32.7939189 L127.889392,32.7939189 L127.889392,29.8217905 L127.889392,26.8502365 L124.918412,26.8502365 L124.918412,23.8781081 L121.946284,23.8781081 L121.946284,20.9065541 L118.97473,20.9065541 L118.97473,23.8781081 L116.002601,23.8781081 L116.002601,20.9065541 L118.97473,20.9065541 L118.97473,17.9344257 L118.97473,14.9628716 L116.002601,14.9628716 L113.031047,14.9628716 L113.031047,17.9344257 L113.031047,20.9065541 L113.031047,23.8781081 L110.059493,23.8781081 L107.087365,23.8781081 L104.115811,23.8781081 L104.115811,26.8502365 L107.087365,26.8502365 L110.059493,26.8502365 Z M23.8786824,26.8502365 L26.8502365,26.8502365 L26.8502365,23.8781081 L26.8502365,20.9065541 L26.8502365,17.9344257 L23.8786824,17.9344257 L20.9065541,17.9344257 L17.935,17.9344257 L17.935,20.9065541 L17.935,23.8781081 L17.935,26.8502365 L20.9065541,26.8502365 L23.8786824,26.8502365 Z M71.4264189,23.8781081 L74.3985473,23.8781081 L74.3985473,20.9065541 L71.4264189,20.9065541 L71.4264189,23.8781081 Z M59.5396284,23.8781081 L59.5396284,26.8502365 L62.5117568,26.8502365 L62.5117568,23.8781081 L62.5117568,20.9065541 L65.4827365,20.9065541 L65.4827365,23.8781081 L65.4827365,26.8502365 L62.5117568,26.8502365 L62.5117568,29.8217905 L65.4827365,29.8217905 L65.4827365,32.7939189 L65.4827365,35.765473 L62.5117568,35.765473 L62.5117568,38.737027 L65.4827365,38.737027 L68.4548649,38.737027 L68.4548649,35.765473 L68.4548649,32.7939189 L68.4548649,29.8217905 L68.4548649,26.8502365 L71.4264189,26.8502365 L71.4264189,23.8781081 L68.4548649,23.8781081 L68.4548649,20.9065541 L68.4548649,17.9344257 L71.4264189,17.9344257 L74.3985473,17.9344257 L74.3985473,14.9628716 L77.3701014,14.9628716 L80.3416554,14.9628716 L83.3132095,14.9628716 L83.3132095,11.9913176 L80.3416554,11.9913176 L77.3701014,11.9913176 L74.3985473,11.9913176 L71.4264189,11.9913176 L68.4548649,11.9913176 L68.4548649,14.9628716 L65.4827365,14.9628716 L65.4827365,17.9344257 L62.5117568,17.9344257 L59.5396284,17.9344257 L56.5680743,17.9344257 L56.5680743,20.9065541 L59.5396284,20.9065541 L59.5396284,23.8781081 Z M44.6807095,23.8781081 L47.6528378,23.8781081 L47.6528378,20.9065541 L44.6807095,20.9065541 L44.6807095,23.8781081 Z M145.719865,17.9344257 L142.748885,17.9344257 L142.748885,20.9065541 L142.748885,23.8781081 L142.748885,26.8502365 L145.719865,26.8502365 L148.691993,26.8502365 L151.663547,26.8502365 L151.663547,23.8781081 L151.663547,20.9065541 L151.663547,17.9344257 L148.691993,17.9344257 L145.719865,17.9344257 Z M127.889392,20.9065541 L127.889392,23.8781081 L130.86152,23.8781081 L130.86152,20.9065541 L133.833074,20.9065541 L133.833074,17.9344257 L133.833074,14.9628716 L133.833074,11.9913176 L130.86152,11.9913176 L130.86152,14.9628716 L127.889392,14.9628716 L124.918412,14.9628716 L124.918412,17.9344257 L127.889392,17.9344257 L127.889392,20.9065541 Z M121.946284,20.9059797 L124.918412,20.9059797 L124.918412,17.9344257 L121.946284,17.9344257 L121.946284,20.9059797 Z M107.087365,20.9065541 L110.059493,20.9065541 L110.059493,17.9344257 L110.059493,14.9628716 L110.059493,11.9913176 L107.087365,11.9913176 L104.115811,11.9913176 L104.115811,14.9628716 L104.115811,17.9344257 L107.087365,17.9344257 L107.087365,20.9065541 Z M38.737027,20.9065541 L38.737027,23.8781081 L41.7091554,23.8781081 L41.7091554,20.9065541 L41.7091554,17.9344257 L38.737027,17.9344257 L38.737027,20.9065541 Z M53.5959459,14.9628716 L50.6238176,14.9628716 L50.6238176,11.9913176 L47.6522635,11.9913176 L44.6807095,11.9913176 L44.6807095,14.9628716 L47.6522635,14.9628716 L47.6522635,17.9344257 L50.6238176,17.9344257 L53.5959459,17.9344257 L56.5680743,17.9344257 L56.5680743,14.9628716 L53.5959459,14.9628716 Z M154.635676,14.9628716 L151.663547,14.9628716 L148.691993,14.9628716 L145.719865,14.9628716 L142.748885,14.9628716 L139.776757,14.9628716 L139.776757,17.9344257 L139.776757,20.9065541 L139.776757,23.8781081 L139.776757,26.8502365 L139.776757,29.8217905 L142.748885,29.8217905 L145.719865,29.8217905 L148.691993,29.8217905 L151.663547,29.8217905 L154.635676,29.8217905 L154.635676,26.8502365 L154.635676,23.8781081 L154.635676,20.9065541 L154.635676,17.9344257 L154.635676,14.9628716 Z M157.60723,11.9913176 L157.60723,14.9628716 L157.60723,17.9344257 L157.60723,20.9065541 L157.60723,23.8781081 L157.60723,26.8502365 L157.60723,29.8217905 L157.60723,32.7939189 L154.635676,32.7939189 L151.663547,32.7939189 L148.691993,32.7939189 L145.719865,32.7939189 L142.748885,32.7939189 L139.776757,32.7939189 L136.805203,32.7939189 L136.805203,29.8217905 L136.805203,26.8502365 L136.805203,23.8781081 L136.805203,20.9065541 L136.805203,17.9344257 L136.805203,14.9628716 L136.805203,11.9913176 L139.776757,11.9913176 L142.748885,11.9913176 L145.719865,11.9913176 L148.691993,11.9913176 L151.663547,11.9913176 L154.635676,11.9913176 L157.60723,11.9913176 Z M92.2290203,14.9628716 L92.2290203,11.9913176 L89.2568919,11.9913176 L86.2853378,11.9913176 L86.2853378,14.9628716 L89.2568919,14.9628716 L92.2290203,14.9628716 Z M56.5680743,14.9628716 L59.5396284,14.9628716 L59.5396284,11.9913176 L56.5680743,11.9913176 L56.5680743,14.9628716 Z M38.737027,14.9628716 L35.765473,14.9628716 L35.765473,11.9913176 L38.737027,11.9913176 L41.7091554,11.9913176 L41.7091554,14.9628716 L38.737027,14.9628716 Z" id="Fill-2" fill="#231F20"></path>
                    <polygon id="Fill-1" fill="#FEFEFE" opacity="0.9" points="0 169.598547 169.599122 169.598547 169.599122 -0.000574324324 0 -0.000574324324"></polygon>
                </g>
                <circle id="Oval" fill="#F6B200" opacity="0.860119048" cx="84.7416413" cy="84.7416413" r="72.8571429"></circle>
                <path d="M57.8516717,105.017629 C58.6026342,105.017629 59.2778116,104.855724 59.8772036,104.531915 C60.4765957,104.208105 60.9485309,103.762006 61.2930091,103.193617 C61.6374873,102.625228 61.8097264,101.986221 61.8097264,101.276596 C61.8097264,100.566971 61.6374873,99.9279635 61.2930091,99.3595745 C60.9485309,98.7911854 60.4765957,98.3450861 59.8772036,98.0212766 C59.2778116,97.6974671 58.6026342,97.5355623 57.8516717,97.5355623 C57.1007092,97.5355623 56.4238095,97.6974671 55.8209726,98.0212766 C55.2181358,98.3450861 54.7462006,98.7911854 54.4051672,99.3595745 C54.0641337,99.9279635 53.893617,100.566971 53.893617,101.276596 C53.893617,101.986221 54.0641337,102.625228 54.4051672,103.193617 C54.7462006,103.762006 55.2181358,104.208105 55.8209726,104.531915 C56.4238095,104.855724 57.1007092,105.017629 57.8516717,105.017629 Z M57.8516717,103.591489 C57.4245187,103.591489 57.0387031,103.493313 56.6942249,103.29696 C56.3497467,103.100608 56.0793313,102.826748 55.8829787,102.47538 C55.6866261,102.124012 55.5884498,101.724417 55.5884498,101.276596 C55.5884498,100.828774 55.6866261,100.429179 55.8829787,100.077812 C56.0793313,99.7264438 56.3497467,99.4525836 56.6942249,99.256231 C57.0387031,99.0598784 57.4245187,98.9617021 57.8516717,98.9617021 C58.2788247,98.9617021 58.6646403,99.0598784 59.0091185,99.256231 C59.3535968,99.4525836 59.6240122,99.7264438 59.8203647,100.077812 C60.0167173,100.429179 60.1148936,100.828774 60.1148936,101.276596 C60.1148936,101.724417 60.0167173,102.124012 59.8203647,102.47538 C59.6240122,102.826748 59.3535968,103.100608 59.0091185,103.29696 C58.6646403,103.493313 58.2788247,103.591489 57.8516717,103.591489 Z M71.8650456,106.557447 C72.2646403,106.557447 72.6315096,106.481662 72.9656535,106.330091 C73.2997974,106.178521 73.5839919,105.958055 73.8182371,105.668693 L73.8182371,105.668693 L73.0741641,104.779939 C72.7365755,105.138197 72.3438703,105.317325 71.8960486,105.317325 C71.7100304,105.317325 71.5360689,105.27771 71.3741641,105.19848 C71.2122594,105.11925 71.0451874,104.990071 70.8729483,104.810942 C71.6514691,104.562918 72.2766971,104.121986 72.7486322,103.488146 C73.2205674,102.854306 73.456535,102.117123 73.456535,101.276596 C73.456535,100.566971 73.2842958,99.9279635 72.9398176,99.3595745 C72.5953394,98.7911854 72.1234043,98.3450861 71.5240122,98.0212766 C70.9246201,97.6974671 70.2494428,97.5355623 69.4984802,97.5355623 C68.7475177,97.5355623 68.070618,97.6974671 67.4677812,98.0212766 C66.8649443,98.3450861 66.3930091,98.7911854 66.0519757,99.3595745 C65.7109422,99.9279635 65.5404255,100.566971 65.5404255,101.276596 C65.5404255,101.924215 65.683384,102.514995 65.9693009,103.048936 C66.2552178,103.582877 66.6548126,104.018642 67.1680851,104.356231 C67.6813576,104.69382 68.2652482,104.903951 68.9197568,104.986626 C69.4778116,105.572239 69.9738602,105.980446 70.4079027,106.211246 C70.8419453,106.442047 71.3276596,106.557447 71.8650456,106.557447 Z M69.4984802,103.591489 C69.0713273,103.591489 68.6855117,103.493313 68.3410334,103.29696 C67.9965552,103.100608 67.7261398,102.826748 67.5297872,102.47538 C67.3334347,102.124012 67.2352584,101.724417 67.2352584,101.276596 C67.2352584,100.828774 67.3334347,100.429179 67.5297872,100.077812 C67.7261398,99.7264438 67.9965552,99.4525836 68.3410334,99.256231 C68.6855117,99.0598784 69.0713273,98.9617021 69.4984802,98.9617021 C69.9256332,98.9617021 70.3114488,99.0598784 70.6559271,99.256231 C71.0004053,99.4525836 71.2708207,99.7264438 71.4671733,100.077812 C71.6635258,100.429179 71.7617021,100.828774 71.7617021,101.276596 C71.7617021,101.724417 71.6635258,102.124012 71.4671733,102.47538 C71.2708207,102.826748 71.0004053,103.100608 70.6559271,103.29696 C70.3114488,103.493313 69.9256332,103.591489 69.4984802,103.591489 Z M76.3914894,104.893617 L76.3914894,102.878419 L77.931307,102.878419 L79.3264438,104.893617 L81.1246201,104.893617 L79.5021277,102.568389 C79.9775076,102.361702 80.3443769,102.063728 80.6027356,101.674468 C80.8610942,101.285208 80.9902736,100.821884 80.9902736,100.284498 C80.9902736,99.7471125 80.8628166,99.2820669 80.6079027,98.8893617 C80.3529889,98.4966565 79.9895643,98.1935157 79.5176292,97.9799392 C79.045694,97.7663627 78.4893617,97.6595745 77.8486322,97.6595745 L77.8486322,97.6595745 L74.7173252,97.6595745 L74.7173252,104.893617 L76.3914894,104.893617 Z M77.7556231,101.545289 L76.3914894,101.545289 L76.3914894,99.0237082 L77.7556231,99.0237082 C78.2585613,99.0237082 78.6409321,99.1322188 78.9027356,99.3492401 C79.164539,99.5662614 79.2954407,99.8780142 79.2954407,100.284498 C79.2954407,100.684093 79.164539,100.994124 78.9027356,101.21459 C78.6409321,101.435056 78.2585613,101.545289 77.7556231,101.545289 L77.7556231,101.545289 Z M88.699696,105.017629 C89.3266464,105.017629 89.8950355,104.907396 90.4048632,104.68693 C90.914691,104.466464 91.341844,104.146099 91.6863222,103.725836 L91.6863222,103.725836 L90.6115502,102.733739 C90.1223911,103.305572 89.5161094,103.591489 88.7927052,103.591489 C88.3448835,103.591489 87.9452888,103.493313 87.593921,103.29696 C87.2425532,103.100608 86.968693,102.826748 86.7723404,102.47538 C86.5759878,102.124012 86.4778116,101.724417 86.4778116,101.276596 C86.4778116,100.828774 86.5759878,100.429179 86.7723404,100.077812 C86.968693,99.7264438 87.2425532,99.4525836 87.593921,99.256231 C87.9452888,99.0598784 88.3448835,98.9617021 88.7927052,98.9617021 C89.5161094,98.9617021 90.1223911,99.2441743 90.6115502,99.8091185 L90.6115502,99.8091185 L91.6863222,98.8170213 C91.341844,98.4036474 90.9164134,98.0867275 90.4100304,97.8662614 C89.9036474,97.6457953 89.3369807,97.5355623 88.7100304,97.5355623 C87.9659574,97.5355623 87.2959473,97.6957447 86.7,98.0161094 C86.1040527,98.3364742 85.6355623,98.7808511 85.2945289,99.3492401 C84.9534954,99.9176292 84.7829787,100.560081 84.7829787,101.276596 C84.7829787,101.99311 84.9534954,102.635562 85.2945289,103.203951 C85.6355623,103.77234 86.1040527,104.216717 86.7,104.537082 C87.2959473,104.857447 87.9625127,105.017629 88.699696,105.017629 Z M96.1610942,105.017629 C96.9120567,105.017629 97.587234,104.855724 98.1866261,104.531915 C98.7860182,104.208105 99.2579534,103.762006 99.6024316,103.193617 C99.9469098,102.625228 100.119149,101.986221 100.119149,101.276596 C100.119149,100.566971 99.9469098,99.9279635 99.6024316,99.3595745 C99.2579534,98.7911854 98.7860182,98.3450861 98.1866261,98.0212766 C97.587234,97.6974671 96.9120567,97.5355623 96.1610942,97.5355623 C95.4101317,97.5355623 94.733232,97.6974671 94.1303951,98.0212766 C93.5275583,98.3450861 93.0556231,98.7911854 92.7145897,99.3595745 C92.3735562,99.9279635 92.2030395,100.566971 92.2030395,101.276596 C92.2030395,101.986221 92.3735562,102.625228 92.7145897,103.193617 C93.0556231,103.762006 93.5275583,104.208105 94.1303951,104.531915 C94.733232,104.855724 95.4101317,105.017629 96.1610942,105.017629 Z M96.1610942,103.591489 C95.7339412,103.591489 95.3481256,103.493313 95.0036474,103.29696 C94.6591692,103.100608 94.3887538,102.826748 94.1924012,102.47538 C93.9960486,102.124012 93.8978723,101.724417 93.8978723,101.276596 C93.8978723,100.828774 93.9960486,100.429179 94.1924012,100.077812 C94.3887538,99.7264438 94.6591692,99.4525836 95.0036474,99.256231 C95.3481256,99.0598784 95.7339412,98.9617021 96.1610942,98.9617021 C96.5882472,98.9617021 96.9740628,99.0598784 97.318541,99.256231 C97.6630193,99.4525836 97.9334347,99.7264438 98.1297872,100.077812 C98.3261398,100.429179 98.4243161,100.828774 98.4243161,101.276596 C98.4243161,101.724417 98.3261398,102.124012 98.1297872,102.47538 C97.9334347,102.826748 97.6630193,103.100608 97.318541,103.29696 C96.9740628,103.493313 96.5882472,103.591489 96.1610942,103.591489 Z M104.666261,104.893617 C105.451672,104.893617 106.145795,104.743769 106.748632,104.444073 C107.351469,104.144377 107.819959,103.722391 108.154103,103.178116 C108.488247,102.63384 108.655319,102 108.655319,101.276596 C108.655319,100.553191 108.488247,99.9193516 108.154103,99.375076 C107.819959,98.8308004 107.351469,98.4088146 106.748632,98.1091185 C106.145795,97.8094225 105.451672,97.6595745 104.666261,97.6595745 L104.666261,97.6595745 L101.379939,97.6595745 L101.379939,104.893617 L104.666261,104.893617 Z M104.583587,103.519149 L103.054103,103.519149 L103.054103,99.0340426 L104.583587,99.0340426 C105.306991,99.0340426 105.883992,99.2355623 106.31459,99.6386018 C106.745187,100.041641 106.960486,100.587639 106.960486,101.276596 C106.960486,101.965552 106.745187,102.51155 106.31459,102.91459 C105.883992,103.317629 105.306991,103.519149 104.583587,103.519149 L104.583587,103.519149 Z M115.517325,104.893617 L115.517325,103.550152 L111.579939,103.550152 L111.579939,101.875988 L114.938602,101.875988 L114.938602,100.57386 L111.579939,100.57386 L111.579939,99.0030395 L115.382979,99.0030395 L115.382979,97.6595745 L109.916109,97.6595745 L109.916109,104.893617 L115.517325,104.893617 Z M66.53769,120.395137 L66.53769,119.051672 L62.600304,119.051672 L62.600304,117.377508 L65.9589666,117.377508 L65.9589666,116.07538 L62.600304,116.07538 L62.600304,114.504559 L66.4033435,114.504559 L66.4033435,113.161094 L60.9364742,113.161094 L60.9364742,120.395137 L66.53769,120.395137 Z M68.893921,120.395137 L70.6094225,117.883891 L72.3559271,120.395137 L74.2884498,120.395137 L71.5911854,116.654103 L74.112766,113.161094 L72.3042553,113.161094 L70.6714286,115.506991 L69.0075988,113.161094 L67.106079,113.161094 L69.6483283,116.716109 L66.9717325,120.395137 L68.893921,120.395137 Z M76.6240122,120.395137 L76.6240122,118.400608 L78.081155,118.400608 C78.7218845,118.400608 79.2782168,118.295542 79.750152,118.08541 C80.2220871,117.875279 80.5855117,117.572138 80.8404255,117.175988 C81.0953394,116.779838 81.2227964,116.316515 81.2227964,115.786018 C81.2227964,115.248632 81.0953394,114.783587 80.8404255,114.390881 C80.5855117,113.998176 80.2220871,113.695035 79.750152,113.481459 C79.2782168,113.267882 78.7218845,113.161094 78.081155,113.161094 L78.081155,113.161094 L74.949848,113.161094 L74.949848,120.395137 L76.6240122,120.395137 Z M77.9881459,117.036474 L76.6240122,117.036474 L76.6240122,114.525228 L77.9881459,114.525228 C78.4910841,114.525228 78.8734549,114.633739 79.1352584,114.85076 C79.3970618,115.067781 79.5279635,115.379534 79.5279635,115.786018 C79.5279635,116.185613 79.3970618,116.493921 79.1352584,116.710942 C78.8734549,116.927964 78.4910841,117.036474 77.9881459,117.036474 L77.9881459,117.036474 Z M84.0854103,120.395137 L84.0854103,113.161094 L82.4112462,113.161094 L82.4112462,120.395137 L84.0854103,120.395137 Z M87.475076,120.395137 L87.475076,118.379939 L89.0148936,118.379939 L90.4100304,120.395137 L92.2082067,120.395137 L90.5857143,118.069909 C91.0610942,117.863222 91.4279635,117.565248 91.6863222,117.175988 C91.9446809,116.786727 92.0738602,116.323404 92.0738602,115.786018 C92.0738602,115.248632 91.9464032,114.783587 91.6914894,114.390881 C91.4365755,113.998176 91.073151,113.695035 90.6012158,113.481459 C90.1292806,113.267882 89.5729483,113.161094 88.9322188,113.161094 L88.9322188,113.161094 L85.8009119,113.161094 L85.8009119,120.395137 L87.475076,120.395137 Z M88.8392097,117.046809 L87.475076,117.046809 L87.475076,114.525228 L88.8392097,114.525228 C89.3421479,114.525228 89.7245187,114.633739 89.9863222,114.85076 C90.2481256,115.067781 90.3790274,115.379534 90.3790274,115.786018 C90.3790274,116.185613 90.2481256,116.495643 89.9863222,116.716109 C89.7245187,116.936575 89.3421479,117.046809 88.8392097,117.046809 L88.8392097,117.046809 Z M96.9,120.519149 C97.6509625,120.519149 98.3261398,120.357244 98.9255319,120.033435 C99.524924,119.709625 99.9968592,119.263526 100.341337,118.695137 C100.685816,118.126748 100.858055,117.487741 100.858055,116.778116 C100.858055,116.06849 100.685816,115.429483 100.341337,114.861094 C99.9968592,114.292705 99.524924,113.846606 98.9255319,113.522796 C98.3261398,113.198987 97.6509625,113.037082 96.9,113.037082 C96.1490375,113.037082 95.4721378,113.198987 94.8693009,113.522796 C94.266464,113.846606 93.7945289,114.292705 93.4534954,114.861094 C93.112462,115.429483 92.9419453,116.06849 92.9419453,116.778116 C92.9419453,117.487741 93.112462,118.126748 93.4534954,118.695137 C93.7945289,119.263526 94.266464,119.709625 94.8693009,120.033435 C95.4721378,120.357244 96.1490375,120.519149 96.9,120.519149 Z M96.9,119.093009 C96.472847,119.093009 96.0870314,118.994833 95.7425532,118.79848 C95.398075,118.602128 95.1276596,118.328267 94.931307,117.9769 C94.7349544,117.625532 94.6367781,117.225937 94.6367781,116.778116 C94.6367781,116.330294 94.7349544,115.930699 94.931307,115.579331 C95.1276596,115.227964 95.398075,114.954103 95.7425532,114.757751 C96.0870314,114.561398 96.472847,114.463222 96.9,114.463222 C97.327153,114.463222 97.7129686,114.561398 98.0574468,114.757751 C98.401925,114.954103 98.6723404,115.227964 98.868693,115.579331 C99.0650456,115.930699 99.1632219,116.330294 99.1632219,116.778116 C99.1632219,117.225937 99.0650456,117.625532 98.868693,117.9769 C98.6723404,118.328267 98.401925,118.602128 98.0574468,118.79848 C97.7129686,118.994833 97.327153,119.093009 96.9,119.093009 Z M105.332827,120.519149 C106.366261,120.519149 107.170618,120.233232 107.745897,119.661398 C108.321175,119.089564 108.608815,118.273151 108.608815,117.212158 L108.608815,117.212158 L108.608815,113.161094 L106.955319,113.161094 L106.955319,117.150152 C106.955319,117.81844 106.817528,118.309321 106.541945,118.622796 C106.266363,118.936272 105.866768,119.093009 105.343161,119.093009 C104.268389,119.093009 103.731003,118.44539 103.731003,117.150152 L103.731003,117.150152 L103.731003,113.161094 L102.056839,113.161094 L102.056839,117.212158 C102.056839,118.273151 102.344478,119.089564 102.919757,119.661398 C103.495035,120.233232 104.299392,120.519149 105.332827,120.519149 Z" id="OQRCODEEXPIROU" fill="#FFFFFF" fill-rule="nonzero"></path>
                <g id="Group-3" transform="translate(66.656535, 49.088146)">
                    <mask id="mask-2" fill="white">
                        <use xlink:href="#path-1"></use>
                    </mask>
                    <g id="Clip-2"></g>
                    <path d="M17.247766,20.3960213 L18.5535106,20.3960213 L18.5535106,9.7746383 L17.247766,9.7746383 L17.247766,20.3960213 Z M17.9006383,25.4128298 C17.3430142,25.4128298 16.889078,24.9588936 16.889078,24.4018723 C16.889078,23.8442482 17.3430142,23.3903121 17.9006383,23.3903121 C18.4576596,23.3903121 18.9109929,23.8442482 18.9109929,24.4018723 C18.9109929,24.9588936 18.4576596,25.4128298 17.9006383,25.4128298 L17.9006383,25.4128298 Z M17.9000355,1.30538298 C17.5871631,1.30538298 17.3182979,1.46091489 17.1621631,1.73219149 L1.42390071,28.9912695 C1.26716312,29.2625461 1.26716312,29.5730071 1.42450355,29.8436809 C1.57762411,30.1137518 1.84769504,30.2692837 2.16117021,30.2692837 L33.6382979,30.2692837 C33.9511702,30.2692837 34.2200355,30.1143546 34.3761702,29.8436809 C34.532305,29.5736099 34.532305,29.2631489 34.376773,28.9918723 L18.6379078,1.73158865 C18.4805674,1.46091489 18.212305,1.30538298 17.9000355,1.30538298 L17.9000355,1.30538298 Z M2.16117021,31.5750284 C1.38109929,31.5750284 0.682411348,31.1717305 0.292978723,30.4959504 C-0.0976595745,29.820773 -0.0976595745,29.0141773 0.292978723,28.3383972 L16.0312411,1.07871631 C16.4212766,0.403539007 17.1199645,0.000241134752 17.9000355,0.000241134752 C18.6801064,0.000241134752 19.3787943,0.403539007 19.768227,1.07871631 L35.5070922,28.3383972 C35.8971277,29.0141773 35.8971277,29.820773 35.5070922,30.4959504 C35.1170567,31.1717305 34.4183688,31.5750284 33.6382979,31.5750284 L2.16117021,31.5750284 Z" id="Fill-1" fill="#FFFFFF" mask="url(#mask-2)"></path>
                </g>
            </g>
        </g>
    </g>
</svg>