<?xml version="1.0" encoding="UTF-8"?>
<svg width="170px" height="170px" viewBox="0 0 170 170" version="1.1" xmlns="http://www.w3.org/2000/svg" xmlns:xlink="http://www.w3.org/1999/xlink">
    <title> qr-rel - 170px@2x</title>
    <defs>
        <polygon id="path-1" points="6.00437843e-05 0.000257304137 31.4766584 0.000257304137 31.4766584 34.7398566 6.00437843e-05 34.7398566"></polygon>
    </defs>
    <g id="Page-1" stroke="none" stroke-width="1" fill="none" fill-rule="evenodd">
        <g id="Boleto-Flash-Pix--2-Copy-4" transform="translate(-796.000000, -264.000000)">
            <g id="-qr-rel---170px" transform="translate(796.000000, 264.000000)">
                <g id="Group-3-Copy">
                    <polygon id="Fill-1" fill="#FEFEFE" points="0 169.598547 169.599122 169.598547 169.599122 -0.000574324324 0 -0.000574324324"></polygon>
                    <path d="M113.031047,157.60723 L116.002601,157.60723 L116.002601,154.635676 L113.031047,154.635676 L113.031047,157.60723 Z M80.3416554,157.60723 L83.3132095,157.60723 L83.3132095,154.635676 L80.3416554,154.635676 L80.3416554,157.60723 Z M74.3985473,157.606655 L77.3701014,157.606655 L77.3701014,154.635101 L74.3985473,154.635101 L74.3985473,157.606655 Z M62.5117568,154.635676 L62.5117568,157.606655 L65.4827365,157.606655 L68.4548649,157.606655 L68.4548649,154.635676 L68.4548649,151.663547 L65.4827365,151.663547 L65.4827365,154.635676 L62.5117568,154.635676 Z M59.5396284,154.635676 L62.5117568,154.635676 L62.5117568,151.663547 L59.5396284,151.663547 L59.5396284,154.635676 Z M50.6238176,151.663547 L50.6238176,148.691993 L50.6238176,145.719865 L50.6238176,142.748311 L47.6522635,142.748311 L44.6807095,142.748311 L44.6807095,145.719865 L47.6522635,145.719865 L47.6522635,148.691993 L47.6522635,151.663547 L44.6807095,151.663547 L44.6807095,154.635676 L47.6522635,154.635676 L47.6522635,157.606655 L50.6238176,157.606655 L53.5959459,157.606655 L53.5959459,154.635676 L50.6238176,154.635676 L50.6238176,151.663547 Z M35.765473,154.635676 L35.765473,157.606655 L38.737027,157.606655 L38.737027,154.635676 L38.737027,151.663547 L35.765473,151.663547 L35.765473,154.635676 Z M121.946284,148.691993 L121.946284,145.719865 L118.97473,145.719865 L118.97473,148.691993 L116.002601,148.691993 L116.002601,145.719865 L116.002601,142.748311 L113.031047,142.748311 L113.031047,145.719865 L113.031047,148.691993 L113.031047,151.663547 L116.002601,151.663547 L118.97473,151.663547 L118.97473,154.635676 L121.946284,154.635676 L124.918412,154.635676 L124.918412,151.663547 L121.946284,151.663547 L121.946284,148.691993 Z M62.5117568,151.663547 L65.4833108,151.663547 L65.4833108,148.691993 L62.5117568,148.691993 L62.5117568,151.663547 Z M38.737027,151.663547 L41.7091554,151.663547 L41.7091554,148.691993 L38.737027,148.691993 L38.737027,151.663547 Z M148.691993,148.691993 L151.663547,148.691993 L151.663547,145.719865 L148.691993,145.719865 L148.691993,148.691993 Z M104.115811,148.691993 L107.087365,148.691993 L110.059493,148.691993 L110.059493,145.719865 L107.087365,145.719865 L107.087365,142.748311 L104.115811,142.748311 L104.115811,145.719865 L101.143682,145.719865 L101.143682,148.691993 L104.115811,148.691993 Z M65.4827365,148.691993 L68.4548649,148.691993 L68.4548649,145.719865 L65.4827365,145.719865 L65.4827365,148.691993 Z M53.5959459,148.691993 L53.5959459,151.663547 L53.5959459,154.635676 L56.5680743,154.635676 L56.5680743,151.663547 L56.5680743,148.691993 L56.5680743,145.719865 L56.5680743,142.748311 L53.5959459,142.748311 L53.5959459,145.719865 L53.5959459,148.691993 Z M65.4827365,145.719865 L65.4827365,142.748311 L62.5117568,142.748311 L59.5396284,142.748311 L59.5396284,145.719865 L59.5396284,148.691993 L62.5117568,148.691993 L62.5117568,145.719865 L65.4827365,145.719865 Z M20.9065541,142.748311 L17.935,142.748311 L17.935,145.719865 L17.935,148.691993 L17.935,151.663547 L20.9065541,151.663547 L23.8786824,151.663547 L26.8502365,151.663547 L26.8502365,148.691993 L26.8502365,145.719865 L26.8502365,142.748311 L23.8786824,142.748311 L20.9065541,142.748311 Z M35.765473,142.748311 L35.765473,145.719865 L35.765473,148.691993 L38.737027,148.691993 L38.737027,145.719865 L41.7091554,145.719865 L41.7091554,142.748311 L38.737027,142.748311 L35.765473,142.748311 Z M50.6238176,142.748311 L53.5959459,142.748311 L53.5959459,139.776182 L50.6238176,139.776182 L50.6238176,142.748311 Z M136.805203,139.776182 L139.776757,139.776182 L139.776757,136.804628 L136.805203,136.804628 L136.805203,139.776182 Z M83.3132095,139.776182 L86.2853378,139.776182 L86.2853378,136.804628 L83.3132095,136.804628 L83.3132095,139.776182 Z M71.4264189,136.805203 L68.4548649,136.805203 L68.4548649,139.776182 L68.4548649,142.748311 L68.4548649,145.719865 L71.4264189,145.719865 L71.4264189,142.748311 L74.3985473,142.748311 L74.3985473,139.776182 L71.4264189,139.776182 L71.4264189,136.805203 Z M47.6522635,139.776182 L50.6238176,139.776182 L50.6238176,136.804628 L47.6522635,136.804628 L47.6522635,139.776182 Z M44.6807095,136.805203 L47.6522635,136.805203 L47.6522635,133.833074 L44.6807095,133.833074 L41.7091554,133.833074 L41.7091554,136.805203 L41.7091554,139.776182 L41.7091554,142.748311 L44.6807095,142.748311 L44.6807095,139.776182 L44.6807095,136.805203 Z M29.8223649,139.776182 L26.8502365,139.776182 L23.8786824,139.776182 L20.9065541,139.776182 L17.935,139.776182 L14.9628716,139.776182 L14.9628716,142.748311 L14.9628716,145.719865 L14.9628716,148.691993 L14.9628716,151.663547 L14.9628716,154.635676 L17.935,154.635676 L20.9065541,154.635676 L23.8786824,154.635676 L26.8502365,154.635676 L29.8223649,154.635676 L29.8223649,151.663547 L29.8223649,148.691993 L29.8223649,145.719865 L29.8223649,142.748311 L29.8223649,139.776182 Z M29.8223649,136.805203 L32.7933446,136.805203 L32.7933446,139.776182 L32.7933446,142.748311 L32.7933446,145.719865 L32.7933446,148.691993 L32.7933446,151.663547 L32.7933446,154.635676 L32.7933446,157.606655 L29.8223649,157.606655 L26.8502365,157.606655 L23.8786824,157.606655 L20.9065541,157.606655 L17.935,157.606655 L14.9628716,157.606655 L11.9918919,157.606655 L11.9918919,154.635676 L11.9918919,151.663547 L11.9918919,148.691993 L11.9918919,145.719865 L11.9918919,142.748311 L11.9918919,139.776182 L11.9918919,136.805203 L14.9628716,136.805203 L17.935,136.805203 L20.9065541,136.805203 L23.8786824,136.805203 L26.8502365,136.805203 L29.8223649,136.805203 Z M142.748885,142.748311 L142.748885,139.776182 L142.748885,136.805203 L142.748885,133.833074 L139.776757,133.833074 L136.805203,133.833074 L133.833074,133.833074 L133.833074,136.805203 L133.833074,139.776182 L133.833074,142.748311 L136.805203,142.748311 L139.776757,142.748311 L142.748885,142.748311 Z M118.97473,127.889392 L118.97473,124.917838 L121.946284,124.917838 L121.946284,121.946284 L118.97473,121.946284 L116.002601,121.946284 L116.002601,118.97473 L113.031047,118.97473 L110.059493,118.97473 L107.087365,118.97473 L107.087365,121.946284 L110.059493,121.946284 L110.059493,124.917838 L107.087365,124.917838 L107.087365,127.889392 L104.115811,127.889392 L104.115811,130.86152 L104.115811,133.833074 L107.087365,133.833074 L107.087365,136.805203 L110.059493,136.805203 L110.059493,133.833074 L110.059493,130.86152 L110.059493,127.889392 L113.031047,127.889392 L116.002601,127.889392 L118.97473,127.889392 Z M124.917838,127.889392 L127.889392,127.889392 L127.889392,124.917838 L124.917838,124.917838 L124.917838,127.889392 Z M89.2568919,142.748311 L89.2568919,139.776182 L89.2568919,136.805203 L89.2568919,133.833074 L86.2853378,133.833074 L83.3132095,133.833074 L80.3416554,133.833074 L80.3416554,136.805203 L80.3416554,139.776182 L80.3416554,142.748311 L83.3132095,142.748311 L86.2853378,142.748311 L89.2568919,142.748311 Z M151.663547,136.805203 L154.635676,136.805203 L154.635676,139.776182 L151.663547,139.776182 L148.691993,139.776182 L148.691993,142.748311 L145.719865,142.748311 L145.719865,145.719865 L145.719865,148.691993 L145.719865,151.663547 L148.691993,151.663547 L151.663547,151.663547 L151.663547,154.635676 L154.635676,154.635676 L154.635676,151.663547 L151.663547,151.663547 L151.663547,148.691993 L154.635676,148.691993 L154.635676,145.719865 L157.60723,145.719865 L157.60723,148.691993 L157.60723,151.663547 L157.60723,154.635676 L157.60723,157.606655 L154.635676,157.606655 L151.663547,157.606655 L148.691993,157.606655 L145.719865,157.606655 L142.748885,157.606655 L139.776757,157.606655 L136.805203,157.606655 L136.805203,154.635676 L133.833074,154.635676 L133.833074,157.606655 L130.86152,157.606655 L130.86152,154.635676 L130.86152,151.663547 L133.833074,151.663547 L136.805203,151.663547 L139.776757,151.663547 L139.776757,154.635676 L142.748885,154.635676 L142.748885,151.663547 L142.748885,148.691993 L142.748885,145.719865 L139.776757,145.719865 L136.805203,145.719865 L133.833074,145.719865 L130.86152,145.719865 L130.86152,148.691993 L130.86152,151.663547 L127.889392,151.663547 L124.918412,151.663547 L124.918412,148.691993 L127.889392,148.691993 L127.889392,145.719865 L127.889392,142.748311 L127.889392,139.776182 L130.86152,139.776182 L130.86152,136.805203 L127.889392,136.805203 L127.889392,139.776182 L124.918412,139.776182 L124.918412,142.748311 L124.918412,145.719865 L121.946284,145.719865 L121.946284,142.748311 L121.946284,139.776182 L118.97473,139.776182 L116.002601,139.776182 L116.002601,136.805203 L118.97473,136.805203 L118.97473,133.833074 L121.946284,133.833074 L121.946284,130.86152 L118.97473,130.86152 L116.002601,130.86152 L113.031047,130.86152 L113.031047,133.833074 L116.002601,133.833074 L116.002601,136.805203 L113.031047,136.805203 L113.031047,139.776182 L110.059493,139.776182 L107.087365,139.776182 L104.115811,139.776182 L104.115811,142.748311 L101.143682,142.748311 L101.143682,145.719865 L98.1721284,145.719865 L98.1721284,148.691993 L95.2,148.691993 L95.2,151.663547 L95.2,154.635676 L98.1721284,154.635676 L101.143682,154.635676 L104.115811,154.635676 L104.115811,151.663547 L107.087365,151.663547 L110.059493,151.663547 L113.031047,151.663547 L113.031047,154.635676 L110.059493,154.635676 L110.059493,157.606655 L107.087365,157.606655 L104.115811,157.606655 L101.143682,157.606655 L98.1721284,157.606655 L95.2,157.606655 L92.2290203,157.606655 L92.2290203,154.635676 L89.2568919,154.635676 L89.2568919,151.663547 L89.2568919,148.691993 L92.2290203,148.691993 L92.2290203,145.719865 L89.2568919,145.719865 L89.2568919,148.691993 L86.2853378,148.691993 L86.2853378,151.663547 L83.3132095,151.663547 L80.3416554,151.663547 L80.3416554,154.635676 L77.3701014,154.635676 L77.3701014,151.663547 L74.3985473,151.663547 L71.4264189,151.663547 L71.4264189,148.691993 L74.3985473,148.691993 L74.3985473,145.719865 L77.3701014,145.719865 L77.3701014,148.691993 L80.3416554,148.691993 L83.3132095,148.691993 L83.3132095,145.719865 L80.3416554,145.719865 L77.3701014,145.719865 L77.3701014,142.748311 L77.3701014,139.776182 L74.3985473,139.776182 L74.3985473,136.805203 L71.4264189,136.805203 L71.4264189,133.833074 L74.3985473,133.833074 L77.3701014,133.833074 L77.3701014,130.86152 L80.3416554,130.86152 L80.3416554,127.889392 L77.3701014,127.889392 L74.3985473,127.889392 L74.3985473,130.86152 L71.4264189,130.86152 L71.4264189,133.833074 L68.4548649,133.833074 L68.4548649,136.805203 L65.4827365,136.805203 L62.5117568,136.805203 L59.5396284,136.805203 L59.5396284,133.833074 L62.5117568,133.833074 L62.5117568,130.86152 L65.4827365,130.86152 L68.4548649,130.86152 L68.4548649,127.889392 L68.4548649,124.917838 L71.4264189,124.917838 L71.4264189,121.946284 L74.3985473,121.946284 L74.3985473,124.917838 L77.3701014,124.917838 L77.3701014,121.946284 L74.3985473,121.946284 L74.3985473,118.97473 L77.3701014,118.97473 L77.3701014,116.002601 L80.3416554,116.002601 L83.3132095,116.002601 L83.3132095,118.97473 L83.3132095,121.946284 L80.3416554,121.946284 L80.3416554,124.917838 L83.3132095,124.917838 L86.2853378,124.917838 L86.2853378,127.889392 L83.3132095,127.889392 L83.3132095,130.86152 L86.2853378,130.86152 L89.2568919,130.86152 L89.2568919,127.889392 L89.2568919,124.917838 L92.2290203,124.917838 L92.2290203,121.946284 L92.2290203,118.97473 L92.2290203,116.002601 L89.2568919,116.002601 L89.2568919,113.030473 L89.2568919,110.058919 L92.2290203,110.058919 L92.2290203,113.030473 L95.2,113.030473 L98.1721284,113.030473 L98.1721284,110.058919 L101.143682,110.058919 L101.143682,113.030473 L101.143682,116.002601 L98.1721284,116.002601 L98.1721284,118.97473 L101.143682,118.97473 L101.143682,121.946284 L98.1721284,121.946284 L95.2,121.946284 L95.2,124.917838 L95.2,127.889392 L92.2290203,127.889392 L92.2290203,130.86152 L92.2290203,133.833074 L92.2290203,136.805203 L95.2,136.805203 L95.2,139.776182 L98.1721284,139.776182 L101.143682,139.776182 L101.143682,136.805203 L101.143682,133.833074 L98.1721284,133.833074 L95.2,133.833074 L95.2,130.86152 L98.1721284,130.86152 L98.1721284,127.889392 L98.1721284,124.917838 L101.143682,124.917838 L104.115811,124.917838 L104.115811,121.946284 L104.115811,118.97473 L101.143682,118.97473 L101.143682,116.002601 L104.115811,116.002601 L107.087365,116.002601 L107.087365,113.030473 L110.059493,113.030473 L110.059493,116.002601 L113.031047,116.002601 L116.002601,116.002601 L116.002601,113.030473 L118.97473,113.030473 L121.946284,113.030473 L121.946284,116.002601 L121.946284,118.97473 L124.918412,118.97473 L124.918412,116.002601 L127.889392,116.002601 L127.889392,113.030473 L130.86152,113.030473 L130.86152,116.002601 L130.86152,118.97473 L127.889392,118.97473 L127.889392,121.946284 L130.86152,121.946284 L130.86152,118.97473 L133.833074,118.97473 L133.833074,121.946284 L133.833074,124.917838 L130.86152,124.917838 L130.86152,127.889392 L133.833074,127.889392 L133.833074,130.86152 L136.805203,130.86152 L139.776757,130.86152 L142.748885,130.86152 L142.748885,127.889392 L145.719865,127.889392 L145.719865,130.86152 L148.691993,130.86152 L148.691993,133.833074 L145.719865,133.833074 L145.719865,136.805203 L148.691993,136.805203 L148.691993,133.833074 L151.663547,133.833074 L151.663547,136.805203 Z M53.5959459,136.805203 L56.5680743,136.805203 L56.5680743,133.833074 L53.5959459,133.833074 L50.6238176,133.833074 L50.6238176,136.805203 L53.5959459,136.805203 Z M47.6522635,133.833074 L50.6238176,133.833074 L50.6238176,130.86152 L47.6522635,130.86152 L47.6522635,133.833074 Z M17.935,133.833074 L20.9065541,133.833074 L20.9065541,130.86152 L23.8786824,130.86152 L23.8786824,127.889392 L20.9065541,127.889392 L17.935,127.889392 L17.935,124.917838 L14.9628716,124.917838 L14.9628716,127.889392 L14.9628716,130.86152 L11.9918919,130.86152 L11.9918919,133.833074 L14.9628716,133.833074 L17.935,133.833074 Z M29.8223649,133.833074 L32.7939189,133.833074 L32.7939189,130.86152 L29.8223649,130.86152 L29.8223649,133.833074 Z M50.6238176,127.889392 L53.5959459,127.889392 L53.5959459,124.917838 L50.6238176,124.917838 L50.6238176,127.889392 Z M41.7091554,127.889392 L41.7091554,130.86152 L44.6807095,130.86152 L47.6522635,130.86152 L47.6522635,127.889392 L44.6807095,127.889392 L44.6807095,124.917838 L41.7091554,124.917838 L41.7091554,127.889392 Z M154.635676,124.917838 L154.635676,127.889392 L151.663547,127.889392 L151.663547,130.86152 L154.635676,130.86152 L154.635676,133.833074 L154.635676,136.805203 L157.60723,136.805203 L157.60723,133.833074 L157.60723,130.86152 L157.60723,127.889392 L157.60723,124.917838 L157.60723,121.946284 L157.60723,118.97473 L154.635676,118.97473 L154.635676,121.946284 L154.635676,124.917838 Z M62.5117568,118.97473 L65.4833108,118.97473 L65.4833108,116.002601 L62.5117568,116.002601 L62.5117568,118.97473 Z M23.8786824,104.115811 L23.8786824,101.143682 L20.9065541,101.143682 L20.9065541,104.115811 L17.935,104.115811 L17.935,101.143682 L14.9628716,101.143682 L14.9628716,104.115811 L14.9628716,107.086791 L17.935,107.086791 L20.9065541,107.086791 L20.9065541,104.115811 L23.8786824,104.115811 Z M68.4548649,121.946284 L68.4548649,124.917838 L65.4827365,124.917838 L62.5117568,124.917838 L59.5396284,124.917838 L59.5396284,127.889392 L59.5396284,130.86152 L56.5680743,130.86152 L53.5959459,130.86152 L53.5959459,127.889392 L56.5680743,127.889392 L56.5680743,124.917838 L53.5959459,124.917838 L53.5959459,121.946284 L50.6238176,121.946284 L47.6522635,121.946284 L47.6522635,124.917838 L44.6807095,124.917838 L44.6807095,121.946284 L41.7091554,121.946284 L38.737027,121.946284 L38.737027,118.97473 L35.765473,118.97473 L35.765473,121.946284 L35.765473,124.917838 L38.737027,124.917838 L38.737027,127.889392 L38.737027,130.86152 L38.737027,133.833074 L38.737027,136.805203 L35.765473,136.805203 L35.765473,133.833074 L35.765473,130.86152 L35.765473,127.889392 L32.7933446,127.889392 L29.8223649,127.889392 L26.8502365,127.889392 L26.8502365,124.917838 L29.8223649,124.917838 L32.7933446,124.917838 L32.7933446,121.946284 L29.8223649,121.946284 L29.8223649,118.97473 L32.7933446,118.97473 L32.7933446,116.002601 L35.765473,116.002601 L38.737027,116.002601 L38.737027,113.030473 L38.737027,110.058919 L41.7091554,110.058919 L41.7091554,107.086791 L38.737027,107.086791 L38.737027,110.058919 L35.765473,110.058919 L35.765473,107.086791 L32.7933446,107.086791 L32.7933446,104.115811 L29.8223649,104.115811 L26.8502365,104.115811 L26.8502365,107.086791 L29.8223649,107.086791 L32.7933446,107.086791 L32.7933446,110.058919 L29.8223649,110.058919 L26.8502365,110.058919 L23.8786824,110.058919 L23.8786824,113.030473 L23.8786824,116.002601 L20.9065541,116.002601 L20.9065541,113.030473 L20.9065541,110.058919 L17.935,110.058919 L14.9628716,110.058919 L11.9918919,110.058919 L11.9918919,107.086791 L11.9918919,104.115811 L11.9918919,101.143682 L11.9918919,98.1721284 L14.9628716,98.1721284 L14.9628716,95.2 L17.935,95.2 L17.935,98.1721284 L20.9065541,98.1721284 L20.9065541,95.2 L17.935,95.2 L17.935,92.2284459 L20.9065541,92.2284459 L23.8786824,92.2284459 L23.8786824,95.2 L26.8502365,95.2 L26.8502365,98.1721284 L26.8502365,101.143682 L29.8223649,101.143682 L32.7933446,101.143682 L35.765473,101.143682 L38.737027,101.143682 L38.737027,104.115811 L41.7091554,104.115811 L44.6807095,104.115811 L44.6807095,107.086791 L47.6522635,107.086791 L47.6522635,110.058919 L44.6807095,110.058919 L44.6807095,113.030473 L41.7091554,113.030473 L41.7091554,116.002601 L41.7091554,118.97473 L44.6807095,118.97473 L47.6522635,118.97473 L47.6522635,116.002601 L50.6238176,116.002601 L53.5959459,116.002601 L53.5959459,118.97473 L56.5680743,118.97473 L56.5680743,116.002601 L53.5959459,116.002601 L53.5959459,113.030473 L56.5680743,113.030473 L59.5396284,113.030473 L62.5117568,113.030473 L65.4827365,113.030473 L68.4548649,113.030473 L71.4264189,113.030473 L71.4264189,116.002601 L68.4548649,116.002601 L68.4548649,118.97473 L68.4548649,121.946284 Z M17.935,118.97473 L17.935,116.002601 L14.9628716,116.002601 L14.9628716,118.97473 L14.9628716,121.946284 L17.935,121.946284 L17.935,118.97473 Z M86.2853378,118.97473 L89.2568919,118.97473 L89.2568919,116.002601 L86.2853378,116.002601 L86.2853378,118.97473 Z M133.833074,116.002601 L136.805203,116.002601 L136.805203,113.030473 L136.805203,110.058919 L139.776757,110.058919 L139.776757,107.086791 L136.805203,107.086791 L133.833074,107.086791 L133.833074,110.058919 L130.86152,110.058919 L130.86152,113.030473 L133.833074,113.030473 L133.833074,116.002601 Z M44.6807095,116.002601 L47.6528378,116.002601 L47.6528378,113.030473 L44.6807095,113.030473 L44.6807095,116.002601 Z M32.7933446,116.002601 L32.7933446,113.030473 L29.8223649,113.030473 L26.8502365,113.030473 L26.8502365,116.002601 L23.8786824,116.002601 L23.8786824,118.97473 L23.8786824,121.946284 L26.8502365,121.946284 L26.8502365,118.97473 L29.8223649,118.97473 L29.8223649,116.002601 L32.7933446,116.002601 Z M151.663547,113.030473 L151.663547,116.002601 L148.691993,116.002601 L145.719865,116.002601 L145.719865,118.97473 L142.748885,118.97473 L142.748885,116.002601 L142.748885,113.030473 L139.776757,113.030473 L139.776757,116.002601 L139.776757,118.97473 L136.805203,118.97473 L136.805203,121.946284 L139.776757,121.946284 L139.776757,124.917838 L136.805203,124.917838 L136.805203,127.889392 L139.776757,127.889392 L142.748885,127.889392 L142.748885,124.917838 L145.719865,124.917838 L145.719865,127.889392 L148.691993,127.889392 L148.691993,124.917838 L148.691993,121.946284 L148.691993,118.97473 L151.663547,118.97473 L154.635676,118.97473 L154.635676,116.002601 L154.635676,113.030473 L154.635676,110.058919 L151.663547,110.058919 L151.663547,113.030473 Z M124.918412,110.058919 L124.918412,107.086791 L124.918412,104.115811 L127.889392,104.115811 L127.889392,101.143682 L124.918412,101.143682 L121.946284,101.143682 L121.946284,104.115811 L118.97473,104.115811 L118.97473,107.086791 L116.002601,107.086791 L116.002601,110.058919 L118.97473,110.058919 L121.946284,110.058919 L121.946284,113.030473 L124.918412,113.030473 L127.889392,113.030473 L127.889392,110.058919 L124.918412,110.058919 Z M113.031047,113.030473 L116.002601,113.030473 L116.002601,110.058919 L113.031047,110.058919 L113.031047,113.030473 Z M32.7933446,113.030473 L35.765473,113.030473 L35.765473,110.058919 L32.7933446,110.058919 L32.7933446,113.030473 Z M127.889392,110.058919 L130.86152,110.058919 L130.86152,107.086791 L130.86152,104.115811 L127.889392,104.115811 L127.889392,107.086791 L127.889392,110.058919 Z M80.3416554,107.087365 L83.3132095,107.087365 L83.3132095,104.115811 L80.3416554,104.115811 L80.3416554,107.087365 Z M83.3132095,89.2568919 L86.2853378,89.2568919 L89.2568919,89.2568919 L89.2568919,86.2853378 L89.2568919,83.3132095 L89.2568919,80.3416554 L86.2853378,80.3416554 L83.3132095,80.3416554 L80.3416554,80.3416554 L80.3416554,83.3132095 L80.3416554,86.2853378 L80.3416554,89.2568919 L83.3132095,89.2568919 Z M98.1721284,107.086791 L98.1721284,110.058919 L95.2,110.058919 L92.2290203,110.058919 L92.2290203,107.086791 L89.2568919,107.086791 L89.2568919,104.115811 L86.2853378,104.115811 L86.2853378,107.086791 L86.2853378,110.058919 L83.3132095,110.058919 L80.3416554,110.058919 L80.3416554,113.030473 L77.3701014,113.030473 L77.3701014,116.002601 L74.3985473,116.002601 L74.3985473,113.030473 L71.4264189,113.030473 L71.4264189,110.058919 L74.3985473,110.058919 L74.3985473,107.086791 L71.4264189,107.086791 L68.4548649,107.086791 L65.4827365,107.086791 L62.5117568,107.086791 L62.5117568,104.115811 L65.4827365,104.115811 L65.4827365,101.143682 L62.5117568,101.143682 L62.5117568,104.115811 L59.5396284,104.115811 L59.5396284,101.143682 L59.5396284,98.1721284 L62.5117568,98.1721284 L65.4827365,98.1721284 L68.4548649,98.1721284 L68.4548649,101.143682 L71.4264189,101.143682 L74.3985473,101.143682 L74.3985473,104.115811 L77.3701014,104.115811 L77.3701014,101.143682 L80.3416554,101.143682 L80.3416554,98.1721284 L83.3132095,98.1721284 L83.3132095,95.2 L83.3132095,92.2284459 L80.3416554,92.2284459 L80.3416554,95.2 L77.3701014,95.2 L77.3701014,92.2284459 L74.3985473,92.2284459 L74.3985473,89.2568919 L77.3701014,89.2568919 L77.3701014,86.2853378 L74.3985473,86.2853378 L74.3985473,83.3132095 L77.3701014,83.3132095 L77.3701014,80.3416554 L74.3985473,80.3416554 L74.3985473,77.369527 L77.3701014,77.369527 L80.3416554,77.369527 L83.3132095,77.369527 L86.2853378,77.369527 L89.2568919,77.369527 L89.2568919,74.397973 L92.2290203,74.397973 L92.2290203,71.4264189 L92.2290203,68.4548649 L95.2,68.4548649 L95.2,71.4264189 L98.1721284,71.4264189 L101.143682,71.4264189 L101.143682,68.4548649 L101.143682,65.4827365 L98.1721284,65.4827365 L98.1721284,62.5111824 L101.143682,62.5111824 L104.115811,62.5111824 L107.087365,62.5111824 L107.087365,65.4827365 L107.087365,68.4548649 L104.115811,68.4548649 L104.115811,71.4264189 L107.087365,71.4264189 L110.059493,71.4264189 L110.059493,68.4548649 L110.059493,65.4827365 L113.031047,65.4827365 L113.031047,68.4548649 L113.031047,71.4264189 L113.031047,74.397973 L110.059493,74.397973 L107.087365,74.397973 L104.115811,74.397973 L101.143682,74.397973 L98.1721284,74.397973 L95.2,74.397973 L95.2,77.369527 L98.1721284,77.369527 L98.1721284,80.3416554 L95.2,80.3416554 L92.2290203,80.3416554 L92.2290203,83.3132095 L92.2290203,86.2853378 L92.2290203,89.2568919 L95.2,89.2568919 L95.2,92.2284459 L95.2,95.2 L98.1721284,95.2 L98.1721284,98.1721284 L95.2,98.1721284 L95.2,101.143682 L92.2290203,101.143682 L92.2290203,98.1721284 L89.2568919,98.1721284 L89.2568919,95.2 L92.2290203,95.2 L92.2290203,92.2284459 L89.2568919,92.2284459 L86.2853378,92.2284459 L86.2853378,95.2 L86.2853378,98.1721284 L86.2853378,101.143682 L89.2568919,101.143682 L92.2290203,101.143682 L92.2290203,104.115811 L95.2,104.115811 L95.2,107.086791 L98.1721284,107.086791 Z M53.5959459,107.086791 L50.6238176,107.086791 L50.6238176,110.058919 L47.6522635,110.058919 L47.6522635,113.030473 L50.6238176,113.030473 L53.5959459,113.030473 L53.5959459,110.058919 L53.5959459,107.086791 Z M142.748885,107.086791 L142.748885,110.058919 L142.748885,113.030473 L145.719865,113.030473 L145.719865,110.058919 L148.691993,110.058919 L151.663547,110.058919 L151.663547,107.086791 L151.663547,104.115811 L148.691993,104.115811 L148.691993,107.086791 L145.719865,107.086791 L145.719865,104.115811 L145.719865,101.143682 L142.748885,101.143682 L142.748885,104.115811 L139.776757,104.115811 L139.776757,107.086791 L142.748885,107.086791 Z M53.5959459,107.087365 L56.5680743,107.087365 L56.5680743,104.115811 L53.5959459,104.115811 L53.5959459,107.087365 Z M95.2,104.115811 L98.1721284,104.115811 L98.1721284,101.143682 L95.2,101.143682 L95.2,104.115811 Z M50.6238176,101.143682 L50.6238176,98.1721284 L53.5959459,98.1721284 L53.5959459,95.2 L50.6238176,95.2 L47.6522635,95.2 L47.6522635,98.1721284 L47.6522635,101.143682 L47.6522635,104.115811 L50.6238176,104.115811 L53.5959459,104.115811 L53.5959459,101.143682 L50.6238176,101.143682 Z M145.719865,101.143682 L148.691993,101.143682 L148.691993,98.1721284 L145.719865,98.1721284 L145.719865,101.143682 Z M98.1721284,101.143682 L101.143682,101.143682 L101.143682,98.1721284 L98.1721284,98.1721284 L98.1721284,101.143682 Z M44.6807095,101.143682 L44.6807095,98.1721284 L41.7091554,98.1721284 L41.7091554,95.2 L38.737027,95.2 L38.737027,98.1721284 L38.737027,101.143682 L41.7091554,101.143682 L44.6807095,101.143682 Z M127.889392,98.1721284 L130.86152,98.1721284 L130.86152,95.2 L127.889392,95.2 L124.918412,95.2 L124.918412,98.1721284 L127.889392,98.1721284 Z M29.8223649,98.1721284 L32.7939189,98.1721284 L32.7939189,95.2 L29.8223649,95.2 L29.8223649,98.1721284 Z M113.031047,92.2284459 L110.059493,92.2284459 L110.059493,95.2 L107.087365,95.2 L107.087365,98.1721284 L107.087365,101.143682 L104.115811,101.143682 L104.115811,104.115811 L101.143682,104.115811 L98.1721284,104.115811 L98.1721284,107.086791 L101.143682,107.086791 L104.115811,107.086791 L104.115811,110.058919 L107.087365,110.058919 L107.087365,107.086791 L110.059493,107.086791 L110.059493,110.058919 L113.031047,110.058919 L113.031047,107.086791 L113.031047,104.115811 L110.059493,104.115811 L110.059493,101.143682 L110.059493,98.1721284 L113.031047,98.1721284 L113.031047,95.2 L116.002601,95.2 L116.002601,98.1721284 L113.031047,98.1721284 L113.031047,101.143682 L113.031047,104.115811 L116.002601,104.115811 L116.002601,101.143682 L118.97473,101.143682 L118.97473,98.1721284 L118.97473,95.2 L118.97473,92.2284459 L116.002601,92.2284459 L113.031047,92.2284459 Z M104.115811,95.2 L107.087365,95.2 L107.087365,92.2284459 L104.115811,92.2284459 L101.143682,92.2284459 L98.1721284,92.2284459 L98.1721284,95.2 L101.143682,95.2 L104.115811,95.2 Z M71.4264189,95.2 L71.4264189,98.1721284 L74.3985473,98.1721284 L74.3985473,95.2 L74.3985473,92.2284459 L71.4264189,92.2284459 L71.4264189,95.2 Z M41.7091554,95.2 L44.6807095,95.2 L44.6807095,92.2284459 L41.7091554,92.2284459 L41.7091554,95.2 Z M11.9918919,95.2 L14.9634459,95.2 L14.9634459,92.2284459 L11.9918919,92.2284459 L11.9918919,95.2 Z M154.635676,92.2284459 L151.663547,92.2284459 L151.663547,95.2 L151.663547,98.1721284 L151.663547,101.143682 L151.663547,104.115811 L154.635676,104.115811 L154.635676,107.086791 L154.635676,110.058919 L157.60723,110.058919 L157.60723,107.086791 L157.60723,104.115811 L157.60723,101.143682 L157.60723,98.1721284 L157.60723,95.2 L157.60723,92.2284459 L157.60723,89.2568919 L157.60723,86.2853378 L157.60723,83.3132095 L154.635676,83.3132095 L151.663547,83.3132095 L148.691993,83.3132095 L148.691993,86.2853378 L151.663547,86.2853378 L151.663547,89.2568919 L154.635676,89.2568919 L154.635676,92.2284459 Z M107.087365,92.2284459 L110.059493,92.2284459 L110.059493,89.2563176 L107.087365,89.2563176 L107.087365,92.2284459 Z M53.5959459,92.2284459 L56.5680743,92.2284459 L59.5396284,92.2284459 L59.5396284,95.2 L62.5117568,95.2 L62.5117568,92.2284459 L65.4827365,92.2284459 L65.4827365,89.2568919 L62.5117568,89.2568919 L62.5117568,86.2853378 L62.5117568,83.3132095 L59.5396284,83.3132095 L59.5396284,86.2853378 L59.5396284,89.2568919 L56.5680743,89.2568919 L56.5680743,86.2853378 L53.5959459,86.2853378 L53.5959459,89.2568919 L53.5959459,92.2284459 Z M14.9628716,92.2290203 L17.935,92.2290203 L17.935,89.2568919 L14.9628716,89.2568919 L14.9628716,92.2290203 Z M101.143682,89.2568919 L104.115811,89.2568919 L104.115811,86.2853378 L101.143682,86.2853378 L98.1721284,86.2853378 L98.1721284,83.3132095 L95.2,83.3132095 L95.2,86.2853378 L95.2,89.2568919 L98.1721284,89.2568919 L101.143682,89.2568919 Z M26.8502365,86.2853378 L26.8502365,89.2568919 L29.8223649,89.2568919 L32.7933446,89.2568919 L35.765473,89.2568919 L35.765473,86.2853378 L35.765473,83.3132095 L35.765473,80.3416554 L32.7933446,80.3416554 L29.8223649,80.3416554 L26.8502365,80.3416554 L26.8502365,83.3132095 L26.8502365,86.2853378 Z M20.9065541,89.2568919 L17.935,89.2568919 L17.935,86.2853378 L17.935,83.3132095 L20.9065541,83.3132095 L20.9065541,86.2853378 L23.8786824,86.2853378 L23.8786824,83.3132095 L23.8786824,80.3416554 L23.8786824,77.369527 L26.8502365,77.369527 L26.8502365,74.397973 L26.8502365,71.4264189 L29.8223649,71.4264189 L32.7933446,71.4264189 L32.7933446,74.397973 L29.8223649,74.397973 L29.8223649,77.369527 L32.7933446,77.369527 L35.765473,77.369527 L38.737027,77.369527 L38.737027,74.397973 L35.765473,74.397973 L35.765473,71.4264189 L38.737027,71.4264189 L41.7091554,71.4264189 L44.6807095,71.4264189 L44.6807095,74.397973 L41.7091554,74.397973 L41.7091554,77.369527 L41.7091554,80.3416554 L38.737027,80.3416554 L38.737027,83.3132095 L38.737027,86.2853378 L41.7091554,86.2853378 L41.7091554,83.3132095 L41.7091554,80.3416554 L44.6807095,80.3416554 L47.6522635,80.3416554 L47.6522635,77.369527 L50.6238176,77.369527 L50.6238176,74.397973 L47.6522635,74.397973 L47.6522635,71.4264189 L44.6807095,71.4264189 L44.6807095,68.4548649 L47.6522635,68.4548649 L47.6522635,65.4827365 L50.6238176,65.4827365 L50.6238176,62.5111824 L53.5959459,62.5111824 L53.5959459,65.4827365 L56.5680743,65.4827365 L59.5396284,65.4827365 L59.5396284,68.4548649 L56.5680743,68.4548649 L56.5680743,71.4264189 L53.5959459,71.4264189 L53.5959459,68.4548649 L50.6238176,68.4548649 L50.6238176,71.4264189 L53.5959459,71.4264189 L53.5959459,74.397973 L56.5680743,74.397973 L56.5680743,71.4264189 L59.5396284,71.4264189 L59.5396284,68.4548649 L62.5117568,68.4548649 L62.5117568,65.4827365 L59.5396284,65.4827365 L59.5396284,62.5111824 L62.5117568,62.5111824 L65.4827365,62.5111824 L68.4548649,62.5111824 L68.4548649,59.5390541 L71.4264189,59.5390541 L71.4264189,62.5111824 L71.4264189,65.4827365 L74.3985473,65.4827365 L77.3701014,65.4827365 L77.3701014,62.5111824 L80.3416554,62.5111824 L83.3132095,62.5111824 L83.3132095,65.4827365 L83.3132095,68.4548649 L80.3416554,68.4548649 L80.3416554,71.4264189 L77.3701014,71.4264189 L77.3701014,68.4548649 L74.3985473,68.4548649 L71.4264189,68.4548649 L71.4264189,71.4264189 L71.4264189,74.397973 L71.4264189,77.369527 L68.4548649,77.369527 L65.4827365,77.369527 L62.5117568,77.369527 L62.5117568,74.397973 L65.4827365,74.397973 L65.4827365,71.4264189 L62.5117568,71.4264189 L62.5117568,74.397973 L59.5396284,74.397973 L59.5396284,77.369527 L62.5117568,77.369527 L62.5117568,80.3416554 L59.5396284,80.3416554 L59.5396284,83.3132095 L56.5680743,83.3132095 L56.5680743,80.3416554 L56.5680743,77.369527 L53.5959459,77.369527 L53.5959459,80.3416554 L50.6238176,80.3416554 L50.6238176,83.3132095 L53.5959459,83.3132095 L53.5959459,86.2853378 L50.6238176,86.2853378 L47.6522635,86.2853378 L47.6522635,89.2568919 L44.6807095,89.2568919 L41.7091554,89.2568919 L38.737027,89.2568919 L38.737027,92.2284459 L35.765473,92.2284459 L35.765473,95.2 L32.7933446,95.2 L32.7933446,92.2284459 L29.8223649,92.2284459 L26.8502365,92.2284459 L23.8786824,92.2284459 L23.8786824,89.2568919 L20.9065541,89.2568919 Z M136.805203,86.2853378 L139.776757,86.2853378 L139.776757,83.3132095 L136.805203,83.3132095 L136.805203,86.2853378 Z M121.946284,83.3132095 L121.946284,80.3416554 L118.97473,80.3416554 L118.97473,77.369527 L116.002601,77.369527 L113.031047,77.369527 L113.031047,80.3416554 L110.059493,80.3416554 L110.059493,77.369527 L107.087365,77.369527 L107.087365,80.3416554 L104.115811,80.3416554 L104.115811,83.3132095 L104.115811,86.2853378 L107.087365,86.2853378 L110.059493,86.2853378 L110.059493,89.2568919 L113.031047,89.2568919 L113.031047,86.2853378 L116.002601,86.2853378 L116.002601,83.3132095 L118.97473,83.3132095 L118.97473,86.2853378 L116.002601,86.2853378 L116.002601,89.2568919 L118.97473,89.2568919 L118.97473,92.2284459 L121.946284,92.2284459 L121.946284,95.2 L124.918412,95.2 L124.918412,92.2284459 L124.918412,89.2568919 L124.918412,86.2853378 L121.946284,86.2853378 L121.946284,83.3132095 Z M83.3132095,86.2853378 L86.2853378,86.2853378 L86.2853378,83.3132095 L83.3132095,83.3132095 L83.3132095,86.2853378 Z M29.8217905,86.2853378 L32.7933446,86.2853378 L32.7933446,83.3132095 L29.8217905,83.3132095 L29.8217905,86.2853378 Z M68.4548649,80.3416554 L68.4548649,83.3132095 L65.4827365,83.3132095 L65.4827365,86.2853378 L65.4827365,89.2568919 L68.4548649,89.2568919 L68.4548649,92.2284459 L71.4264189,92.2284459 L71.4264189,89.2568919 L74.3985473,89.2568919 L74.3985473,86.2853378 L71.4264189,86.2853378 L71.4264189,83.3132095 L74.3985473,83.3132095 L74.3985473,80.3416554 L71.4264189,80.3416554 L68.4548649,80.3416554 Z M62.5111824,83.3132095 L65.4827365,83.3132095 L65.4827365,80.3416554 L62.5111824,80.3416554 L62.5111824,83.3132095 Z M121.946284,80.3416554 L124.918412,80.3416554 L124.918412,77.369527 L121.946284,77.369527 L121.946284,80.3416554 Z M118.97473,77.369527 L121.946284,77.369527 L121.946284,74.397973 L118.97473,74.397973 L118.97473,77.369527 Z M44.6807095,77.369527 L47.6528378,77.369527 L47.6528378,74.397973 L44.6807095,74.397973 L44.6807095,77.369527 Z M142.748885,80.3416554 L139.776757,80.3416554 L136.805203,80.3416554 L133.833074,80.3416554 L133.833074,83.3132095 L133.833074,86.2853378 L133.833074,89.2568919 L136.805203,89.2568919 L139.776757,89.2568919 L142.748885,89.2568919 L142.748885,86.2853378 L142.748885,83.3132095 L142.748885,80.3416554 Z M148.691993,71.4264189 L151.663547,71.4264189 L151.663547,74.397973 L151.663547,77.369527 L154.635676,77.369527 L157.60723,77.369527 L157.60723,80.3416554 L154.635676,80.3416554 L151.663547,80.3416554 L148.691993,80.3416554 L145.719865,80.3416554 L145.719865,83.3132095 L145.719865,86.2853378 L145.719865,89.2568919 L148.691993,89.2568919 L151.663547,89.2568919 L151.663547,92.2284459 L148.691993,92.2284459 L148.691993,95.2 L145.719865,95.2 L145.719865,98.1721284 L142.748885,98.1721284 L142.748885,95.2 L142.748885,92.2284459 L139.776757,92.2284459 L136.805203,92.2284459 L136.805203,95.2 L139.776757,95.2 L139.776757,98.1721284 L139.776757,101.143682 L139.776757,104.115811 L136.805203,104.115811 L136.805203,101.143682 L133.833074,101.143682 L133.833074,98.1721284 L133.833074,95.2 L133.833074,92.2284459 L130.86152,92.2284459 L127.889392,92.2284459 L127.889392,89.2568919 L130.86152,89.2568919 L130.86152,86.2853378 L127.889392,86.2853378 L124.918412,86.2853378 L124.918412,83.3132095 L124.918412,80.3416554 L127.889392,80.3416554 L127.889392,83.3132095 L130.86152,83.3132095 L130.86152,80.3416554 L130.86152,77.369527 L133.833074,77.369527 L136.805203,77.369527 L139.776757,77.369527 L139.776757,74.397973 L139.776757,71.4264189 L142.748885,71.4264189 L142.748885,74.397973 L145.719865,74.397973 L145.719865,77.369527 L148.691993,77.369527 L148.691993,74.397973 L148.691993,71.4264189 Z M133.833074,74.397973 L136.805203,74.397973 L136.805203,71.4258446 L133.833074,71.4258446 L133.833074,74.397973 Z M121.946284,74.3985473 L124.918412,74.3985473 L124.918412,71.4264189 L121.946284,71.4264189 L121.946284,74.3985473 Z M11.9918919,71.4264189 L11.9918919,74.397973 L11.9918919,77.369527 L11.9918919,80.3416554 L11.9918919,83.3132095 L14.9628716,83.3132095 L14.9628716,80.3416554 L17.935,80.3416554 L20.9065541,80.3416554 L20.9065541,77.369527 L20.9065541,74.397973 L20.9065541,71.4264189 L17.935,71.4264189 L17.935,68.4548649 L14.9628716,68.4548649 L14.9628716,71.4264189 L11.9918919,71.4264189 Z M136.805203,71.4264189 L139.776757,71.4264189 L139.776757,68.4548649 L136.805203,68.4548649 L136.805203,71.4264189 Z M124.918412,71.4264189 L127.889392,71.4264189 L127.889392,68.4548649 L130.86152,68.4548649 L133.833074,68.4548649 L133.833074,65.4827365 L133.833074,62.5111824 L130.86152,62.5111824 L130.86152,65.4827365 L127.889392,65.4827365 L124.918412,65.4827365 L124.918412,68.4548649 L124.918412,71.4264189 Z M116.002601,71.4264189 L118.97473,71.4264189 L118.97473,68.4548649 L116.002601,68.4548649 L116.002601,71.4264189 Z M89.2568919,68.4548649 L86.2853378,68.4548649 L86.2853378,71.4264189 L83.3132095,71.4264189 L83.3132095,74.397973 L86.2853378,74.397973 L89.2568919,74.397973 L89.2568919,71.4264189 L89.2568919,68.4548649 Z M23.8786824,71.4264189 L26.8502365,71.4264189 L26.8502365,68.4548649 L23.8786824,68.4548649 L23.8786824,71.4264189 Z M118.97473,68.4548649 L121.946284,68.4548649 L121.946284,65.4827365 L118.97473,65.4827365 L118.97473,68.4548649 Z M95.2,68.4548649 L98.1721284,68.4548649 L98.1721284,65.4827365 L95.2,65.4827365 L95.2,68.4548649 Z M89.2568919,68.4548649 L92.2290203,68.4548649 L92.2290203,65.4827365 L89.2568919,65.4827365 L89.2568919,68.4548649 Z M121.946284,65.4827365 L124.918412,65.4827365 L124.918412,62.5111824 L121.946284,62.5111824 L121.946284,65.4827365 Z M20.9065541,59.5390541 L23.8786824,59.5390541 L23.8786824,56.5675 L20.9065541,56.5675 L20.9065541,59.5390541 Z M17.935,53.5959459 L20.9065541,53.5959459 L20.9065541,50.6238176 L17.935,50.6238176 L17.935,53.5959459 Z M23.8786824,65.4827365 L23.8786824,68.4548649 L20.9065541,68.4548649 L20.9065541,65.4827365 L17.935,65.4827365 L17.935,62.5111824 L14.9628716,62.5111824 L14.9628716,65.4827365 L14.9628716,68.4548649 L11.9918919,68.4548649 L11.9918919,65.4827365 L11.9918919,62.5111824 L11.9918919,59.5390541 L14.9628716,59.5390541 L17.935,59.5390541 L17.935,56.5680743 L14.9628716,56.5680743 L14.9628716,53.5959459 L11.9918919,53.5959459 L11.9918919,50.6238176 L14.9628716,50.6238176 L14.9628716,47.6522635 L17.935,47.6522635 L20.9065541,47.6522635 L20.9065541,44.6801351 L23.8786824,44.6801351 L23.8786824,47.6522635 L23.8786824,50.6238176 L23.8786824,53.5959459 L26.8502365,53.5959459 L29.8223649,53.5959459 L32.7933446,53.5959459 L32.7933446,56.5680743 L29.8223649,56.5680743 L29.8223649,59.5390541 L32.7933446,59.5390541 L35.765473,59.5390541 L35.765473,62.5111824 L35.765473,65.4827365 L38.737027,65.4827365 L38.737027,68.4548649 L35.765473,68.4548649 L32.7933446,68.4548649 L29.8223649,68.4548649 L26.8502365,68.4548649 L26.8502365,65.4827365 L29.8223649,65.4827365 L32.7933446,65.4827365 L32.7933446,62.5111824 L29.8223649,62.5111824 L26.8502365,62.5111824 L23.8786824,62.5111824 L23.8786824,65.4827365 Z M142.748311,62.5111824 L145.719865,62.5111824 L145.719865,59.5390541 L142.748311,59.5390541 L142.748311,62.5111824 Z M118.97473,62.5111824 L121.946284,62.5111824 L121.946284,59.5390541 L118.97473,59.5390541 L118.97473,62.5111824 Z M107.087365,62.5111824 L110.059493,62.5111824 L110.059493,59.5390541 L107.087365,59.5390541 L107.087365,62.5111824 Z M89.2568919,62.5111824 L92.2290203,62.5111824 L95.2,62.5111824 L98.1721284,62.5111824 L98.1721284,59.5390541 L101.143682,59.5390541 L101.143682,56.5680743 L101.143682,53.5959459 L98.1721284,53.5959459 L98.1721284,56.5680743 L95.2,56.5680743 L95.2,59.5390541 L92.2290203,59.5390541 L89.2568919,59.5390541 L86.2853378,59.5390541 L83.3132095,59.5390541 L83.3132095,62.5111824 L86.2853378,62.5111824 L89.2568919,62.5111824 Z M74.3985473,62.5111824 L77.3701014,62.5111824 L77.3701014,59.5390541 L74.3985473,59.5390541 L74.3985473,62.5111824 Z M47.6522635,59.5390541 L47.6522635,56.5680743 L44.6807095,56.5680743 L44.6807095,53.5959459 L44.6807095,50.6238176 L41.7091554,50.6238176 L41.7091554,53.5959459 L38.737027,53.5959459 L35.765473,53.5959459 L35.765473,56.5680743 L38.737027,56.5680743 L38.737027,59.5390541 L41.7091554,59.5390541 L44.6807095,59.5390541 L44.6807095,62.5111824 L41.7091554,62.5111824 L41.7091554,65.4827365 L44.6807095,65.4827365 L47.6522635,65.4827365 L47.6522635,62.5111824 L47.6522635,59.5390541 Z M71.4264189,59.5396284 L74.3985473,59.5396284 L74.3985473,56.5680743 L71.4264189,56.5680743 L71.4264189,59.5396284 Z M65.4827365,59.5390541 L65.4827365,56.5680743 L62.5117568,56.5680743 L62.5117568,53.5959459 L59.5396284,53.5959459 L59.5396284,56.5680743 L59.5396284,59.5390541 L62.5117568,59.5390541 L65.4827365,59.5390541 Z M113.031047,56.5680743 L113.031047,59.5390541 L113.031047,62.5111824 L116.002601,62.5111824 L116.002601,59.5390541 L118.97473,59.5390541 L118.97473,56.5680743 L116.002601,56.5680743 L116.002601,53.5959459 L113.031047,53.5959459 L113.031047,56.5680743 Z M104.115811,53.5959459 L104.115811,56.5680743 L107.087365,56.5680743 L110.059493,56.5680743 L110.059493,53.5959459 L110.059493,50.6238176 L107.087365,50.6238176 L107.087365,53.5959459 L104.115811,53.5959459 Z M92.2290203,56.5680743 L95.2005743,56.5680743 L95.2005743,53.5959459 L92.2290203,53.5959459 L92.2290203,56.5680743 Z M83.3132095,56.5680743 L86.2853378,56.5680743 L86.2853378,53.5959459 L83.3132095,53.5959459 L83.3132095,56.5680743 Z M80.3416554,56.5680743 L80.3416554,53.5959459 L83.3132095,53.5959459 L83.3132095,50.6238176 L80.3416554,50.6238176 L77.3701014,50.6238176 L74.3985473,50.6238176 L74.3985473,47.6522635 L71.4264189,47.6522635 L71.4264189,50.6238176 L68.4548649,50.6238176 L65.4827365,50.6238176 L65.4827365,53.5959459 L68.4548649,53.5959459 L71.4264189,53.5959459 L74.3985473,53.5959459 L74.3985473,56.5680743 L77.3701014,56.5680743 L80.3416554,56.5680743 Z M53.5959459,56.5680743 L53.5959459,53.5959459 L56.5680743,53.5959459 L56.5680743,50.6238176 L53.5959459,50.6238176 L50.6238176,50.6238176 L50.6238176,53.5959459 L47.6522635,53.5959459 L47.6522635,56.5680743 L50.6238176,56.5680743 L53.5959459,56.5680743 Z M148.691993,53.5959459 L145.719865,53.5959459 L145.719865,50.6238176 L145.719865,47.6522635 L142.748885,47.6522635 L142.748885,44.6801351 L139.776757,44.6801351 L139.776757,41.7091554 L136.805203,41.7091554 L136.805203,44.6801351 L136.805203,47.6522635 L139.776757,47.6522635 L139.776757,50.6238176 L142.748885,50.6238176 L142.748885,53.5959459 L139.776757,53.5959459 L139.776757,56.5680743 L136.805203,56.5680743 L136.805203,53.5959459 L133.833074,53.5959459 L130.86152,53.5959459 L130.86152,56.5680743 L130.86152,59.5390541 L133.833074,59.5390541 L133.833074,62.5111824 L136.805203,62.5111824 L136.805203,65.4827365 L139.776757,65.4827365 L139.776757,68.4548649 L142.748885,68.4548649 L142.748885,65.4827365 L142.748885,62.5111824 L139.776757,62.5111824 L139.776757,59.5390541 L142.748885,59.5390541 L142.748885,56.5680743 L145.719865,56.5680743 L148.691993,56.5680743 L148.691993,59.5390541 L148.691993,62.5111824 L145.719865,62.5111824 L145.719865,65.4827365 L148.691993,65.4827365 L148.691993,68.4548649 L151.663547,68.4548649 L151.663547,71.4264189 L154.635676,71.4264189 L154.635676,68.4548649 L154.635676,65.4827365 L151.663547,65.4827365 L151.663547,62.5111824 L151.663547,59.5390541 L151.663547,56.5680743 L151.663547,53.5959459 L151.663547,50.6238176 L148.691993,50.6238176 L148.691993,53.5959459 Z M136.805203,53.5959459 L139.776757,53.5959459 L139.776757,50.6238176 L136.805203,50.6238176 L136.805203,53.5959459 Z M101.143682,53.5959459 L104.115811,53.5959459 L104.115811,50.6238176 L101.143682,50.6238176 L101.143682,53.5959459 Z M59.5396284,50.6238176 L62.5117568,50.6238176 L62.5117568,47.6522635 L59.5396284,47.6522635 L59.5396284,50.6238176 Z M44.6801351,50.6238176 L47.6522635,50.6238176 L47.6522635,47.6522635 L44.6801351,47.6522635 L44.6801351,50.6238176 Z M26.8502365,50.6238176 L29.8223649,50.6238176 L32.7933446,50.6238176 L32.7933446,53.5959459 L35.765473,53.5959459 L35.765473,50.6238176 L35.765473,47.6522635 L32.7933446,47.6522635 L29.8223649,47.6522635 L29.8223649,44.6801351 L26.8502365,44.6801351 L26.8502365,47.6522635 L26.8502365,50.6238176 Z M62.5111824,47.6522635 L65.4827365,47.6522635 L65.4827365,44.6801351 L62.5111824,44.6801351 L62.5111824,47.6522635 Z M56.5680743,47.6522635 L59.5396284,47.6522635 L59.5396284,44.6801351 L59.5396284,41.7091554 L56.5680743,41.7091554 L56.5680743,44.6801351 L53.5959459,44.6801351 L53.5959459,47.6522635 L56.5680743,47.6522635 Z M47.6522635,47.6522635 L50.6238176,47.6522635 L50.6238176,44.6801351 L47.6522635,44.6801351 L47.6522635,47.6522635 Z M148.691993,41.7091554 L145.719865,41.7091554 L145.719865,38.737027 L142.748885,38.737027 L139.776757,38.737027 L139.776757,41.7091554 L142.748885,41.7091554 L142.748885,44.6801351 L145.719865,44.6801351 L148.691993,44.6801351 L148.691993,47.6522635 L151.663547,47.6522635 L151.663547,50.6238176 L154.635676,50.6238176 L154.635676,53.5959459 L154.635676,56.5680743 L154.635676,59.5390541 L154.635676,62.5111824 L157.60723,62.5111824 L157.60723,59.5390541 L157.60723,56.5680743 L157.60723,53.5959459 L157.60723,50.6238176 L157.60723,47.6522635 L157.60723,44.6801351 L154.635676,44.6801351 L154.635676,41.7091554 L151.663547,41.7091554 L148.691993,41.7091554 Z M74.3985473,44.6801351 L74.3985473,41.7091554 L74.3985473,38.737027 L71.4264189,38.737027 L71.4264189,41.7091554 L68.4548649,41.7091554 L68.4548649,44.6801351 L68.4548649,47.6522635 L71.4264189,47.6522635 L71.4264189,44.6801351 L74.3985473,44.6801351 Z M53.5959459,41.7091554 L53.5959459,38.737027 L56.5680743,38.737027 L56.5680743,35.765473 L53.5959459,35.765473 L53.5959459,32.7939189 L50.6238176,32.7939189 L50.6238176,35.765473 L50.6238176,38.737027 L50.6238176,41.7091554 L50.6238176,44.6801351 L53.5959459,44.6801351 L53.5959459,41.7091554 Z M44.6801351,44.6807095 L47.6522635,44.6807095 L47.6522635,41.7091554 L44.6801351,41.7091554 L44.6801351,44.6807095 Z M17.935,44.6801351 L20.9065541,44.6801351 L20.9065541,41.7085811 L17.935,41.7085811 L17.935,44.6801351 Z M23.8786824,44.6807095 L26.8502365,44.6807095 L26.8502365,41.7091554 L23.8786824,41.7091554 L23.8786824,44.6807095 Z M29.8217905,44.6807095 L32.7933446,44.6807095 L32.7933446,41.7091554 L29.8217905,41.7091554 L29.8217905,44.6807095 Z M38.737027,44.6801351 L38.737027,47.6522635 L38.737027,50.6238176 L41.7091554,50.6238176 L41.7091554,47.6522635 L41.7091554,44.6801351 L41.7091554,41.7091554 L38.737027,41.7091554 L35.765473,41.7091554 L35.765473,44.6801351 L38.737027,44.6801351 Z M133.833074,41.7091554 L136.805203,41.7091554 L136.805203,38.7376014 L133.833074,38.7376014 L133.833074,41.7091554 Z M116.002601,38.737027 L116.002601,41.7091554 L116.002601,44.6801351 L118.97473,44.6801351 L118.97473,41.7091554 L121.946284,41.7091554 L121.946284,38.737027 L118.97473,38.737027 L116.002601,38.737027 Z M44.6807095,38.737027 L47.6522635,38.737027 L47.6522635,35.765473 L44.6807095,35.765473 L44.6807095,32.7939189 L44.6807095,29.8217905 L44.6807095,26.8502365 L41.7091554,26.8502365 L38.737027,26.8502365 L38.737027,29.8217905 L41.7091554,29.8217905 L41.7091554,32.7939189 L41.7091554,35.765473 L38.737027,35.765473 L38.737027,38.737027 L41.7091554,38.737027 L41.7091554,41.7091554 L44.6807095,41.7091554 L44.6807095,38.737027 Z M14.9628716,38.737027 L17.935,38.737027 L17.935,35.765473 L14.9628716,35.765473 L11.9918919,35.765473 L11.9918919,38.737027 L11.9918919,41.7091554 L14.9628716,41.7091554 L14.9628716,38.737027 Z M23.8786824,38.737027 L26.8502365,38.737027 L26.8502365,35.765473 L23.8786824,35.765473 L20.9065541,35.765473 L20.9065541,38.737027 L20.9065541,41.7091554 L23.8786824,41.7091554 L23.8786824,38.737027 Z M32.7933446,41.7085811 L35.765473,41.7085811 L35.765473,38.737027 L32.7933446,38.737027 L32.7933446,41.7085811 Z M154.635676,38.737027 L154.635676,41.7091554 L157.60723,41.7091554 L157.60723,38.737027 L157.60723,35.765473 L154.635676,35.765473 L154.635676,38.737027 Z M136.805203,38.737027 L139.776757,38.737027 L139.776757,35.765473 L136.805203,35.765473 L136.805203,38.737027 Z M121.946284,38.737027 L124.918412,38.737027 L124.918412,35.765473 L121.946284,35.765473 L121.946284,38.737027 Z M29.8223649,38.737027 L32.7939189,38.737027 L32.7939189,35.765473 L29.8223649,35.765473 L29.8223649,38.737027 Z M116.002601,32.7939189 L116.002601,35.765473 L118.97473,35.765473 L121.946284,35.765473 L121.946284,32.7939189 L121.946284,29.8217905 L118.97473,29.8217905 L118.97473,32.7939189 L116.002601,32.7939189 Z M130.86152,32.7933446 L133.833074,32.7933446 L133.833074,29.8217905 L130.86152,29.8217905 L130.86152,32.7933446 Z M113.031047,32.7933446 L116.002601,32.7933446 L116.002601,29.8217905 L113.031047,29.8217905 L113.031047,32.7933446 Z M83.3132095,32.7933446 L86.2853378,32.7933446 L86.2853378,29.8217905 L83.3132095,29.8217905 L83.3132095,32.7933446 Z M80.3416554,26.8502365 L80.3416554,29.8217905 L80.3416554,32.7939189 L80.3416554,35.765473 L83.3132095,35.765473 L86.2853378,35.765473 L89.2568919,35.765473 L89.2568919,32.7939189 L89.2568919,29.8217905 L89.2568919,26.8502365 L86.2853378,26.8502365 L83.3132095,26.8502365 L80.3416554,26.8502365 Z M92.2290203,32.7939189 L95.2005743,32.7939189 L95.2005743,29.8223649 L92.2290203,29.8223649 L92.2290203,32.7939189 Z M80.3416554,41.7085811 L83.3132095,41.7085811 L83.3132095,38.737027 L80.3416554,38.737027 L80.3416554,41.7085811 Z M71.4264189,29.8217905 L71.4264189,26.8502365 L74.3985473,26.8502365 L77.3701014,26.8502365 L77.3701014,23.8781081 L77.3701014,20.9065541 L77.3701014,17.9344257 L80.3416554,17.9344257 L83.3132095,17.9344257 L83.3132095,20.9065541 L86.2853378,20.9065541 L86.2853378,23.8781081 L89.2568919,23.8781081 L89.2568919,20.9065541 L86.2853378,20.9065541 L86.2853378,17.9344257 L89.2568919,17.9344257 L92.2290203,17.9344257 L92.2290203,20.9065541 L92.2290203,23.8781081 L92.2290203,26.8502365 L95.2,26.8502365 L95.2,23.8781081 L98.1721284,23.8781081 L98.1721284,20.9065541 L98.1721284,17.9344257 L101.143682,17.9344257 L104.115811,17.9344257 L104.115811,20.9065541 L101.143682,20.9065541 L101.143682,23.8781081 L101.143682,26.8502365 L98.1721284,26.8502365 L98.1721284,29.8217905 L98.1721284,32.7939189 L98.1721284,35.765473 L98.1721284,38.737027 L101.143682,38.737027 L101.143682,35.765473 L101.143682,32.7939189 L101.143682,29.8217905 L101.143682,26.8502365 L104.115811,26.8502365 L104.115811,29.8217905 L104.115811,32.7939189 L104.115811,35.765473 L107.087365,35.765473 L107.087365,32.7939189 L107.087365,29.8217905 L110.059493,29.8217905 L110.059493,32.7939189 L113.031047,32.7939189 L113.031047,35.765473 L113.031047,38.737027 L113.031047,41.7091554 L110.059493,41.7091554 L107.087365,41.7091554 L104.115811,41.7091554 L104.115811,44.6801351 L107.087365,44.6801351 L110.059493,44.6801351 L113.031047,44.6801351 L113.031047,47.6522635 L116.002601,47.6522635 L118.97473,47.6522635 L121.946284,47.6522635 L124.918412,47.6522635 L124.918412,44.6801351 L124.918412,41.7091554 L124.918412,38.737027 L127.889392,38.737027 L127.889392,41.7091554 L130.86152,41.7091554 L130.86152,44.6801351 L133.833074,44.6801351 L133.833074,47.6522635 L133.833074,50.6238176 L130.86152,50.6238176 L130.86152,47.6522635 L127.889392,47.6522635 L127.889392,50.6238176 L127.889392,53.5959459 L127.889392,56.5680743 L127.889392,59.5390541 L124.918412,59.5390541 L121.946284,59.5390541 L121.946284,56.5680743 L124.918412,56.5680743 L124.918412,53.5959459 L121.946284,53.5959459 L118.97473,53.5959459 L116.002601,53.5959459 L116.002601,50.6238176 L113.031047,50.6238176 L110.059493,50.6238176 L110.059493,47.6522635 L107.087365,47.6522635 L107.087365,50.6238176 L104.115811,50.6238176 L104.115811,47.6522635 L101.143682,47.6522635 L101.143682,44.6801351 L101.143682,41.7091554 L98.1721284,41.7091554 L98.1721284,44.6801351 L98.1721284,47.6522635 L95.2,47.6522635 L95.2,50.6238176 L92.2290203,50.6238176 L92.2290203,47.6522635 L92.2290203,44.6801351 L92.2290203,41.7091554 L95.2,41.7091554 L95.2,38.737027 L92.2290203,38.737027 L89.2568919,38.737027 L86.2853378,38.737027 L86.2853378,41.7091554 L89.2568919,41.7091554 L89.2568919,44.6801351 L89.2568919,47.6522635 L89.2568919,50.6238176 L86.2853378,50.6238176 L83.3132095,50.6238176 L83.3132095,47.6522635 L80.3416554,47.6522635 L77.3701014,47.6522635 L77.3701014,44.6801351 L77.3701014,41.7091554 L77.3701014,38.737027 L74.3985473,38.737027 L74.3985473,35.765473 L74.3985473,32.7939189 L77.3701014,32.7939189 L77.3701014,29.8217905 L74.3985473,29.8217905 L74.3985473,32.7939189 L71.4264189,32.7939189 L71.4264189,29.8217905 Z M62.5117568,29.8217905 L59.5396284,29.8217905 L59.5396284,32.7939189 L56.5680743,32.7939189 L56.5680743,35.765473 L59.5396284,35.765473 L62.5117568,35.765473 L62.5117568,32.7939189 L62.5117568,29.8217905 Z M53.5959459,32.7933446 L56.5680743,32.7933446 L56.5680743,29.8217905 L53.5959459,29.8217905 L53.5959459,32.7933446 Z M14.9628716,29.8217905 L17.935,29.8217905 L20.9065541,29.8217905 L23.8786824,29.8217905 L26.8502365,29.8217905 L29.8223649,29.8217905 L29.8223649,26.8502365 L29.8223649,23.8781081 L29.8223649,20.9065541 L29.8223649,17.9344257 L29.8223649,14.9628716 L26.8502365,14.9628716 L23.8786824,14.9628716 L20.9065541,14.9628716 L17.935,14.9628716 L14.9628716,14.9628716 L14.9628716,17.9344257 L14.9628716,20.9065541 L14.9628716,23.8781081 L14.9628716,26.8502365 L14.9628716,29.8217905 Z M14.9628716,32.7939189 L11.9918919,32.7939189 L11.9918919,29.8217905 L11.9918919,26.8502365 L11.9918919,23.8781081 L11.9918919,20.9065541 L11.9918919,17.9344257 L11.9918919,14.9628716 L11.9918919,11.9913176 L14.9628716,11.9913176 L17.935,11.9913176 L20.9065541,11.9913176 L23.8786824,11.9913176 L26.8502365,11.9913176 L29.8223649,11.9913176 L32.7933446,11.9913176 L32.7933446,14.9628716 L32.7933446,17.9344257 L32.7933446,20.9065541 L32.7933446,23.8781081 L32.7933446,26.8502365 L32.7933446,29.8217905 L32.7933446,32.7939189 L29.8223649,32.7939189 L26.8502365,32.7939189 L23.8786824,32.7939189 L20.9065541,32.7939189 L17.935,32.7939189 L14.9628716,32.7939189 Z M38.737027,29.8217905 L35.765473,29.8217905 L35.765473,32.7939189 L35.765473,35.765473 L38.737027,35.765473 L38.737027,32.7939189 L38.737027,29.8217905 Z M50.6238176,26.8502365 L53.5959459,26.8502365 L56.5680743,26.8502365 L56.5680743,23.8781081 L56.5680743,20.9065541 L53.5959459,20.9065541 L53.5959459,23.8781081 L50.6238176,23.8781081 L47.6522635,23.8781081 L47.6522635,26.8502365 L47.6522635,29.8217905 L47.6522635,32.7939189 L50.6238176,32.7939189 L50.6238176,29.8217905 L50.6238176,26.8502365 Z M110.059493,26.8502365 L110.059493,29.8217905 L113.031047,29.8217905 L113.031047,26.8502365 L116.002601,26.8502365 L116.002601,29.8217905 L118.97473,29.8217905 L118.97473,26.8502365 L121.946284,26.8502365 L121.946284,29.8217905 L124.918412,29.8217905 L124.918412,32.7939189 L124.918412,35.765473 L127.889392,35.765473 L130.86152,35.765473 L130.86152,32.7939189 L127.889392,32.7939189 L127.889392,29.8217905 L127.889392,26.8502365 L124.918412,26.8502365 L124.918412,23.8781081 L121.946284,23.8781081 L121.946284,20.9065541 L118.97473,20.9065541 L118.97473,23.8781081 L116.002601,23.8781081 L116.002601,20.9065541 L118.97473,20.9065541 L118.97473,17.9344257 L118.97473,14.9628716 L116.002601,14.9628716 L113.031047,14.9628716 L113.031047,17.9344257 L113.031047,20.9065541 L113.031047,23.8781081 L110.059493,23.8781081 L107.087365,23.8781081 L104.115811,23.8781081 L104.115811,26.8502365 L107.087365,26.8502365 L110.059493,26.8502365 Z M23.8786824,26.8502365 L26.8502365,26.8502365 L26.8502365,23.8781081 L26.8502365,20.9065541 L26.8502365,17.9344257 L23.8786824,17.9344257 L20.9065541,17.9344257 L17.935,17.9344257 L17.935,20.9065541 L17.935,23.8781081 L17.935,26.8502365 L20.9065541,26.8502365 L23.8786824,26.8502365 Z M71.4264189,23.8781081 L74.3985473,23.8781081 L74.3985473,20.9065541 L71.4264189,20.9065541 L71.4264189,23.8781081 Z M59.5396284,23.8781081 L59.5396284,26.8502365 L62.5117568,26.8502365 L62.5117568,23.8781081 L62.5117568,20.9065541 L65.4827365,20.9065541 L65.4827365,23.8781081 L65.4827365,26.8502365 L62.5117568,26.8502365 L62.5117568,29.8217905 L65.4827365,29.8217905 L65.4827365,32.7939189 L65.4827365,35.765473 L62.5117568,35.765473 L62.5117568,38.737027 L65.4827365,38.737027 L68.4548649,38.737027 L68.4548649,35.765473 L68.4548649,32.7939189 L68.4548649,29.8217905 L68.4548649,26.8502365 L71.4264189,26.8502365 L71.4264189,23.8781081 L68.4548649,23.8781081 L68.4548649,20.9065541 L68.4548649,17.9344257 L71.4264189,17.9344257 L74.3985473,17.9344257 L74.3985473,14.9628716 L77.3701014,14.9628716 L80.3416554,14.9628716 L83.3132095,14.9628716 L83.3132095,11.9913176 L80.3416554,11.9913176 L77.3701014,11.9913176 L74.3985473,11.9913176 L71.4264189,11.9913176 L68.4548649,11.9913176 L68.4548649,14.9628716 L65.4827365,14.9628716 L65.4827365,17.9344257 L62.5117568,17.9344257 L59.5396284,17.9344257 L56.5680743,17.9344257 L56.5680743,20.9065541 L59.5396284,20.9065541 L59.5396284,23.8781081 Z M44.6807095,23.8781081 L47.6528378,23.8781081 L47.6528378,20.9065541 L44.6807095,20.9065541 L44.6807095,23.8781081 Z M145.719865,17.9344257 L142.748885,17.9344257 L142.748885,20.9065541 L142.748885,23.8781081 L142.748885,26.8502365 L145.719865,26.8502365 L148.691993,26.8502365 L151.663547,26.8502365 L151.663547,23.8781081 L151.663547,20.9065541 L151.663547,17.9344257 L148.691993,17.9344257 L145.719865,17.9344257 Z M127.889392,20.9065541 L127.889392,23.8781081 L130.86152,23.8781081 L130.86152,20.9065541 L133.833074,20.9065541 L133.833074,17.9344257 L133.833074,14.9628716 L133.833074,11.9913176 L130.86152,11.9913176 L130.86152,14.9628716 L127.889392,14.9628716 L124.918412,14.9628716 L124.918412,17.9344257 L127.889392,17.9344257 L127.889392,20.9065541 Z M121.946284,20.9059797 L124.918412,20.9059797 L124.918412,17.9344257 L121.946284,17.9344257 L121.946284,20.9059797 Z M107.087365,20.9065541 L110.059493,20.9065541 L110.059493,17.9344257 L110.059493,14.9628716 L110.059493,11.9913176 L107.087365,11.9913176 L104.115811,11.9913176 L104.115811,14.9628716 L104.115811,17.9344257 L107.087365,17.9344257 L107.087365,20.9065541 Z M38.737027,20.9065541 L38.737027,23.8781081 L41.7091554,23.8781081 L41.7091554,20.9065541 L41.7091554,17.9344257 L38.737027,17.9344257 L38.737027,20.9065541 Z M53.5959459,14.9628716 L50.6238176,14.9628716 L50.6238176,11.9913176 L47.6522635,11.9913176 L44.6807095,11.9913176 L44.6807095,14.9628716 L47.6522635,14.9628716 L47.6522635,17.9344257 L50.6238176,17.9344257 L53.5959459,17.9344257 L56.5680743,17.9344257 L56.5680743,14.9628716 L53.5959459,14.9628716 Z M154.635676,14.9628716 L151.663547,14.9628716 L148.691993,14.9628716 L145.719865,14.9628716 L142.748885,14.9628716 L139.776757,14.9628716 L139.776757,17.9344257 L139.776757,20.9065541 L139.776757,23.8781081 L139.776757,26.8502365 L139.776757,29.8217905 L142.748885,29.8217905 L145.719865,29.8217905 L148.691993,29.8217905 L151.663547,29.8217905 L154.635676,29.8217905 L154.635676,26.8502365 L154.635676,23.8781081 L154.635676,20.9065541 L154.635676,17.9344257 L154.635676,14.9628716 Z M157.60723,11.9913176 L157.60723,14.9628716 L157.60723,17.9344257 L157.60723,20.9065541 L157.60723,23.8781081 L157.60723,26.8502365 L157.60723,29.8217905 L157.60723,32.7939189 L154.635676,32.7939189 L151.663547,32.7939189 L148.691993,32.7939189 L145.719865,32.7939189 L142.748885,32.7939189 L139.776757,32.7939189 L136.805203,32.7939189 L136.805203,29.8217905 L136.805203,26.8502365 L136.805203,23.8781081 L136.805203,20.9065541 L136.805203,17.9344257 L136.805203,14.9628716 L136.805203,11.9913176 L139.776757,11.9913176 L142.748885,11.9913176 L145.719865,11.9913176 L148.691993,11.9913176 L151.663547,11.9913176 L154.635676,11.9913176 L157.60723,11.9913176 Z M92.2290203,14.9628716 L92.2290203,11.9913176 L89.2568919,11.9913176 L86.2853378,11.9913176 L86.2853378,14.9628716 L89.2568919,14.9628716 L92.2290203,14.9628716 Z M56.5680743,14.9628716 L59.5396284,14.9628716 L59.5396284,11.9913176 L56.5680743,11.9913176 L56.5680743,14.9628716 Z M38.737027,14.9628716 L35.765473,14.9628716 L35.765473,11.9913176 L38.737027,11.9913176 L41.7091554,11.9913176 L41.7091554,14.9628716 L38.737027,14.9628716 Z" id="Fill-2" fill="#231F20"></path>
                    <polygon id="Fill-1" fill="#FEFEFE" opacity="0.9" points="0 169.598547 169.599122 169.598547 169.599122 -0.000574324324 0 -0.000574324324"></polygon>
                </g>
                <circle id="Oval" fill="#1BDAAE" opacity="0.860119048" cx="84.7416413" cy="84.7416413" r="72.8571429"></circle>
                <path d="M53.8987842,97.7835866 C54.5257345,97.7835866 55.0941236,97.6733536 55.6039514,97.4528875 C56.1137791,97.2324215 56.5409321,96.9120567 56.8854103,96.4917933 L56.8854103,96.4917933 L55.8106383,95.499696 C55.3214792,96.0715299 54.7151976,96.3574468 53.9917933,96.3574468 C53.5439716,96.3574468 53.1443769,96.2592705 52.7930091,96.0629179 C52.4416413,95.8665653 52.1677812,95.5927052 51.9714286,95.2413374 C51.775076,94.8899696 51.6768997,94.4903749 51.6768997,94.0425532 C51.6768997,93.5947315 51.775076,93.1951368 51.9714286,92.843769 C52.1677812,92.4924012 52.4416413,92.218541 52.7930091,92.0221884 C53.1443769,91.8258359 53.5439716,91.7276596 53.9917933,91.7276596 C54.7151976,91.7276596 55.3214792,92.0101317 55.8106383,92.575076 L55.8106383,92.575076 L56.8854103,91.5829787 C56.5409321,91.1696049 56.1155015,90.8526849 55.6091185,90.6322188 C55.1027356,90.4117528 54.5360689,90.3015198 53.9091185,90.3015198 C53.1650456,90.3015198 52.4950355,90.4617021 51.8990881,90.7820669 C51.3031408,91.1024316 50.8346505,91.5468085 50.493617,92.1151976 C50.1525836,92.6835866 49.9820669,93.3260385 49.9820669,94.0425532 C49.9820669,94.7590679 50.1525836,95.4015198 50.493617,95.9699088 C50.8346505,96.5382979 51.3031408,96.9826748 51.8990881,97.3030395 C52.4950355,97.6234043 53.1616008,97.7835866 53.8987842,97.7835866 Z M63.3133739,97.6595745 L63.3133739,96.2954407 L59.6860182,96.2954407 L59.6860182,90.4255319 L58.0118541,90.4255319 L58.0118541,97.6595745 L63.3133739,97.6595745 Z M65.9279635,97.6595745 L65.9279635,90.4255319 L64.2537994,90.4255319 L64.2537994,97.6595745 L65.9279635,97.6595745 Z M73.5133739,99.3234043 C73.9129686,99.3234043 74.2798379,99.247619 74.6139818,99.0960486 C74.9481256,98.9444782 75.2323202,98.7240122 75.4665653,98.4346505 L75.4665653,98.4346505 L74.7224924,97.5458967 C74.3849037,97.904154 73.9921986,98.0832827 73.5443769,98.0832827 C73.3583587,98.0832827 73.1843972,98.0436677 73.0224924,97.9644377 C72.8605876,97.8852077 72.6935157,97.7560284 72.5212766,97.5768997 C73.2997974,97.3288754 73.9250253,96.8879433 74.3969605,96.2541033 C74.8688956,95.6202634 75.1048632,94.88308 75.1048632,94.0425532 C75.1048632,93.3329281 74.9326241,92.693921 74.5881459,92.1255319 C74.2436677,91.5571429 73.7717325,91.1110436 73.1723404,90.787234 C72.5729483,90.4634245 71.897771,90.3015198 71.1468085,90.3015198 C70.395846,90.3015198 69.7189463,90.4634245 69.1161094,90.787234 C68.5132725,91.1110436 68.0413374,91.5571429 67.700304,92.1255319 C67.3592705,92.693921 67.1887538,93.3329281 67.1887538,94.0425532 C67.1887538,94.6901722 67.3317123,95.2809524 67.6176292,95.8148936 C67.9035461,96.3488349 68.3031408,96.7845998 68.8164134,97.1221884 C69.3296859,97.4597771 69.9135765,97.6699088 70.5680851,97.7525836 C71.1261398,98.3381966 71.6221884,98.7464032 72.056231,98.9772036 C72.4902736,99.2080041 72.9759878,99.3234043 73.5133739,99.3234043 Z M71.1468085,96.3574468 C70.7196555,96.3574468 70.3338399,96.2592705 69.9893617,96.0629179 C69.6448835,95.8665653 69.3744681,95.5927052 69.1781155,95.2413374 C68.9817629,94.8899696 68.8835866,94.4903749 68.8835866,94.0425532 C68.8835866,93.5947315 68.9817629,93.1951368 69.1781155,92.843769 C69.3744681,92.4924012 69.6448835,92.218541 69.9893617,92.0221884 C70.3338399,91.8258359 70.7196555,91.7276596 71.1468085,91.7276596 C71.5739615,91.7276596 71.9597771,91.8258359 72.3042553,92.0221884 C72.6487335,92.218541 72.9191489,92.4924012 73.1155015,92.843769 C73.3118541,93.1951368 73.4100304,93.5947315 73.4100304,94.0425532 C73.4100304,94.4903749 73.3118541,94.8899696 73.1155015,95.2413374 C72.9191489,95.5927052 72.6487335,95.8665653 72.3042553,96.0629179 C71.9597771,96.2592705 71.5739615,96.3574468 71.1468085,96.3574468 Z M79.5796353,97.7835866 C80.6130699,97.7835866 81.4174265,97.4976697 81.9927052,96.9258359 C82.5679838,96.354002 82.8556231,95.5375887 82.8556231,94.4765957 L82.8556231,94.4765957 L82.8556231,90.4255319 L81.2021277,90.4255319 L81.2021277,94.4145897 C81.2021277,95.0828774 81.0643364,95.5737589 80.7887538,95.887234 C80.5131712,96.2007092 80.1135765,96.3574468 79.5899696,96.3574468 C78.5151976,96.3574468 77.9778116,95.7098278 77.9778116,94.4145897 L77.9778116,94.4145897 L77.9778116,90.4255319 L76.3036474,90.4255319 L76.3036474,94.4765957 C76.3036474,95.5375887 76.5912867,96.354002 77.1665653,96.9258359 C77.741844,97.4976697 78.5462006,97.7835866 79.5796353,97.7835866 Z M90.1103343,97.6595745 L90.1103343,96.3161094 L86.1729483,96.3161094 L86.1729483,94.6419453 L89.5316109,94.6419453 L89.5316109,93.3398176 L86.1729483,93.3398176 L86.1729483,91.768997 L89.9759878,91.768997 L89.9759878,90.4255319 L84.5091185,90.4255319 L84.5091185,97.6595745 L90.1103343,97.6595745 Z M96.0422492,97.6595745 L96.0422492,95.6650456 L97.4993921,95.6650456 C98.1401216,95.6650456 98.6964539,95.5599797 99.1683891,95.349848 C99.6403242,95.1397163 100.003749,94.8365755 100.258663,94.4404255 C100.513576,94.0442756 100.641033,93.5809524 100.641033,93.0504559 C100.641033,92.5130699 100.513576,92.0480243 100.258663,91.6553191 C100.003749,91.262614 99.6403242,90.9594732 99.1683891,90.7458967 C98.6964539,90.5323202 98.1401216,90.4255319 97.4993921,90.4255319 L97.4993921,90.4255319 L94.3680851,90.4255319 L94.3680851,97.6595745 L96.0422492,97.6595745 Z M97.406383,94.3009119 L96.0422492,94.3009119 L96.0422492,91.7896657 L97.406383,91.7896657 C97.9093212,91.7896657 98.291692,91.8981763 98.5534954,92.1151976 C98.8152989,92.3322188 98.9462006,92.6439716 98.9462006,93.0504559 C98.9462006,93.4500507 98.8152989,93.7583587 98.5534954,93.9753799 C98.291692,94.1924012 97.9093212,94.3009119 97.406383,94.3009119 L97.406383,94.3009119 Z M102.232523,97.6595745 L102.873252,96.1094225 L106.231915,96.1094225 L106.872644,97.6595745 L108.629483,97.6595745 L105.394833,90.4255319 L103.741337,90.4255319 L100.517021,97.6595745 L102.232523,97.6595745 Z M105.704863,94.8382979 L103.410638,94.8382979 L104.557751,92.068693 L105.704863,94.8382979 Z M111.058055,97.6595745 L111.058055,95.6443769 L112.597872,95.6443769 L113.993009,97.6595745 L115.791185,97.6595745 L114.168693,95.3343465 C114.644073,95.1276596 115.010942,94.8296859 115.269301,94.4404255 C115.52766,94.0511651 115.656839,93.5878419 115.656839,93.0504559 C115.656839,92.5130699 115.529382,92.0480243 115.274468,91.6553191 C115.019554,91.262614 114.65613,90.9594732 114.184195,90.7458967 C113.712259,90.5323202 113.155927,90.4255319 112.515198,90.4255319 L112.515198,90.4255319 L109.383891,90.4255319 L109.383891,97.6595745 L111.058055,97.6595745 Z M112.422188,94.3112462 L111.058055,94.3112462 L111.058055,91.7896657 L112.422188,91.7896657 C112.925127,91.7896657 113.307497,91.8981763 113.569301,92.1151976 C113.831104,92.3322188 113.962006,92.6439716 113.962006,93.0504559 C113.962006,93.4500507 113.831104,93.7600811 113.569301,93.9805471 C113.307497,94.2010132 112.925127,94.3112462 112.422188,94.3112462 L112.422188,94.3112462 Z M117.744377,97.6595745 L118.385106,96.1094225 L121.743769,96.1094225 L122.384498,97.6595745 L124.141337,97.6595745 L120.906687,90.4255319 L119.253191,90.4255319 L116.028875,97.6595745 L117.744377,97.6595745 Z M121.216717,94.8382979 L118.922492,94.8382979 L120.069605,92.068693 L121.216717,94.8382979 Z M51.6200608,113.161094 L51.6200608,111.145897 L53.1598784,111.145897 L54.5550152,113.161094 L56.3531915,113.161094 L54.7306991,110.835866 C55.206079,110.629179 55.5729483,110.331206 55.831307,109.941945 C56.0896657,109.552685 56.218845,109.089362 56.218845,108.551976 C56.218845,108.01459 56.091388,107.549544 55.8364742,107.156839 C55.5815603,106.764134 55.2181358,106.460993 54.7462006,106.247416 C54.2742655,106.03384 53.7179331,105.927052 53.0772036,105.927052 L53.0772036,105.927052 L49.9458967,105.927052 L49.9458967,113.161094 L51.6200608,113.161094 Z M52.9841945,109.812766 L51.6200608,109.812766 L51.6200608,107.291185 L52.9841945,107.291185 C53.4871327,107.291185 53.8695035,107.399696 54.131307,107.616717 C54.3931104,107.833739 54.5240122,108.145491 54.5240122,108.551976 C54.5240122,108.95157 54.3931104,109.261601 54.131307,109.482067 C53.8695035,109.702533 53.4871327,109.812766 52.9841945,109.812766 L52.9841945,109.812766 Z M63.1428571,113.161094 L63.1428571,111.817629 L59.2054711,111.817629 L59.2054711,110.143465 L62.5641337,110.143465 L62.5641337,108.841337 L59.2054711,108.841337 L59.2054711,107.270517 L63.0085106,107.270517 L63.0085106,105.927052 L57.5416413,105.927052 L57.5416413,113.161094 L63.1428571,113.161094 Z M67.9173252,113.285106 C68.5442756,113.285106 69.1126646,113.174873 69.6224924,112.954407 C70.1323202,112.733941 70.5594732,112.413576 70.9039514,111.993313 L70.9039514,111.993313 L69.8291793,111.001216 C69.3400203,111.57305 68.7337386,111.858967 68.0103343,111.858967 C67.5625127,111.858967 67.1629179,111.76079 66.8115502,111.564438 C66.4601824,111.368085 66.1863222,111.094225 65.9899696,110.742857 C65.793617,110.391489 65.6954407,109.991895 65.6954407,109.544073 C65.6954407,109.096251 65.793617,108.696657 65.9899696,108.345289 C66.1863222,107.993921 66.4601824,107.720061 66.8115502,107.523708 C67.1629179,107.327356 67.5625127,107.229179 68.0103343,107.229179 C68.7337386,107.229179 69.3400203,107.511651 69.8291793,108.076596 L69.8291793,108.076596 L70.9039514,107.084498 C70.5594732,106.671125 70.1340426,106.354205 69.6276596,106.133739 C69.1212766,105.913273 68.5546099,105.80304 67.9276596,105.80304 C67.1835866,105.80304 66.5135765,105.963222 65.9176292,106.283587 C65.3216819,106.603951 64.8531915,107.048328 64.5121581,107.616717 C64.1711246,108.185106 64.0006079,108.827558 64.0006079,109.544073 C64.0006079,110.260588 64.1711246,110.90304 64.5121581,111.471429 C64.8531915,112.039818 65.3216819,112.484195 65.9176292,112.804559 C66.5135765,113.124924 67.1801418,113.285106 67.9173252,113.285106 Z M72.6504559,113.161094 L73.2911854,111.610942 L76.649848,111.610942 L77.2905775,113.161094 L79.0474164,113.161094 L75.812766,105.927052 L74.1592705,105.927052 L70.9349544,113.161094 L72.6504559,113.161094 Z M76.1227964,110.339818 L73.8285714,110.339818 L74.9756839,107.570213 L76.1227964,110.339818 Z M81.4759878,113.161094 L81.4759878,111.145897 L83.0158055,111.145897 L84.4109422,113.161094 L86.2091185,113.161094 L84.5866261,110.835866 C85.0620061,110.629179 85.4288754,110.331206 85.687234,109.941945 C85.9455927,109.552685 86.074772,109.089362 86.074772,108.551976 C86.074772,108.01459 85.9473151,107.549544 85.6924012,107.156839 C85.4374873,106.764134 85.0740628,106.460993 84.6021277,106.247416 C84.1301925,106.03384 83.5738602,105.927052 82.9331307,105.927052 L82.9331307,105.927052 L79.8018237,105.927052 L79.8018237,113.161094 L81.4759878,113.161094 Z M82.8401216,109.812766 L81.4759878,109.812766 L81.4759878,107.291185 L82.8401216,107.291185 C83.3430598,107.291185 83.7254306,107.399696 83.987234,107.616717 C84.2490375,107.833739 84.3799392,108.145491 84.3799392,108.551976 C84.3799392,108.95157 84.2490375,109.261601 83.987234,109.482067 C83.7254306,109.702533 83.3430598,109.812766 82.8401216,109.812766 L82.8401216,109.812766 Z M89.0717325,113.161094 L89.0717325,111.145897 L90.6115502,111.145897 L92.0066869,113.161094 L93.8048632,113.161094 L92.1823708,110.835866 C92.6577508,110.629179 93.0246201,110.331206 93.2829787,109.941945 C93.5413374,109.552685 93.6705167,109.089362 93.6705167,108.551976 C93.6705167,108.01459 93.5430598,107.549544 93.2881459,107.156839 C93.033232,106.764134 92.6698075,106.460993 92.1978723,106.247416 C91.7259372,106.03384 91.1696049,105.927052 90.5288754,105.927052 L90.5288754,105.927052 L87.3975684,105.927052 L87.3975684,113.161094 L89.0717325,113.161094 Z M90.4358663,109.812766 L89.0717325,109.812766 L89.0717325,107.291185 L90.4358663,107.291185 C90.9388045,107.291185 91.3211753,107.399696 91.5829787,107.616717 C91.8447822,107.833739 91.9756839,108.145491 91.9756839,108.551976 C91.9756839,108.95157 91.8447822,109.261601 91.5829787,109.482067 C91.3211753,109.702533 90.9388045,109.812766 90.4358663,109.812766 L90.4358663,109.812766 Z M100.594529,113.161094 L100.594529,111.817629 L96.6571429,111.817629 L96.6571429,110.143465 L100.015805,110.143465 L100.015805,108.841337 L96.6571429,108.841337 L96.6571429,107.270517 L100.460182,107.270517 L100.460182,105.927052 L94.9933131,105.927052 L94.9933131,113.161094 L100.594529,113.161094 Z M105.4,113.285106 C105.923607,113.285106 106.443769,113.205876 106.960486,113.047416 C107.477204,112.888956 107.931915,112.661601 108.32462,112.36535 L108.32462,112.36535 L108.32462,109.430395 L106.795137,109.430395 L106.795137,111.548936 C106.409321,111.755623 105.975279,111.858967 105.493009,111.858967 C105.038298,111.858967 104.633536,111.76079 104.278723,111.564438 C103.923911,111.368085 103.646606,111.094225 103.446809,110.742857 C103.247011,110.391489 103.147112,109.991895 103.147112,109.544073 C103.147112,109.089362 103.247011,108.686322 103.446809,108.334954 C103.646606,107.983587 103.925633,107.711449 104.283891,107.518541 C104.642148,107.325633 105.052077,107.229179 105.513678,107.229179 C106.243972,107.229179 106.867477,107.501317 107.384195,108.045593 L107.384195,108.045593 L108.458967,107.053495 C108.107599,106.647011 107.673556,106.336981 107.156839,106.123404 C106.640122,105.909828 106.064843,105.80304 105.431003,105.80304 C104.673151,105.80304 103.991084,105.963222 103.384802,106.283587 C102.778521,106.603951 102.304863,107.048328 101.96383,107.616717 C101.622796,108.185106 101.45228,108.827558 101.45228,109.544073 C101.45228,110.260588 101.622796,110.90304 101.96383,111.471429 C102.304863,112.039818 102.775076,112.484195 103.374468,112.804559 C103.97386,113.124924 104.649037,113.285106 105.4,113.285106 Z M110.639514,113.161094 L111.280243,111.610942 L114.638906,111.610942 L115.279635,113.161094 L117.036474,113.161094 L113.801824,105.927052 L112.148328,105.927052 L108.924012,113.161094 L110.639514,113.161094 Z M114.111854,110.339818 L111.817629,110.339818 L112.964742,107.570213 L114.111854,110.339818 Z M119.465046,113.161094 L119.465046,111.145897 L121.004863,111.145897 L122.4,113.161094 L124.198176,113.161094 L122.575684,110.835866 C123.051064,110.629179 123.417933,110.331206 123.676292,109.941945 C123.93465,109.552685 124.06383,109.089362 124.06383,108.551976 C124.06383,108.01459 123.936373,107.549544 123.681459,107.156839 C123.426545,106.764134 123.063121,106.460993 122.591185,106.247416 C122.11925,106.03384 121.562918,105.927052 120.922188,105.927052 L120.922188,105.927052 L117.790881,105.927052 L117.790881,113.161094 L119.465046,113.161094 Z M120.829179,109.812766 L119.465046,109.812766 L119.465046,107.291185 L120.829179,107.291185 C121.332118,107.291185 121.714488,107.399696 121.976292,107.616717 C122.238095,107.833739 122.368997,108.145491 122.368997,108.551976 C122.368997,108.95157 122.238095,109.261601 121.976292,109.482067 C121.714488,109.702533 121.332118,109.812766 120.829179,109.812766 L120.829179,109.812766 Z M59.918541,128.786626 C60.6695035,128.786626 61.3446809,128.624721 61.9440729,128.300912 C62.543465,127.977102 63.0154002,127.531003 63.3598784,126.962614 C63.7043566,126.394225 63.8765957,125.755218 63.8765957,125.045593 C63.8765957,124.335968 63.7043566,123.69696 63.3598784,123.128571 C63.0154002,122.560182 62.543465,122.114083 61.9440729,121.790274 C61.3446809,121.466464 60.6695035,121.304559 59.918541,121.304559 C59.1675785,121.304559 58.4906788,121.466464 57.8878419,121.790274 C57.2850051,122.114083 56.8130699,122.560182 56.4720365,123.128571 C56.131003,123.69696 55.9604863,124.335968 55.9604863,125.045593 C55.9604863,125.755218 56.131003,126.394225 56.4720365,126.962614 C56.8130699,127.531003 57.2850051,127.977102 57.8878419,128.300912 C58.4906788,128.624721 59.1675785,128.786626 59.918541,128.786626 Z M59.918541,127.360486 C59.491388,127.360486 59.1055724,127.26231 58.7610942,127.065957 C58.416616,126.869605 58.1462006,126.595745 57.949848,126.244377 C57.7534954,125.893009 57.6553191,125.493414 57.6553191,125.045593 C57.6553191,124.597771 57.7534954,124.198176 57.949848,123.846809 C58.1462006,123.495441 58.416616,123.221581 58.7610942,123.025228 C59.1055724,122.828875 59.491388,122.730699 59.918541,122.730699 C60.345694,122.730699 60.7315096,122.828875 61.0759878,123.025228 C61.4204661,123.221581 61.6908815,123.495441 61.887234,123.846809 C62.0835866,124.198176 62.1817629,124.597771 62.1817629,125.045593 C62.1817629,125.493414 62.0835866,125.893009 61.887234,126.244377 C61.6908815,126.595745 61.4204661,126.869605 61.0759878,127.065957 C60.7315096,127.26231 60.345694,127.360486 59.918541,127.360486 Z M73.9319149,130.326444 C74.3315096,130.326444 74.6983789,130.250659 75.0325228,130.099088 C75.3666667,129.947518 75.6508612,129.727052 75.8851064,129.43769 L75.8851064,129.43769 L75.1410334,128.548936 C74.8034448,128.907194 74.4107396,129.086322 73.9629179,129.086322 C73.7768997,129.086322 73.6029382,129.046707 73.4410334,128.967477 C73.2791287,128.888247 73.1120567,128.759068 72.9398176,128.579939 C73.7183384,128.331915 74.3435664,127.890983 74.8155015,127.257143 C75.2874367,126.623303 75.5234043,125.88612 75.5234043,125.045593 C75.5234043,124.335968 75.3511651,123.69696 75.0066869,123.128571 C74.6622087,122.560182 74.1902736,122.114083 73.5908815,121.790274 C72.9914894,121.466464 72.3163121,121.304559 71.5653495,121.304559 C70.814387,121.304559 70.1374873,121.466464 69.5346505,121.790274 C68.9318136,122.114083 68.4598784,122.560182 68.118845,123.128571 C67.7778116,123.69696 67.6072948,124.335968 67.6072948,125.045593 C67.6072948,125.693212 67.7502533,126.283992 68.0361702,126.817933 C68.3220871,127.351874 68.7216819,127.787639 69.2349544,128.125228 C69.748227,128.462817 70.3321175,128.672948 70.9866261,128.755623 C71.5446809,129.341236 72.0407295,129.749443 72.474772,129.980243 C72.9088146,130.211044 73.3945289,130.326444 73.9319149,130.326444 Z M71.5653495,127.360486 C71.1381966,127.360486 70.752381,127.26231 70.4079027,127.065957 C70.0634245,126.869605 69.7930091,126.595745 69.5966565,126.244377 C69.400304,125.893009 69.3021277,125.493414 69.3021277,125.045593 C69.3021277,124.597771 69.400304,124.198176 69.5966565,123.846809 C69.7930091,123.495441 70.0634245,123.221581 70.4079027,123.025228 C70.752381,122.828875 71.1381966,122.730699 71.5653495,122.730699 C71.9925025,122.730699 72.3783181,122.828875 72.7227964,123.025228 C73.0672746,123.221581 73.33769,123.495441 73.5340426,123.846809 C73.7303951,124.198176 73.8285714,124.597771 73.8285714,125.045593 C73.8285714,125.493414 73.7303951,125.893009 73.5340426,126.244377 C73.33769,126.595745 73.0672746,126.869605 72.7227964,127.065957 C72.3783181,127.26231 71.9925025,127.360486 71.5653495,127.360486 Z M78.4583587,128.662614 L78.4583587,126.647416 L79.9981763,126.647416 L81.3933131,128.662614 L83.1914894,128.662614 L81.568997,126.337386 C82.0443769,126.130699 82.4112462,125.832725 82.6696049,125.443465 C82.9279635,125.054205 83.0571429,124.590881 83.0571429,124.053495 C83.0571429,123.516109 82.9296859,123.051064 82.674772,122.658359 C82.4198582,122.265653 82.0564336,121.962513 81.5844985,121.748936 C81.1125633,121.53536 80.556231,121.428571 79.9155015,121.428571 L79.9155015,121.428571 L76.7841945,121.428571 L76.7841945,128.662614 L78.4583587,128.662614 Z M79.8224924,125.314286 L78.4583587,125.314286 L78.4583587,122.792705 L79.8224924,122.792705 C80.3254306,122.792705 80.7078014,122.901216 80.9696049,123.118237 C81.2314083,123.335258 81.36231,123.647011 81.36231,124.053495 C81.36231,124.45309 81.2314083,124.763121 80.9696049,124.983587 C80.7078014,125.204053 80.3254306,125.314286 79.8224924,125.314286 L79.8224924,125.314286 Z M90.7665653,128.786626 C91.3935157,128.786626 91.9619048,128.676393 92.4717325,128.455927 C92.9815603,128.235461 93.4087133,127.915096 93.7531915,127.494833 L93.7531915,127.494833 L92.6784195,126.502736 C92.1892604,127.074569 91.5829787,127.360486 90.8595745,127.360486 C90.4117528,127.360486 90.0121581,127.26231 89.6607903,127.065957 C89.3094225,126.869605 89.0355623,126.595745 88.8392097,126.244377 C88.6428571,125.893009 88.5446809,125.493414 88.5446809,125.045593 C88.5446809,124.597771 88.6428571,124.198176 88.8392097,123.846809 C89.0355623,123.495441 89.3094225,123.221581 89.6607903,123.025228 C90.0121581,122.828875 90.4117528,122.730699 90.8595745,122.730699 C91.5829787,122.730699 92.1892604,123.013171 92.6784195,123.578116 L92.6784195,123.578116 L93.7531915,122.586018 C93.4087133,122.172644 92.9832827,121.855724 92.4768997,121.635258 C91.9705167,121.414792 91.4038501,121.304559 90.7768997,121.304559 C90.0328267,121.304559 89.3628166,121.464742 88.7668693,121.785106 C88.170922,122.105471 87.7024316,122.549848 87.3613982,123.118237 C87.0203647,123.686626 86.849848,124.329078 86.849848,125.045593 C86.849848,125.762107 87.0203647,126.404559 87.3613982,126.972948 C87.7024316,127.541337 88.170922,127.985714 88.7668693,128.306079 C89.3628166,128.626444 90.029382,128.786626 90.7665653,128.786626 Z M98.2279635,128.786626 C98.978926,128.786626 99.6541033,128.624721 100.253495,128.300912 C100.852888,127.977102 101.324823,127.531003 101.669301,126.962614 C102.013779,126.394225 102.186018,125.755218 102.186018,125.045593 C102.186018,124.335968 102.013779,123.69696 101.669301,123.128571 C101.324823,122.560182 100.852888,122.114083 100.253495,121.790274 C99.6541033,121.466464 98.978926,121.304559 98.2279635,121.304559 C97.477001,121.304559 96.8001013,121.466464 96.1972644,121.790274 C95.5944276,122.114083 95.1224924,122.560182 94.781459,123.128571 C94.4404255,123.69696 94.2699088,124.335968 94.2699088,125.045593 C94.2699088,125.755218 94.4404255,126.394225 94.781459,126.962614 C95.1224924,127.531003 95.5944276,127.977102 96.1972644,128.300912 C96.8001013,128.624721 97.477001,128.786626 98.2279635,128.786626 Z M98.2279635,127.360486 C97.8008105,127.360486 97.4149949,127.26231 97.0705167,127.065957 C96.7260385,126.869605 96.4556231,126.595745 96.2592705,126.244377 C96.0629179,125.893009 95.9647416,125.493414 95.9647416,125.045593 C95.9647416,124.597771 96.0629179,124.198176 96.2592705,123.846809 C96.4556231,123.495441 96.7260385,123.221581 97.0705167,123.025228 C97.4149949,122.828875 97.8008105,122.730699 98.2279635,122.730699 C98.6551165,122.730699 99.0409321,122.828875 99.3854103,123.025228 C99.7298886,123.221581 100.000304,123.495441 100.196657,123.846809 C100.393009,124.198176 100.491185,124.597771 100.491185,125.045593 C100.491185,125.493414 100.393009,125.893009 100.196657,126.244377 C100.000304,126.595745 99.7298886,126.869605 99.3854103,127.065957 C99.0409321,127.26231 98.6551165,127.360486 98.2279635,127.360486 Z M106.733131,128.662614 C107.518541,128.662614 108.212665,128.512766 108.815502,128.21307 C109.418338,127.913374 109.886829,127.491388 110.220973,126.947112 C110.555117,126.402837 110.722188,125.768997 110.722188,125.045593 C110.722188,124.322188 110.555117,123.688349 110.220973,123.144073 C109.886829,122.599797 109.418338,122.177812 108.815502,121.878116 C108.212665,121.578419 107.518541,121.428571 106.733131,121.428571 L106.733131,121.428571 L103.446809,121.428571 L103.446809,128.662614 L106.733131,128.662614 Z M106.650456,127.288146 L105.120973,127.288146 L105.120973,122.80304 L106.650456,122.80304 C107.37386,122.80304 107.950861,123.004559 108.381459,123.407599 C108.812057,123.810638 109.027356,124.356636 109.027356,125.045593 C109.027356,125.734549 108.812057,126.280547 108.381459,126.683587 C107.950861,127.086626 107.37386,127.288146 106.650456,127.288146 L106.650456,127.288146 Z M117.584195,128.662614 L117.584195,127.319149 L113.646809,127.319149 L113.646809,125.644985 L117.005471,125.644985 L117.005471,124.342857 L113.646809,124.342857 L113.646809,122.772036 L117.449848,122.772036 L117.449848,121.428571 L111.982979,121.428571 L111.982979,128.662614 L117.584195,128.662614 Z" id="CLIQUEPARARECARREGAROQRCODE" fill="#FFFFFF" fill-rule="nonzero"></path>
                <g id="Group-3" transform="translate(68.723404, 42.370821)">
                    <mask id="mask-2" fill="white">
                        <use xlink:href="#path-1"></use>
                    </mask>
                    <g id="Clip-2"></g>
                    <path d="M30.4314247,13.3649558 C27.5271042,5.7789866 19.3917906,1.73866838 11.7131919,3.77330085 L12.928954,1.04394721 C13.0955584,0.669569692 12.9270242,0.230866137 12.5526467,0.0642617083 C12.1776259,-0.102342721 11.7389223,0.0661914894 11.5729612,0.440569009 L9.70043031,4.64813492 C9.60265474,4.83532368 9.5756378,5.05789176 9.66183469,5.26888115 C9.74545853,5.47343794 9.9114197,5.61366869 10.1043978,5.68185429 L14.3055311,7.55052559 C14.3994471,7.59298077 14.5017255,7.61549488 14.6052904,7.61549488 L14.6052904,7.61227858 C14.8992604,7.61292184 15.1662134,7.43988481 15.2852166,7.17100198 C15.4511778,6.79662446 15.2820003,6.35792091 14.9076228,6.19195974 L12.4960398,5.11900149 C15.8532155,4.33358061 19.4046559,4.77421394 22.4800836,6.42803629 C29.4028514,10.1531569 31.9958338,18.7857107 28.2707132,25.7091218 C24.5455925,32.6325329 15.913682,35.2248721 8.99027089,31.4997514 C2.06685981,27.7746308 -0.526122635,19.142077 3.19899802,12.2193092 C3.39326264,11.8584401 3.25817797,11.4081579 2.89730891,11.2138932 C2.53643986,11.0196286 2.08615762,11.1547133 1.891893,11.5155823 C0.648470752,13.8171679 -0.001865455,16.3914958 6.00437843e-05,19.0069923 C0.00456714844,27.7006559 7.0566303,34.7449999 15.7509371,34.7398566 C17.6672097,34.7372808 19.5674007,34.3847741 21.3582375,33.6990586 C29.4787561,30.5895381 33.5409452,21.4861177 30.4314247,13.3649558" id="Fill-1" fill="#FFFFFF" mask="url(#mask-2)"></path>
                </g>
            </g>
        </g>
    </g>
</svg>